<REAPER_PROJECT 0.1 "6.79/win64" 1724789934
  <NOTES 0 2
  >
  RIPPLE 0
  GROUPOVERRIDE 0 0 0
  AUTOXFADE 129
  ENVATTACH 1
  POOLEDENVATTACH 0
  MIXERUIFLAGS 11 48
  PEAKGAIN 1
  FEEDBACK 0
  PANLAW 1
  PROJOFFS 0 0 0
  MAXPROJLEN 0 0
  GRID 3199 8 1 8 1 0 0 0
  TIMEMODE 1 5 -1 30 0 0 -1
  VIDEO_CONFIG 0 0 256
  PANMODE 3
  CURSOR 131.6570879999978
  ZOOM 8.64576897535816 0 0
  VZOOMEX 0 0
  USE_REC_CFG 0
  RECMODE 1
  SMPTESYNC 0 30 100 40 1000 300 0 0 1 0 0
  LOOP 0
  LOOPGRAN 0 4
  RECORD_PATH "" ""
  <RECORD_CFG
    ZXZhdxgAAQ==
  >
  <APPLYFX_CFG
  >
  RENDER_FILE ""
  RENDER_PATTERN ""
  RENDER_FMT 0 2 0
  RENDER_1X 0
  RENDER_RANGE 2 0 0 18 1000
  RENDER_RESAMPLE 3 0 1
  RENDER_ADDTOPROJ 0
  RENDER_STEMS 0
  RENDER_DITHER 0
  TIMELOCKMODE 1
  TEMPOENVLOCKMODE 1
  ITEMMIX 1
  DEFPITCHMODE 589824 0
  TAKELANE 1
  SAMPLERATE 44100 0 0
  <RENDER_CFG
    ZXZhdxgAAQ==
  >
  LOCK 1
  <METRONOME 6 2
    VOL 0.25 0.125
    FREQ 800 1600 1
    BEATLEN 4
    SAMPLES "" ""
    PATTERN 2863311530 2863311529
    MULT 1
  >
  GLOBAL_AUTO -1
  TEMPO 120 4 4
  PLAYRATE 1 0 0.25 4
  SELECTION 109.71423999999816 108.34281199999818
  SELECTION2 109.71423999999816 108.34281199999818
  MASTERAUTOMODE 0
  MASTERTRACKHEIGHT 0 0
  MASTERPEAKCOL 16576
  MASTERMUTESOLO 0
  MASTERTRACKVIEW 0 0.6667 0.5 0.5 0 0 0 0 0 0 0 0 0
  MASTERHWOUT 0 0 1 0 0 0 0 -1
  MASTER_NCH 2 2
  MASTER_VOLUME 1 0 -1 -1 1
  MASTER_PANMODE 3
  MASTER_FX 1
  MASTER_SEL 0
  <MASTERPLAYSPEEDENV
    EGUID {BD8FC9A9-7FD8-473A-92EC-3D8BEC4ACF3C}
    ACT 0 -1
    VIS 0 1 1
    LANEHEIGHT 0 0
    ARM 0
    DEFSHAPE 0 -1 -1
  >
  <TEMPOENVEX
    EGUID {59C0A5D3-E1BF-47B9-B41A-6565C4B6AEA3}
    ACT 0 -1
    VIS 1 0 1
    LANEHEIGHT 0 0
    ARM 0
    DEFSHAPE 1 -1 -1
    PT 0.000000000000 175.0000729167 1 262148 0 1
  >
  MARKER 1 0 "C1-P4 ELEC PIANO" 0 0 1 R {75940E87-1F6A-4B81-9317-C7CCF15C04CA}
  MARKER 2 0 "C2-P37-BASS 1" 0 0 1 R {16FF6043-89AF-492E-841E-A1D9D2EB0265}
  MARKER 3 0 "C3-P40-BASS 2" 0 0 1 R {F6C19846-5C79-43A6-B3B3-BE198EC5C737}
  MARKER 4 0 C4-P91-POLYSYNTH 0 0 1 R {5AC3FB84-1C4D-4BEC-87C2-77C24C18907E}
  MARKER 5 0 "C5-P81-SYNTH MELODY" 0 0 1 R {E1DD1855-9201-438A-911B-AB0FBE03AC28}
  MARKER 6 0 "C9-P29 ELEC GUIT" 0 0 1 R {F0126FB7-23BC-48D4-A71D-300DD3970FA8}
  MARKER 7 0 C6-P27-CLAVINET 0 0 1 R {93BB9993-EC44-4BF4-A81A-2C321BEDD9E1}
  MARKER 8 0 C7-P77-BOTTLE 0 0 1 R {ABFFDB0F-394D-4D95-A99F-3FC355CB98BC}
  MARKER 9 0 C8-P62-BRASS 0 0 1 R {EEDC2A9F-323A-4768-819F-1809C29FB75B}
  MARKER 10 0 C10-DRUMS 0 0 1 R {6C57D0C4-FA68-4B1D-9A32-CEA4B78209C9}
  MARKER 11 0 "C11-P56-ORCH HIT" 0 0 1 R {AC234035-D736-47F1-B267-A3E1CEA721A3}
  MARKER 12 0 ©1991 0 0 1 R {5EE5DDAE-27C0-4CBB-BEAB-F3674C6ED950}
  MARKER 13 0 "Passport Designs, Inc." 0 0 1 R {E219237F-8468-4A5C-A898-CBEC923D1D88}
  MARKER 14 0 "Prod by Music Data Company" 0 0 1 R {3737AF9D-8B0E-4344-A6D7-B143C30AABBB}
  MARKER 15 0 C13-P64-Melody 0 0 1 R {28E716C2-AA62-4BC2-9E8E-C8BD2885285B}
  MARKER 16 0 C14-P2-Piano 0 0 1 R {261551F9-D481-463E-8F69-0974F6419250}
  MARKER 17 0 C15-P1-Bass 0 0 1 R {32B73FDB-1874-4A87-AFAA-63786B998F86}
  MARKER 18 0 "PASSPORT PLEASE" 0 0 1 R {FF5DDB37-D99F-4BC1-83F7-2F2496E3AC66}
  MARKER 19 0 C16-Drums 0 0 1 R {5636F22F-F6EC-4262-86F1-F05AD24265C6}
  <PROJBAY
  >
  <TRACK {61B7FD9B-A912-42F2-A3D4-EB5241747DA7}
    NAME "PASSPORT.MID [meta-events] [meta-events]"
    PEAKCOL 16576
    BEAT -1
    AUTOMODE 0
    VOLPAN 1 0 -1 -1 1
    MUTESOLO 0 0 0
    IPHASE 0
    PLAYOFFS 0 1
    ISBUS 0 0
    BUSCOMP 0 0 0 0 0
    SHOWINMIX 1 0.6667 0.5 1 0.5 0 0 0
    SEL 0
    REC 0 0 1 0 0 0 0 0
    VU 2
    TRACKHEIGHT 0 0 0 0 0 0
    INQ 0 0 0 0.5 100 0 0 100
    NCHAN 2
    FX 1
    TRACKID {61B7FD9B-A912-42F2-A3D4-EB5241747DA7}
    PERF 0
    MIDIOUT 32
    MAINSEND 1 0
    <ITEM
      POSITION 0
      SNAPOFFS 0
      LENGTH 122.057092
      LOOP 1
      ALLTAKES 0
      FADEIN 1 0 0 1 0 0 0
      FADEOUT 1 0 0 1 0 0 0
      MUTE 0 0
      SEL 0
      IGUID {88C0C684-847E-4595-A2B6-863897F6CBFE}
      IID 2
      NAME "PASSPORT.MID [meta-events]"
      VOLPAN 1 0 1 -1
      SOFFS 0 0
      PLAYRATE 1 1 0 -1 0 0.0025
      CHANMODE 0
      GUID {84B2DBC5-CF3B-4B78-A368-BD611F3726C3}
      <SOURCE MIDI
        HASDATA 1 960 QN
        CCINTERP 32
        POOLEDEVTS {7C1BCA6E-AAF1-4E43-B7F6-DCDE7CB72229}
        <X 0 0
          /1kCAAA=
        >
        <X 0 0 0 0 6 "C1-P4 ELEC PIANO"
          /wZDMS1QNCBFTEVDIFBJQU5P
        >
        <X 0 0 0 0 6 "C2-P37-BASS 1"
          /wZDMi1QMzctQkFTUyAx
        >
        <X 0 0 0 0 6 "C3-P40-BASS 2"
          /wZDMy1QNDAtQkFTUyAy
        >
        <X 0 0 0 0 6 C4-P91-POLYSYNTH
          /wZDNC1QOTEtUE9MWVNZTlRI
        >
        <X 0 0 0 0 6 "C5-P81-SYNTH MELODY"
          /wZDNS1QODEtU1lOVEggTUVMT0RZ
        >
        <X 0 0 0 0 6 "C9-P29 ELEC GUIT"
          /wZDOS1QMjkgRUxFQyBHVUlU
        >
        <X 0 0 0 0 6 C6-P27-CLAVINET
          /wZDNi1QMjctQ0xBVklORVQ=
        >
        <X 0 0 0 0 6 C7-P77-BOTTLE
          /wZDNy1QNzctQk9UVExF
        >
        <X 0 0 0 0 6 C8-P62-BRASS
          /wZDOC1QNjItQlJBU1M=
        >
        <X 0 0 0 0 6 C10-DRUMS
          /wZDMTAtRFJVTVM=
        >
        <X 0 0 0 0 6 "C11-P56-ORCH HIT"
          /wZDMTEtUDU2LU9SQ0ggSElU
        >
        <X 0 0 0 0 6 ©1991
          /wbCqTE5OTE=
        >
        <X 0 0 0 0 6 "Passport Designs, Inc."
          /wZQYXNzcG9ydCBEZXNpZ25zLCBJbmMu
        >
        <X 0 0 0 0 6 "Prod by Music Data Company"
          /wZQcm9kIGJ5IE11c2ljIERhdGEgQ29tcGFueQ==
        >
        <X 0 0 0 0 6 C13-P64-Melody
          /wZDMTMtUDY0LU1lbG9keQ==
        >
        <X 0 0 0 0 6 C14-P2-Piano
          /wZDMTQtUDItUGlhbm8=
        >
        <X 0 0 0 0 6 C15-P1-Bass
          /wZDMTUtUDEtQmFzcw==
        >
        <X 0 0 0 0 6 "PASSPORT PLEASE"
          /wZQQVNTUE9SVCBQTEVBU0U=
        >
        <X 0 0 0 0 6 C16-Drums
          /wZDMTYtRHJ1bXM=
        >
        E 341760 b0 7b 00
        CCINTERP 32
        CHASE_CC_TAKEOFFS 1
        GUID {133B930C-87AA-41C0-B747-0FB61B7D511E}
        IGNTEMPO 0 120 4 4
        SRCCOLOR 21
        VELLANE 131 100 0
      >
    >
  >
  <TRACK {BF719D40-54D6-4DFE-AB64-6F85D252B2A6}
    NAME "PASSPORT.MID [chan 1] [chan 1]"
    PEAKCOL 16576
    BEAT -1
    AUTOMODE 0
    VOLPAN 1 0 -1 -1 1
    MUTESOLO 0 0 0
    IPHASE 0
    PLAYOFFS 0 1
    ISBUS 0 0
    BUSCOMP 0 0 0 0 0
    SHOWINMIX 1 0.6667 0.5 1 0.5 0 0 0
    SEL 0
    REC 0 0 1 0 0 0 0 0
    VU 2
    TRACKHEIGHT 0 0 0 0 0 0
    INQ 0 0 0 0.5 100 0 0 100
    NCHAN 2
    FX 1
    TRACKID {BF719D40-54D6-4DFE-AB64-6F85D252B2A6}
    PERF 0
    MIDIOUT 32
    MAINSEND 0 0
    <ITEM
      POSITION 0
      SNAPOFFS 0
      LENGTH 122.057092
      LOOP 1
      ALLTAKES 0
      FADEIN 1 0 0 1 0 0 0
      FADEOUT 1 0 0 1 0 0 0
      MUTE 0 0
      SEL 0
      IGUID {AA3AB00D-B0C6-44B8-8653-E08DBF2A4BB1}
      IID 3
      NAME "PASSPORT.MID [chan 1]"
      VOLPAN 1 0 1 -1
      SOFFS 0 0
      PLAYRATE 1 1 0 -1 0 0.0025
      CHANMODE 0
      GUID {855F5BDE-6DB6-4310-A930-2E0E37527557}
      <SOURCE MIDI
        HASDATA 1 960 QN
        CCINTERP 32
        POOLEDEVTS {65CDF97A-6F0C-49F2-BEE6-B7F8DB0A7FF0}
        E 0 b0 00 05
        E 0 b0 20 57
        E 0 c0 03 00
        E 0 b0 07 3c
        E 0 b0 0a 3b
        E 0 e0 00 40
        E 3828 a0 0c 00
        E 4 a0 03 00
        E 4 a0 02 00
        E 4 e0 00 40
        E 53760 b0 5b 59
        E 0 b0 5d 63
        E 3840 90 41 6f
        E 0 90 3a 63
        E 0 90 45 71
        E 1128 90 45 00
        E 4 90 41 00
        E 308 90 41 73
        E 0 90 3e 71
        E 0 90 37 55
        E 1064 90 3e 00
        E 20 90 41 00
        E 160 90 37 00
        E 192 90 3a 00
        E 4 90 38 63
        E 0 90 43 6f
        E 0 90 3f 75
        E 4104 90 43 00
        E 116 90 3f 00
        E 260 90 38 00
        E 320 90 41 77
        E 0 90 37 52
        E 0 90 3e 75
        E 1120 90 41 00
        E 48 90 3e 00
        E 272 90 3e 73
        E 0 90 33 67
        E 0 90 3a 71
        E 76 90 37 00
        E 1388 90 3a 00
        E 172 90 3e 00
        E 200 90 33 00
        E 84 90 3c 71
        E 0 90 37 5c
        E 0 90 35 63
        E 3288 90 35 00
        E 124 90 37 00
        E 184 90 3c 00
        E 724 90 41 79
        E 0 90 3a 67
        E 0 90 45 77
        E 1048 90 45 00
        E 20 90 41 00
        E 372 90 37 52
        E 0 90 41 6f
        E 0 90 3e 6b
        E 1040 90 3e 00
        E 76 90 41 00
        E 112 90 37 00
        E 132 90 3a 00
        E 80 90 38 61
        E 0 90 43 69
        E 0 90 3f 75
        E 2500 90 43 00
        E 16 90 3f 00
        E 224 90 38 00
        E 140 90 3c 63
        E 0 90 3f 7b
        E 0 90 35 4b
        E 312 90 3c 00
        E 52 90 3f 00
        E 24 90 35 00
        E 572 90 43 71
        E 0 90 38 5f
        E 0 90 3f 7d
        E 336 90 43 00
        E 16 90 3f 00
        E 192 90 38 00
        E 416 90 37 53
        E 0 90 41 71
        E 0 90 3e 6d
        E 1020 90 3e 00
        E 216 90 37 00
        E 204 90 37 57
        E 0 90 3a 6d
        E 0 90 3e 67
        E 168 90 41 00
        E 1028 90 3a 00
        E 104 90 3e 00
        E 496 90 37 00
        E 604 90 43 75
        e 0 90 3c 75
        E 120 80 43 70
        e 0 80 3c 70
        E 100 90 41 6e
        e 0 90 3a 6e
        E 120 80 41 69
        e 0 80 3a 69
        E 140 90 3e 75
        e 0 90 37 75
        E 120 80 3e 70
        e 0 80 37 70
        E 120 90 41 6c
        e 0 90 3a 6c
        E 110 80 41 67
        e 0 80 3a 67
        E 130 90 43 74
        e 0 90 3c 74
        E 140 80 43 6f
        e 0 80 3c 6f
        E 120 90 41 6b
        e 0 90 3a 6b
        E 100 80 41 66
        e 0 80 3a 66
        E 120 90 3e 76
        e 0 90 37 76
        E 140 80 3e 71
        e 0 80 37 71
        E 100 90 3c 6c
        e 0 90 35 6c
        E 120 80 3c 67
        e 0 80 35 67
        E 140 90 3e 74
        e 0 90 37 74
        E 110 80 3e 6f
        e 0 80 37 6f
        E 110 90 41 6a
        e 0 90 3a 6a
        E 130 80 41 65
        e 0 80 3a 65
        E 130 90 43 75
        e 0 90 3c 75
        E 110 80 43 70
        e 0 80 3c 70
        E 110 90 46 6c
        e 0 90 3f 6c
        E 140 80 46 67
        e 0 80 3f 67
        E 130 90 41 73
        e 0 90 3a 73
        E 100 80 41 6e
        e 0 80 3a 6e
        E 110 90 3e 69
        e 0 90 37 69
        E 120 80 3e 64
        e 0 80 37 64
        E 130 90 3c 76
        e 0 90 35 76
        E 110 80 3c 71
        e 0 80 35 71
        E 120 90 3a 6c
        e 0 90 33 6c
        E 120 80 3a 6c
        e 0 80 33 6c
        E 120 90 41 6f
        E 0 90 45 71
        E 0 90 3a 63
        E 1128 90 45 00
        E 4 90 41 00
        E 308 90 41 73
        E 0 90 3e 71
        E 0 90 37 55
        E 1064 90 3e 00
        E 20 90 41 00
        E 160 90 37 00
        E 192 90 3a 00
        E 4 90 3f 75
        E 0 90 38 63
        E 0 90 43 6f
        E 4104 90 43 00
        E 116 90 3f 00
        E 260 90 38 00
        E 320 90 3e 75
        E 0 90 37 52
        E 0 90 41 77
        E 1120 90 41 00
        E 48 90 3e 00
        E 272 90 3a 71
        E 0 90 33 67
        E 0 90 3e 73
        E 76 90 37 00
        E 1388 90 3a 00
        E 172 90 3e 00
        E 200 90 33 00
        E 84 90 3c 71
        E 0 90 37 5c
        E 0 90 35 63
        E 3288 90 35 00
        E 124 90 37 00
        E 184 90 3c 00
        E 724 90 45 77
        E 0 90 41 79
        E 0 90 3a 67
        E 1048 90 45 00
        E 20 90 41 00
        E 372 90 37 52
        E 0 90 41 6f
        E 0 90 3e 6b
        E 1040 90 3e 00
        E 76 90 41 00
        E 112 90 37 00
        E 132 90 3a 00
        E 80 90 43 69
        E 0 90 3f 75
        E 0 90 38 61
        E 2500 90 43 00
        E 16 90 3f 00
        E 224 90 38 00
        E 140 90 35 4b
        E 0 90 3f 7b
        E 0 90 3c 63
        E 312 90 3c 00
        E 52 90 3f 00
        E 24 90 35 00
        E 572 90 3f 7d
        E 0 90 43 71
        E 0 90 38 5f
        E 336 90 43 00
        E 16 90 3f 00
        E 192 90 38 00
        E 416 90 37 53
        E 0 90 3e 6d
        E 0 90 41 71
        E 1020 90 3e 00
        E 216 90 37 00
        E 204 90 3e 67
        E 0 90 37 57
        E 0 90 3a 6d
        E 168 90 41 00
        E 1028 90 3a 00
        E 104 90 3e 00
        E 496 90 37 00
        E 124 90 3e 73
        E 0 90 43 6f
        E 0 90 41 73
        E 0 90 3c 6d
        E 3944 90 3c 00
        E 32 90 3e 00
        E 32 90 41 00
        E 32 90 43 00
        E 280 90 41 6f
        E 0 90 3a 63
        E 0 90 45 71
        E 1128 90 45 00
        E 4 90 41 00
        E 308 90 41 73
        E 0 90 37 55
        E 0 90 3e 71
        E 1064 90 3e 00
        E 20 90 41 00
        E 160 90 37 00
        E 192 90 3a 00
        E 4 90 43 6f
        E 0 90 38 63
        E 0 90 3f 75
        E 4104 90 43 00
        E 116 90 3f 00
        E 260 90 38 00
        E 320 90 37 52
        E 0 90 3e 75
        E 0 90 41 77
        E 1120 90 41 00
        E 48 90 3e 00
        E 272 90 33 67
        E 0 90 3e 73
        E 0 90 3a 71
        E 76 90 37 00
        E 1388 90 3a 00
        E 172 90 3e 00
        E 200 90 33 00
        E 84 90 37 5c
        E 0 90 3c 71
        E 0 90 35 63
        E 3288 90 35 00
        E 124 90 37 00
        E 184 90 3c 00
        E 724 90 41 79
        E 0 90 45 77
        E 0 90 3a 67
        E 1048 90 45 00
        E 20 90 41 00
        E 372 90 3e 6b
        E 0 90 41 6f
        E 0 90 37 52
        E 1040 90 3e 00
        E 76 90 41 00
        E 112 90 37 00
        E 132 90 3a 00
        E 80 90 43 69
        E 0 90 38 61
        E 0 90 3f 75
        E 2500 90 43 00
        E 16 90 3f 00
        E 224 90 38 00
        E 140 90 3f 7b
        E 0 90 35 4b
        E 0 90 3c 63
        E 312 90 3c 00
        E 52 90 3f 00
        E 24 90 35 00
        E 572 90 3f 7d
        E 0 90 43 71
        E 0 90 38 5f
        E 336 90 43 00
        E 16 90 3f 00
        E 192 90 38 00
        E 416 90 41 71
        E 0 90 3e 6d
        E 0 90 37 53
        E 1020 90 3e 00
        E 216 90 37 00
        E 204 90 37 57
        E 0 90 3e 67
        E 0 90 3a 6d
        E 168 90 41 00
        E 1028 90 3a 00
        E 104 90 3e 00
        E 496 90 37 00
        E 124 90 3e 73
        E 0 90 43 6f
        E 0 90 41 73
        E 0 90 3c 6d
        E 3944 90 3c 00
        E 32 90 3e 00
        E 32 90 41 00
        E 32 90 43 00
        E 2680 90 37 52
        E 480 90 38 5d
        E 480 90 3f 6d
        E 676 90 37 00
        E 224 90 38 00
        E 60 90 37 55
        E 228 90 3f 00
        E 252 90 38 59
        E 480 90 3e 5d
        E 9288 90 37 00
        E 68 90 38 00
        E 1424 90 3e 00
        E 1220 90 46 67
        E 960 90 43 55
        E 480 90 3c 5f
        E 9888 90 3c 00
        E 396 90 46 00
        E 20 90 43 00
        E 4096 90 43 5c
        E 480 90 44 56
        E 480 90 4b 6f
        E 776 90 43 00
        E 64 90 44 00
        E 120 90 43 59
        E 96 90 4b 00
        E 384 90 44 5f
        E 480 90 4a 67
        E 6164 90 43 00
        E 44 90 44 00
        E 0 90 4a 00
        E 5828 90 4f 69
        E 20 90 52 73
        E 556 90 4f 00
        E 404 90 4f 59
        E 16 90 4b 67
        E 92 90 52 00
        E 264 90 4b 00
        E 56 90 4f 00
        E 120 90 44 5d
        E 16 90 43 4a
        E 4 90 48 5a
        E 9588 90 48 00
        E 180 90 44 00
        E 12 90 43 00
        E 2076 90 3a 63
        E 0 90 45 71
        E 0 90 41 6f
        E 1128 90 45 00
        E 4 90 41 00
        E 308 90 37 55
        E 0 90 41 73
        E 0 90 3e 71
        E 1064 90 3e 00
        E 20 90 41 00
        E 160 90 37 00
        E 192 90 3a 00
        E 4 90 43 6f
        E 0 90 38 63
        E 0 90 3f 75
        E 4104 90 43 00
        E 116 90 3f 00
        E 260 90 38 00
        E 320 90 3e 75
        E 0 90 41 77
        E 0 90 37 52
        E 1120 90 41 00
        E 48 90 3e 00
        E 272 90 3e 73
        E 0 90 33 67
        E 0 90 3a 71
        E 76 90 37 00
        E 1388 90 3a 00
        E 172 90 3e 00
        E 200 90 33 00
        E 84 90 35 63
        E 0 90 3c 71
        E 0 90 37 5c
        E 480 90 35 00
        E 0 90 3c 00
        E 0 90 37 00
        E 3840 90 45 77
        E 0 90 3a 67
        E 0 90 41 79
        E 1048 90 45 00
        E 20 90 41 00
        E 372 90 3e 6b
        E 0 90 41 6f
        E 0 90 37 52
        E 1040 90 3e 00
        E 76 90 41 00
        E 112 90 37 00
        E 132 90 3a 00
        E 80 90 3f 75
        E 0 90 38 61
        E 0 90 43 69
        E 2500 90 43 00
        E 16 90 3f 00
        E 224 90 38 00
        E 140 90 35 4b
        E 0 90 3f 7b
        E 0 90 3c 63
        E 312 90 3c 00
        E 52 90 3f 00
        E 24 90 35 00
        E 572 90 43 71
        E 0 90 38 5f
        E 0 90 3f 7d
        E 336 90 43 00
        E 16 90 3f 00
        E 192 90 38 00
        E 416 90 3e 6d
        E 0 90 37 53
        E 0 90 41 71
        E 1020 90 3e 00
        E 216 90 37 00
        E 204 90 37 57
        E 0 90 3a 6d
        E 0 90 3e 67
        E 168 90 41 00
        E 1028 90 3a 00
        E 104 90 3e 00
        E 496 90 37 00
        E 124 90 41 73
        E 0 90 3c 6d
        E 0 90 3e 73
        E 0 90 43 6f
        E 3944 90 3c 00
        E 32 90 3e 00
        E 32 90 41 00
        E 32 90 43 00
        E 280 90 41 6f
        E 0 90 45 71
        E 0 90 3a 63
        E 1128 90 45 00
        E 4 90 41 00
        E 308 90 3e 71
        E 0 90 37 55
        E 0 90 41 73
        E 1064 90 3e 00
        E 20 90 41 00
        E 160 90 37 00
        E 192 90 3a 00
        E 4 90 3f 75
        E 0 90 38 63
        E 0 90 43 6f
        E 4104 90 43 00
        E 116 90 3f 00
        E 260 90 38 00
        E 320 90 41 77
        E 0 90 3e 75
        E 0 90 37 52
        E 1120 90 41 00
        E 48 90 3e 00
        E 272 90 33 67
        E 0 90 3e 73
        E 0 90 3a 71
        E 76 90 37 00
        E 1388 90 3a 00
        E 172 90 3e 00
        E 200 90 33 00
        E 84 90 35 63
        E 0 90 37 5c
        E 0 90 3c 71
        E 3288 90 35 00
        E 124 90 37 00
        E 184 90 3c 00
        E 724 90 41 79
        E 0 90 3a 67
        E 0 90 45 77
        E 1048 90 45 00
        E 20 90 41 00
        E 372 90 41 6f
        E 0 90 3e 6b
        E 0 90 37 52
        E 1040 90 3e 00
        E 76 90 41 00
        E 112 90 37 00
        E 132 90 3a 00
        E 80 90 38 61
        E 0 90 3f 75
        E 0 90 43 69
        E 2500 90 43 00
        E 16 90 3f 00
        E 224 90 38 00
        E 140 90 3f 7b
        E 0 90 3c 63
        E 0 90 35 4b
        E 312 90 3c 00
        E 52 90 3f 00
        E 24 90 35 00
        E 572 90 38 5f
        E 0 90 43 71
        E 0 90 3f 7d
        E 336 90 43 00
        E 16 90 3f 00
        E 192 90 38 00
        E 416 90 41 71
        E 0 90 3e 6d
        E 0 90 37 53
        E 1020 90 3e 00
        E 216 90 37 00
        E 204 90 37 57
        E 0 90 3a 6d
        E 0 90 3e 67
        E 168 90 41 00
        E 1028 90 3a 00
        E 104 90 3e 00
        E 496 90 37 00
        E 124 90 3e 73
        E 0 90 41 73
        E 0 90 3c 6d
        E 0 90 43 6f
        E 3944 90 3c 00
        E 32 90 3e 00
        E 32 90 41 00
        E 32 90 43 00
        E 280 90 24 73
        E 212 90 24 00
        E 268 90 24 63
        E 448 90 24 00
        E 512 90 24 6f
        E 240 90 24 00
        E 240 90 1f 61
        E 480 90 1f 00
        E 480 90 1f 7e
        E 856 90 1f 00
        E 11624 90 24 77
        E 280 90 24 00
        E 200 90 24 6d
        E 340 90 24 00
        E 620 90 24 69
        E 236 90 24 00
        E 244 90 1f 67
        E 536 90 1f 00
        E 404 90 1f 7f
        E 900 90 1f 00
        E 8720 90 1f 75
        E 1068 90 1f 00
        E 372 90 22 7d
        E 1064 90 22 00
        E 376 90 24 73
        E 244 90 24 00
        E 236 90 24 65
        E 360 90 24 00
        E 600 90 24 67
        E 248 90 24 00
        E 232 90 1f 6b
        E 468 90 1f 00
        E 492 90 22 79
        E 788 90 22 00
        E 10732 90 1f 71
        E 292 90 1f 00
        E 188 90 22 79
        E 300 90 22 00
        E 180 90 24 6d
        E 300 90 24 00
        E 180 90 24 65
        E 328 90 24 00
        E 632 90 24 6d
        E 288 90 24 00
        E 192 90 1f 6b
        E 388 90 1f 00
        E 572 90 22 7d
        E 996 90 22 00
        E 444 90 22 7b
        E 352 90 22 00
        E 608 90 22 79
        E 280 90 22 00
        E 200 90 1d 67
        E 504 90 1d 00
        E 456 90 1e 7d
        E 1196 90 1e 00
        E 244 90 1e 7b
        E 396 90 1e 00
        E 564 90 1e 79
        E 300 90 1e 00
        E 180 90 22 71
        E 468 90 22 00
        E 492 90 22 73
        E 352 90 22 00
        E 128 90 27 77
        E 348 90 27 00
        E 132 90 39 70
        E 230 80 39 70
        E 0 90 36 69
        E 260 80 36 69
        E 0 90 33 70
        E 220 80 33 70
        E 0 90 2f 67
        E 260 80 2f 67
        E 0 90 2d 6f
        E 230 80 2d 6f
        E 0 90 2a 66
        E 240 80 2a 66
        E 0 90 27 71
        E 220 80 27 71
        E 0 90 23 67
        E 260 80 23 67
        E 0 90 3b 6f
        E 230 80 3b 6f
        E 0 90 39 65
        E 250 80 39 65
        E 0 90 36 70
        E 240 80 36 70
        E 0 90 33 67
        E 230 80 33 67
        E 0 90 2f 6e
        E 260 80 2f 6e
        E 0 90 2d 64
        E 220 80 2d 64
        E 0 90 2a 71
        E 260 80 2a 71
        E 0 90 27 67
        E 200 80 27 67
        E 66 90 30 73
        E 456 90 30 00
        E 3347 e0 00 40
        E 1 b0 7b 00
        CCINTERP 32
        CHASE_CC_TAKEOFFS 1
        GUID {B1A27C2D-9B0C-4457-9DC8-C72D47CC1864}
        IGNTEMPO 0 120 4 4
        SRCCOLOR 23
        VELLANE 131 100 0
        CFGEDITVIEW 161589.665809 0.006462 22 12 0 -1 0 0 0 0.5
        KEYSNAP 0
        TRACKSEL 0
        EVTFILTER 0 -1 -1 -1 -1 0 0 0 0 -1 -1 -1 -1 0 -1 0 -1 -1
        CFGEDIT 1 1 0 1 0 0 1 1 1 1 1 0.08333333 308 201 1667 1056 0 0 0 0 0 0 0 1 0 0.5 0 0 1 64
      >
    >
  >
  <TRACK {FB00708F-8995-42D9-9CC7-C62DE10394B8}
    NAME "PASSPORT.MID [chan 2] [chan 2]"
    PEAKCOL 16576
    BEAT -1
    AUTOMODE 0
    VOLPAN 1 0 -1 -1 1
    MUTESOLO 0 0 0
    IPHASE 0
    PLAYOFFS 0 1
    ISBUS 0 0
    BUSCOMP 0 0 0 0 0
    SHOWINMIX 1 0.6667 0.5 1 0.5 0 0 0
    SEL 0
    REC 0 0 1 0 0 0 0 0
    VU 2
    TRACKHEIGHT 0 0 0 0 0 0
    INQ 0 0 0 0.5 100 0 0 100
    NCHAN 2
    FX 1
    TRACKID {FB00708F-8995-42D9-9CC7-C62DE10394B8}
    PERF 0
    MIDIOUT 32
    MAINSEND 0 0
    <ITEM
      POSITION 0
      SNAPOFFS 0
      LENGTH 122.057092
      LOOP 1
      ALLTAKES 0
      FADEIN 1 0 0 1 0 0 0
      FADEOUT 1 0 0 1 0 0 0
      MUTE 0 0
      SEL 0
      IGUID {06A10B0F-8052-4F51-AB29-31392570D83A}
      IID 4
      NAME "PASSPORT.MID [chan 2]"
      VOLPAN 1 0 1 -1
      SOFFS 0 0
      PLAYRATE 1 1 0 -1 0 0.0025
      CHANMODE 0
      GUID {7BB6E5E5-8FD9-4382-881B-E1F31FFF1733}
      <SOURCE MIDI
        HASDATA 1 960 QN
        CCINTERP 32
        POOLEDEVTS {3077FB4E-F320-4584-BDD7-C022250C7EE6}
        E 0 b1 00 00
        E 0 b1 20 00
        E 0 c1 24 00
        E 0 b1 07 7c
        E 0 b1 0a 40
        E 0 b1 5b 3c
        E 0 91 24 5e
        E 912 91 24 00
        E 528 91 24 61
        E 252 91 24 00
        E 708 91 1f 57
        E 228 91 1f 00
        E 252 91 22 66
        E 2092 91 22 00
        E 308 91 22 5e
        E 216 91 22 00
        E 264 91 1d 63
        E 760 91 1d 00
        E 200 91 22 66
        E 500 91 22 00
        E 460 91 24 5a
        E 1096 91 24 00
        E 344 91 24 61
        E 236 91 24 00
        E 1684 91 1f 61
        E 880 91 1f 00
        E 80 91 1f 50
        E 240 91 1f 00
        E 240 91 21 5c
        E 440 91 21 00
        E 520 91 22 6a
        E 428 91 22 00
        E 1012 91 1f 5e
        E 196 91 1f 00
        E 284 91 24 5e
        E 912 91 24 00
        E 528 91 24 61
        E 252 91 24 00
        E 708 91 1f 57
        E 228 91 1f 00
        E 252 91 22 66
        E 2092 91 22 00
        E 308 91 22 5e
        E 216 91 22 00
        E 264 91 1d 63
        E 760 91 1d 00
        E 200 91 22 66
        E 500 91 22 00
        E 460 91 24 5c
        E 1084 91 24 00
        E 356 91 24 65
        E 384 91 24 00
        E 1536 91 1f 68
        E 828 91 1f 00
        E 132 91 2b 60
        E 232 91 2b 00
        E 248 91 21 66
        E 468 91 21 00
        E 12 91 2b 50
        E 232 91 2b 00
        E 248 91 22 6a
        E 380 91 22 00
        E 100 91 2b 57
        E 220 91 2b 00
        E 740 91 1f 5e
        E 160 91 1f 00
        E 320 91 24 5e
        E 912 91 24 00
        E 528 91 24 61
        E 252 91 24 00
        E 708 91 1f 57
        E 228 91 1f 00
        E 252 91 22 66
        E 2092 91 22 00
        E 308 91 22 5e
        E 216 91 22 00
        E 264 91 1d 63
        E 760 91 1d 00
        E 200 91 22 66
        E 500 91 22 00
        E 460 91 24 5a
        E 1096 91 24 00
        E 344 91 24 61
        E 236 91 24 00
        E 1684 91 1f 61
        E 880 91 1f 00
        E 80 91 2b 5e
        E 248 91 2b 00
        E 232 91 21 5c
        E 440 91 21 00
        E 520 91 22 6a
        E 428 91 22 00
        E 1012 91 1f 5e
        E 196 91 1f 00
        E 284 91 24 5e
        E 912 91 24 00
        E 528 91 24 61
        E 252 91 24 00
        E 708 91 1f 57
        E 228 91 1f 00
        E 252 91 22 66
        E 2092 91 22 00
        E 308 91 22 5e
        E 216 91 22 00
        E 264 91 1d 63
        E 760 91 1d 00
        E 200 91 22 66
        E 500 91 22 00
        E 460 91 24 5c
        E 1084 91 24 00
        E 356 91 24 65
        E 384 91 24 00
        E 1536 91 1f 68
        E 828 91 1f 00
        E 132 91 2b 60
        E 232 91 2b 00
        E 248 91 21 66
        E 468 91 21 00
        E 12 91 2b 50
        E 232 91 2b 00
        E 248 91 22 6a
        E 380 91 22 00
        E 100 91 2b 57
        E 220 91 2b 00
        E 740 91 1f 50
        E 240 91 1f 00
        E 240 91 24 68
        E 912 91 24 00
        E 504 91 24 68
        E 252 91 24 00
        E 732 91 1f 57
        E 228 91 1f 00
        E 236 91 22 68
        E 2092 91 22 00
        E 324 91 22 5e
        E 216 91 22 00
        E 264 91 1d 63
        E 760 91 1d 00
        E 200 91 22 66
        E 500 91 22 00
        E 460 91 24 61
        E 936 91 24 00
        E 504 91 24 61
        E 1628 91 24 00
        E 292 91 1f 63
        E 884 91 1f 00
        E 76 91 2b 3c
        E 208 91 2b 00
        E 272 91 21 5a
        E 404 91 21 00
        E 76 91 2b 57
        E 268 91 2b 00
        E 212 91 22 63
        E 440 91 22 00
        E 40 91 2b 4b
        E 224 91 2b 00
        E 256 91 23 59
        E 308 91 23 00
        E 172 91 2b 4e
        E 268 91 2b 00
        E 212 91 24 60
        E 936 91 24 00
        E 504 91 24 5c
        E 276 91 24 00
        E 684 91 1f 5a
        E 164 91 1f 00
        E 316 91 1d 69
        E 1924 91 1d 00
        E 476 91 1d 4f
        E 168 91 1d 00
        E 312 91 22 6b
        E 580 91 22 00
        E 380 91 23 5c
        E 560 91 23 00
        E 400 91 24 65
        E 968 91 24 00
        E 472 91 24 61
        E 1256 91 24 00
        E 664 91 1f 61
        E 884 91 1f 00
        E 76 91 2b 5a
        E 260 91 2b 00
        E 220 91 21 54
        E 348 91 21 00
        E 132 91 2b 55
        E 248 91 2b 00
        E 232 91 22 68
        E 460 91 22 00
        E 20 91 2b 5a
        E 244 91 2b 00
        E 716 91 1f 66
        E 192 91 1f 00
        E 288 91 24 5e
        E 912 91 24 00
        E 528 91 24 61
        E 252 91 24 00
        E 708 91 1f 57
        E 228 91 1f 00
        E 252 91 22 66
        E 2092 91 22 00
        E 308 91 22 5e
        E 216 91 22 00
        E 264 91 1d 63
        E 760 91 1d 00
        E 200 91 22 66
        E 500 91 22 00
        E 460 91 24 61
        E 936 91 24 00
        E 504 91 24 61
        E 1628 91 24 00
        E 292 91 1f 63
        E 884 91 1f 00
        E 76 91 2b 3c
        E 208 91 2b 00
        E 272 91 21 5a
        E 404 91 21 00
        E 76 91 2b 57
        E 268 91 2b 00
        E 212 91 22 63
        E 440 91 22 00
        E 40 91 2b 4b
        E 224 91 2b 00
        E 256 91 23 59
        E 308 91 23 00
        E 172 91 2b 4e
        E 268 91 2b 00
        E 212 91 24 60
        E 936 91 24 00
        E 504 91 24 5c
        E 276 91 24 00
        E 684 91 1f 5a
        E 164 91 1f 00
        E 316 91 1d 63
        E 1924 91 1d 00
        E 476 91 1d 4f
        E 168 91 1d 00
        E 312 91 22 6b
        E 580 91 22 00
        E 380 91 23 5c
        E 560 91 23 00
        E 400 91 24 65
        E 968 91 24 00
        E 472 91 24 61
        E 1256 91 24 00
        E 664 91 1f 61
        E 884 91 1f 00
        E 76 91 2b 5a
        E 260 91 2b 00
        E 220 91 21 54
        E 348 91 21 00
        E 132 91 2b 55
        E 248 91 2b 00
        E 232 91 22 68
        E 460 91 22 00
        E 20 91 2b 5a
        E 244 91 2b 00
        E 716 91 1f 66
        E 192 91 1f 00
        E 288 91 24 66
        E 912 91 24 00
        E 528 91 24 61
        E 252 91 24 00
        E 708 91 1f 57
        E 228 91 1f 00
        E 252 91 22 66
        E 2092 91 22 00
        E 308 91 22 5e
        E 216 91 22 00
        E 264 91 1d 63
        E 760 91 1d 00
        E 200 91 22 66
        E 500 91 22 00
        E 460 91 24 5e
        E 1012 91 24 00
        E 428 91 24 63
        E 1224 91 24 00
        E 216 91 24 42
        E 160 91 24 00
        E 320 91 1f 65
        E 852 91 1f 00
        E 108 91 2b 55
        E 180 91 2b 00
        E 300 91 21 60
        E 452 91 21 00
        E 28 91 2b 50
        E 308 91 2b 00
        E 172 91 22 68
        E 480 91 2b 55
        E 8 91 22 00
        E 228 91 2b 00
        E 244 91 1f 63
        E 356 91 1f 00
        E 604 91 24 65
        E 936 91 24 00
        E 504 91 22 6b
        E 336 91 22 00
        E 624 91 1f 55
        E 156 91 1f 00
        E 324 91 1d 66
        E 1844 91 1d 00
        E 76 91 24 2d
        E 64 91 24 00
        E 416 91 1d 61
        E 184 91 1d 00
        E 296 91 22 6a
        E 496 91 22 00
        E 464 91 23 5e
        E 448 91 23 00
        E 512 91 24 60
        E 908 91 24 00
        E 532 91 24 63
        E 1220 91 24 00
        E 220 91 24 48
        E 184 91 24 00
        E 296 91 1f 66
        E 800 91 1f 00
        E 160 91 2b 57
        E 204 91 2b 00
        E 276 91 21 5e
        E 388 91 21 00
        E 572 91 22 66
        E 396 91 22 00
        E 62964 91 24 5e
        E 912 91 24 00
        E 528 91 24 61
        E 252 91 24 00
        E 708 91 1f 57
        E 228 91 1f 00
        E 252 91 22 66
        E 2092 91 22 00
        E 308 91 22 5e
        E 216 91 22 00
        E 264 91 1d 63
        E 760 91 1d 00
        E 200 91 22 66
        E 500 91 22 00
        E 460 91 24 61
        E 936 91 24 00
        E 504 91 24 61
        E 1628 91 24 00
        E 292 91 1f 63
        E 884 91 1f 00
        E 76 91 2b 3c
        E 208 91 2b 00
        E 272 91 21 5a
        E 404 91 21 00
        E 76 91 2b 57
        E 268 91 2b 00
        E 212 91 22 63
        E 440 91 22 00
        E 40 91 2b 4b
        E 224 91 2b 00
        E 256 91 23 59
        E 308 91 23 00
        E 172 91 2b 4e
        E 268 91 2b 00
        E 212 91 24 60
        E 936 91 24 00
        E 504 91 24 5c
        E 276 91 24 00
        E 684 91 1f 5a
        E 164 91 1f 00
        E 316 91 1d 63
        E 1924 91 1d 00
        E 476 91 1d 4f
        E 168 91 1d 00
        E 312 91 22 6b
        E 580 91 22 00
        E 380 91 23 5c
        E 560 91 23 00
        E 400 91 24 65
        E 968 91 24 00
        E 472 91 24 61
        E 1256 91 24 00
        E 664 91 1f 61
        E 884 91 1f 00
        E 76 91 2b 5a
        E 260 91 2b 00
        E 220 91 21 54
        E 348 91 21 00
        E 132 91 2b 55
        E 248 91 2b 00
        E 232 91 22 68
        E 460 91 22 00
        E 20 91 2b 5a
        E 244 91 2b 00
        E 716 91 1f 66
        E 192 91 1f 00
        E 288 91 24 5e
        E 912 91 24 00
        E 528 91 24 61
        E 252 91 24 00
        E 708 91 1f 57
        E 228 91 1f 00
        E 252 91 22 66
        E 2092 91 22 00
        E 308 91 22 5e
        E 216 91 22 00
        E 264 91 1d 63
        E 760 91 1d 00
        E 200 91 22 66
        E 500 91 22 00
        E 460 91 24 5e
        E 1012 91 24 00
        E 428 91 24 63
        E 1224 91 24 00
        E 216 91 24 42
        E 160 91 24 00
        E 320 91 1f 65
        E 852 91 1f 00
        E 108 91 2b 55
        E 180 91 2b 00
        E 300 91 21 60
        E 452 91 21 00
        E 28 91 2b 50
        E 308 91 2b 00
        E 172 91 22 68
        E 480 91 2b 55
        E 8 91 22 00
        E 228 91 2b 00
        E 244 91 1f 63
        E 356 91 1f 00
        E 604 91 24 65
        E 936 91 24 00
        E 504 91 22 6b
        E 336 91 22 00
        E 624 91 1f 55
        E 156 91 1f 00
        E 324 91 1d 66
        E 1844 91 1d 00
        E 76 91 24 2d
        E 64 91 24 00
        E 416 91 1d 61
        E 184 91 1d 00
        E 296 91 22 6a
        E 496 91 22 00
        E 464 91 23 5e
        E 448 91 23 00
        E 512 91 24 60
        E 908 91 24 00
        E 532 91 24 63
        E 1220 91 24 00
        E 220 91 24 48
        E 184 91 24 00
        E 296 91 1f 66
        E 800 91 1f 00
        E 160 91 2b 57
        E 204 91 2b 00
        E 276 91 21 5e
        E 388 91 21 00
        E 92 91 2b 41
        E 260 91 2b 00
        E 220 91 22 66
        E 396 91 22 00
        E 84 91 2b 55
        E 240 91 2b 00
        E 240 91 23 61
        E 340 91 23 00
        E 140 91 2b 49
        E 180 91 2b 00
        E 300 91 24 73
        E 212 91 24 00
        E 268 91 24 63
        E 448 91 24 00
        E 512 91 24 6f
        E 240 91 24 00
        E 240 91 1f 61
        E 480 91 1f 00
        E 480 91 1f 7e
        E 240 91 1f 00
        E 240 91 1f 7e
        E 480 91 1f 00
        E 480 91 1f 7e
        E 240 91 1f 00
        E 240 91 1f 7e
        E 480 91 1f 00
        E 480 91 1f 7e
        E 480 81 1f 00
        E 480 91 24 7b
        E 480 81 24 00
        E 480 91 1f 7e
        E 240 91 1f 00
        E 240 91 1f 7e
        E 480 91 1f 00
        E 480 91 1f 7e
        E 240 91 1f 00
        E 240 91 1f 7e
        E 480 91 1f 00
        E 480 91 1f 7e
        E 240 91 1f 00
        E 240 91 1f 7e
        E 480 91 1f 00
        E 480 91 1f 7e
        E 240 91 1f 00
        E 240 91 1f 7e
        E 480 91 1f 00
        E 480 91 1f 7e
        E 480 81 1f 00
        E 480 91 26 7e
        E 480 81 26 00
        E 480 91 1f 7e
        E 240 91 1f 00
        E 240 91 1f 7e
        E 480 91 1f 00
        E 480 91 1f 7e
        E 240 91 1f 00
        E 240 91 1f 7e
        E 480 91 1f 00
        E 480 91 1f 7e
        E 240 91 1f 00
        E 240 91 1f 7e
        E 480 91 1f 00
        E 480 91 1f 7e
        E 240 91 1f 00
        E 240 91 1f 7e
        E 480 91 1f 00
        E 480 91 1f 7e
        E 480 81 1f 00
        E 480 91 27 7e
        E 480 81 27 00
        E 480 91 1f 7e
        E 240 91 1f 00
        E 240 91 1f 7e
        E 480 91 1f 00
        E 480 91 1f 7e
        E 240 91 1f 00
        E 240 91 1f 7e
        E 480 91 1f 00
        E 480 91 1f 7e
        E 240 91 1f 00
        E 240 91 1f 7e
        E 480 91 1f 00
        E 480 91 1f 7e
        E 240 91 1f 00
        E 240 91 1f 7e
        E 480 91 1f 00
        E 480 91 27 7e
        E 480 81 27 00
        E 480 91 22 7e
        E 480 81 22 00
        E 480 91 24 73
        E 212 91 24 00
        E 268 91 24 63
        E 448 91 24 00
        E 512 91 24 6f
        E 240 91 24 00
        E 240 91 1f 61
        E 480 91 1f 00
        E 480 91 1f 7e
        E 240 91 1f 00
        E 240 91 1f 7e
        E 480 91 1f 00
        E 480 91 1f 7e
        E 240 91 1f 00
        E 240 91 1f 7e
        E 480 91 1f 00
        E 480 91 1f 7e
        E 480 81 1f 00
        E 480 91 24 7b
        E 480 81 24 00
        E 480 91 1f 7e
        E 240 91 1f 00
        E 240 91 1f 7e
        E 480 91 1f 00
        E 480 91 1f 7e
        E 240 91 1f 00
        E 240 91 1f 7e
        E 480 91 1f 00
        E 480 91 1f 7e
        E 240 91 1f 00
        E 240 91 1f 7e
        E 480 91 1f 00
        E 480 91 1f 7e
        E 240 91 1f 00
        E 240 91 1f 7e
        E 480 91 1f 00
        E 480 91 1f 7e
        E 480 81 1f 00
        E 480 91 1f 71
        E 0 91 26 7e
        E 292 91 1f 00
        E 188 81 26 00
        E 0 91 22 79
        E 300 91 22 00
        E 180 91 24 6d
        E 300 91 24 00
        E 180 91 24 65
        E 328 91 24 00
        E 632 91 24 6d
        E 288 91 24 00
        E 192 91 1f 6b
        E 388 91 1f 00
        E 572 91 22 7d
        E 996 91 22 00
        E 444 91 22 7b
        E 352 91 22 00
        E 608 91 22 79
        E 280 91 22 00
        E 200 91 1d 67
        E 504 91 1d 00
        E 456 91 1e 7d
        E 1196 91 1e 00
        E 244 91 1e 7b
        E 396 91 1e 00
        E 564 91 1e 79
        E 300 91 1e 00
        E 180 91 22 71
        E 468 91 22 00
        E 492 91 22 73
        E 352 91 22 00
        E 128 91 27 77
        E 348 91 27 00
        e 132 91 39 70
        e 230 81 39 70
        e 0 91 36 69
        e 260 81 36 69
        e 0 91 33 70
        e 220 81 33 70
        e 0 91 2f 67
        e 260 81 2f 67
        e 0 91 2d 6f
        e 230 81 2d 6f
        e 0 91 2a 66
        e 240 81 2a 66
        e 0 91 27 71
        e 220 81 27 71
        e 0 91 23 67
        e 260 81 23 67
        e 0 91 3b 6f
        e 230 81 3b 6f
        e 0 91 39 65
        e 250 81 39 65
        e 0 91 36 70
        e 240 81 36 70
        e 0 91 33 67
        e 230 81 33 67
        e 0 91 2f 6e
        e 260 81 2f 6e
        e 0 91 2d 64
        e 220 81 2d 64
        e 0 91 2a 71
        e 260 81 2a 71
        e 0 91 27 67
        e 200 81 27 67
        E 3870 b0 7b 00
        CCINTERP 32
        CHASE_CC_TAKEOFFS 1
        GUID {BAEF1DBD-06B5-4A7E-9E49-0F92401F3C5C}
        IGNTEMPO 0 120 4 4
        SRCCOLOR 25
        VELLANE 128 100 0
        CFGEDITVIEW 318376.047265 0.046055 46 8 0 -1 0 0 0 0.5
        KEYSNAP 0
        TRACKSEL 0
        EVTFILTER 2 -1 -1 -1 -1 1 0 0 0 -1 -1 -1 -1 0 -1 0 -1 -1
        CFGEDIT 1 1 0 1 0 0 1 1 2 1 1 0.125 193 387 1552 1242 0 0 0 0 0 0 0 0 0 0.5 0 0 1 64
      >
    >
  >
  <TRACK {66372F40-A3EA-44DA-9CFD-60C0D5D4C543}
    NAME "PASSPORT.MID [chan 3] [chan 3]"
    PEAKCOL 16576
    BEAT -1
    AUTOMODE 0
    VOLPAN 1 0 -1 -1 1
    MUTESOLO 0 0 0
    IPHASE 0
    PLAYOFFS 0 1
    ISBUS 0 0
    BUSCOMP 0 0 0 0 0
    SHOWINMIX 1 0.6667 0.5 1 0.5 0 0 0
    SEL 0
    REC 0 0 1 0 0 0 0 0
    VU 2
    TRACKHEIGHT 0 0 0 0 0 0
    INQ 0 0 0 0.5 100 0 0 100
    NCHAN 2
    FX 1
    TRACKID {66372F40-A3EA-44DA-9CFD-60C0D5D4C543}
    PERF 0
    MIDIOUT 32
    MAINSEND 0 0
    <ITEM
      POSITION 0
      SNAPOFFS 0
      LENGTH 122.057092
      LOOP 1
      ALLTAKES 0
      FADEIN 1 0 0 1 0 0 0
      FADEOUT 1 0 0 1 0 0 0
      MUTE 0 0
      SEL 0
      IGUID {D1E37C9F-89FD-4E25-A510-36D2A57F5EB4}
      IID 5
      NAME "PASSPORT.MID [chan 3]"
      VOLPAN 1 0 1 -1
      SOFFS 0 0
      PLAYRATE 1 1 0 -1 0 0.0025
      CHANMODE 0
      GUID {D1105A59-3040-4967-8259-903AE7CAAB08}
      <SOURCE MIDI
        HASDATA 1 960 QN
        CCINTERP 32
        POOLEDEVTS {4799540E-CE4A-4AE7-ACF0-91F10D7D4AC2}
        E 0 b2 00 00
        E 0 b2 20 00
        E 0 c2 27 00
        E 0 b2 07 59
        E 36 b2 0a 40
        E 0 b2 5b 1e
        E 0 b2 5d 28
        E 153600 92 1d 77
        E 2328 92 1d 00
        E 996 92 20 77
        E 1456 92 20 00
        E 464 92 22 7f
        E 1648 92 22 00
        E 268 92 1d 77
        E 3840 92 1d 00
        E 964 92 24 6f
        E 216 92 24 00
        E 264 92 27 7b
        E 420 92 27 00
        E 540 92 27 79
        E 364 92 27 00
        E 116 92 29 75
        E 308 92 29 00
        E 652 92 24 79
        E 240 92 24 00
        E 240 92 1d 7f
        E 3048 92 1d 00
        E 312 92 20 7f
        E 1500 92 20 00
        E 420 92 22 7f
        E 1008 92 22 00
        E 432 92 24 7b
        E 260 92 24 00
        E 220 92 1d 77
        E 4008 92 1d 00
        E 792 92 1f 77
        E 316 92 1f 00
        E 164 92 20 75
        E 256 92 20 00
        E 224 92 22 6f
        E 216 92 22 00
        E 264 92 24 73
        E 264 92 24 00
        E 216 92 26 73
        E 220 92 26 00
        E 260 92 27 77
        E 240 92 27 00
        E 240 92 29 71
        E 248 92 29 00
        E 232 92 1d 77
        E 3136 92 1d 00
        E 224 92 20 7f
        E 1680 92 20 00
        E 240 92 22 7f
        E 1552 92 22 00
        E 368 92 1d 77
        E 3840 92 1d 00
        E 960 92 24 6b
        E 268 92 24 00
        E 212 92 27 6b
        E 184 92 27 00
        E 296 92 2b 73
        E 284 92 2b 00
        E 196 92 29 6b
        E 316 92 29 00
        E 164 92 27 7e
        E 292 92 27 00
        E 188 92 24 69
        E 260 92 24 00
        E 220 92 1d 77
        E 3436 92 1d 00
        E 404 92 20 7f
        E 1492 92 20 00
        E 428 92 22 7f
        E 1664 92 22 00
        E 256 92 1d 77
        E 4284 92 1d 00
        E 516 92 29 7f
        E 436 92 29 00
        E 44 92 1d 73
        E 480 92 1e 73
        E 20 92 1d 00
        E 268 92 1e 00
        E 192 92 1f 77
        E 404 92 1f 00
        E 76 92 2b 7f
        E 408 92 2b 00
        E 72 92 1f 75
        E 644 92 1f 00
        E 92476 92 3c 69
        E 0 92 30 55
        E 244 92 3c 00
        E 32 92 30 00
        E 212 92 30 42
        E 16 92 3c 6b
        E 408 92 30 00
        E 124 92 3c 00
        E 404 92 3c 5c
        E 16 92 30 4e
        E 236 92 3c 00
        E 24 92 30 00
        E 232 92 2b 53
        E 8 92 37 5d
        E 492 92 2b 00
        E 48 92 37 00
        E 456 92 3a 77
        E 8 92 2e 5f
        E 664 92 2e 00
        E 44 92 3a 00
        E 172 b2 5b 4f
        E 448 e2 02 3d
        E 60 e2 06 3b
        E 60 e2 0a 39
        E 64 e2 14 34
        E 60 e2 1e 2f
        E 60 e2 2a 29
        E 64 e2 38 22
        E 60 e2 48 1a
        E 56 92 4f 65
        E 4 e2 62 0d
        E 60 e2 66 0b
        E 64 e2 6c 08
        E 184 e2 66 0b
        E 60 e2 64 0c
        E 64 e2 62 0d
        E 60 e2 5e 0f
        E 64 e2 58 12
        E 60 e2 4a 19
        E 60 e2 44 1c
        E 60 e2 40 1e
        E 60 e2 3c 20
        E 64 e2 38 22
        E 60 e2 32 25
        E 60 e2 24 2c
        E 64 e2 22 2d
        E 120 e2 20 2e
        E 64 e2 1c 30
        E 60 e2 16 33
        E 64 e2 14 34
        E 60 e2 10 36
        E 60 e2 0c 38
        E 60 e2 06 3b
        E 64 e2 00 40
        E 312 92 4f 00
        E 80 92 52 5a
        E 148 92 52 00
        E 324 92 4e 65
        E 424 e2 1c 30
        E 60 e2 2a 29
        E 60 e2 36 23
        E 60 e2 3c 20
        E 64 e2 3e 1f
        E 60 e2 48 1a
        E 64 e2 4c 18
        E 20 92 4e 00
        E 40 e2 48 1a
        E 60 e2 38 22
        E 64 e2 1a 31
        E 4 92 4b 64
        E 56 e2 00 40
        E 212 92 4b 00
        E 188 92 48 40
        E 272 92 48 00
        E 700 92 4b 65
        E 156 e2 04 3c
        E 64 e2 06 3b
        E 60 e2 0c 38
        E 120 e2 10 36
        E 184 e2 0c 38
        E 64 e2 0a 39
        E 60 e2 08 3a
        E 60 e2 04 3c
        E 124 e2 02 3d
        E 60 e2 00 40
        E 616 e2 49 44
        E 60 e2 16 4b
        E 60 e2 69 54
        E 64 e2 3c 5e
        E 60 e2 50 68
        E 60 e2 6a 75
        E 4 92 4b 00
        E 328 e2 7f 7f
        E 308 e2 02 3d
        E 60 e2 00 40
        E 2184 92 43 71
        E 292 92 43 00
        E 188 92 46 79
        E 300 92 46 00
        E 180 92 48 6d
        E 300 92 48 00
        E 180 92 48 65
        E 328 92 48 00
        E 632 92 48 6d
        E 288 92 48 00
        E 192 92 43 6b
        E 388 92 43 00
        E 572 92 46 7d
        E 996 92 46 00
        E 444 92 46 7b
        E 352 92 46 00
        E 608 92 46 79
        E 280 92 46 00
        E 200 92 41 67
        E 504 92 41 00
        E 456 92 42 7d
        E 960 92 42 00
        E 480 92 42 7b
        E 396 92 42 00
        E 564 92 42 79
        E 300 92 42 00
        E 180 92 46 71
        E 468 92 46 00
        E 492 92 46 73
        E 352 92 46 00
        E 128 92 4b 77
        E 348 92 4b 00
        e 132 92 51 70
        e 230 82 51 70
        e 0 92 4e 69
        e 260 82 4e 69
        e 0 92 4b 70
        e 220 82 4b 70
        e 0 92 47 67
        e 260 82 47 67
        e 0 92 45 6f
        e 230 82 45 6f
        e 0 92 42 66
        e 240 82 42 66
        e 0 92 3f 71
        e 220 82 3f 71
        e 0 92 3b 67
        e 260 82 3b 67
        e 0 92 53 6f
        e 230 82 53 6f
        e 0 92 51 65
        e 250 82 51 65
        e 0 92 4e 70
        e 240 82 4e 70
        e 0 92 4b 67
        e 230 82 4b 67
        e 0 92 47 6e
        e 260 82 47 6e
        e 0 92 45 64
        e 220 82 45 64
        e 0 92 42 71
        e 260 82 42 71
        e 0 92 3f 67
        e 200 82 3f 67
        E 26 b2 5b 00
        E 3843 e2 00 40
        E 1 b0 7b 00
        CCINTERP 32
        CHASE_CC_TAKEOFFS 1
        GUID {EDFBAED9-A643-495B-A706-C20EE8A2E053}
        IGNTEMPO 0 120 4 4
        SRCCOLOR 27
        VELLANE -1 100 0
        CFGEDITVIEW 302798.392535 0.027073 27 12 0 -1 0 0 0 0.5
        KEYSNAP 0
        TRACKSEL 0
        EVTFILTER 0 -1 -1 -1 -1 0 0 0 0 -1 -1 -1 -1 0 -1 0 -1 -1
        CFGEDIT 1 1 0 1 0 0 1 1 1 1 1 0.125 242 247 1601 1094 0 0 0 0 0 0 0 1 0 0.5 0 0 1 64
      >
    >
  >
  <TRACK {2E8258BC-488E-4022-92BE-A1FB9A233247}
    NAME "PASSPORT.MID [chan 4] [chan 4]"
    PEAKCOL 16576
    BEAT -1
    AUTOMODE 0
    VOLPAN 1 0 -1 -1 1
    MUTESOLO 1 0 0
    IPHASE 0
    PLAYOFFS 0 1
    ISBUS 0 0
    BUSCOMP 0 0 0 0 0
    SHOWINMIX 1 0.6667 0.5 1 0.5 0 0 0
    SEL 0
    REC 0 0 1 0 0 0 0 0
    VU 2
    TRACKHEIGHT 0 0 0 0 0 0
    INQ 0 0 0 0.5 100 0 0 100
    NCHAN 2
    FX 1
    TRACKID {2E8258BC-488E-4022-92BE-A1FB9A233247}
    PERF 0
    MIDIOUT 32
    MAINSEND 0 0
    <ITEM
      POSITION 0
      SNAPOFFS 0
      LENGTH 122.057092
      LOOP 1
      ALLTAKES 0
      FADEIN 1 0 0 1 0 0 0
      FADEOUT 1 0 0 1 0 0 0
      MUTE 0 0
      SEL 0
      IGUID {1479798D-741E-4997-9202-507295638F7C}
      IID 6
      NAME "PASSPORT.MID [chan 4]"
      VOLPAN 1 0 1 -1
      SOFFS 0 0
      PLAYRATE 1 1 0 -1 0 0.0025
      CHANMODE 0
      GUID {CE9A8D8A-DD76-4925-8D72-769B362028D5}
      <SOURCE MIDI
        HASDATA 1 960 QN
        CCINTERP 32
        POOLEDEVTS {8A23B8B1-AAA1-49F9-BF2F-DA49BE2C9DB9}
        E 0 b3 00 00
        E 0 b3 20 00
        E 0 c3 5a 00
        E 0 b3 07 53
        E 0 b3 0a 59
        E 0 b3 5b 4b
        e 30720 93 5e 7f
        e 368 93 5e 00
        E 112 93 5b 52
        E 248 93 5b 00
        E 232 93 60 71
        E 404 93 60 00
        E 76 93 5b 57
        E 348 93 5b 00
        E 132 93 62 75
        E 404 93 62 00
        E 76 93 5b 61
        E 272 93 5b 00
        E 208 93 5b 51
        E 352 93 5b 00
        E 128 93 59 69
        E 284 93 59 00
        E 196 93 59 3e
        E 292 93 59 00
        E 188 93 59 5d
        E 304 93 59 00
        E 176 93 5e 7b
        E 396 93 5e 00
        E 84 93 59 52
        E 408 93 59 00
        E 72 93 60 6f
        E 408 93 60 00
        E 72 93 5b 61
        E 244 93 5b 00
        E 236 93 5b 59
        E 320 93 5b 00
        E 160 93 5b 61
        E 284 93 5b 00
        E 196 93 5e 7d
        E 324 93 5e 00
        E 156 93 5b 57
        E 352 93 5b 00
        E 128 93 60 6b
        E 404 93 60 00
        E 76 93 5b 59
        E 348 93 5b 00
        E 132 93 62 6f
        E 356 93 62 00
        E 124 93 5b 63
        E 280 93 5b 00
        E 200 93 5b 52
        E 416 93 5b 00
        E 64 93 59 67
        E 320 93 59 00
        E 160 93 59 39
        E 300 93 59 00
        E 180 93 59 5d
        E 356 93 59 00
        E 124 93 5e 7d
        E 404 93 5e 00
        E 76 93 59 49
        E 384 93 59 00
        E 96 93 60 73
        E 388 93 60 00
        E 92 93 5b 63
        E 292 93 5b 00
        E 188 93 5b 50
        E 320 93 5b 00
        E 160 93 5b 61
        E 312 93 5b 00
        E 168 93 5e 7b
        E 356 93 5e 00
        E 124 93 5b 52
        E 340 93 5b 00
        E 140 93 60 71
        E 404 93 60 00
        E 76 93 5b 57
        E 288 93 5b 00
        E 192 93 62 75
        E 0 93 60 42
        E 96 93 60 00
        E 248 93 62 00
        E 136 93 5b 5c
        E 300 93 5b 00
        E 180 93 5b 57
        E 388 93 5b 00
        E 92 93 59 61
        E 304 93 59 00
        E 176 93 59 4d
        E 316 93 59 00
        E 164 93 59 61
        E 364 93 59 00
        E 116 93 5e 7f
        E 436 93 5e 00
        E 44 93 59 55
        E 412 93 59 00
        E 68 93 60 6f
        E 424 93 60 00
        E 56 93 5b 6d
        E 268 93 5b 00
        E 212 93 5b 5f
        E 332 93 5b 00
        E 148 93 5b 61
        E 300 93 5b 00
        E 180 93 5e 7e
        E 368 93 5e 00
        E 112 93 5b 5a
        E 384 93 5b 00
        E 96 93 60 6d
        E 404 93 60 00
        E 76 93 5b 5f
        E 284 93 5b 00
        E 196 93 60 47
        E 0 93 62 75
        E 112 93 60 00
        E 252 93 62 00
        E 116 93 5b 61
        E 332 93 5b 00
        E 148 93 5b 53
        E 360 93 5b 00
        E 120 93 59 67
        E 264 93 59 00
        E 216 93 59 47
        E 288 93 59 00
        E 192 93 59 5c
        E 328 93 59 00
        E 152 93 5e 7d
        E 428 93 5e 00
        E 52 93 59 52
        E 392 93 59 00
        E 88 93 60 63
        E 396 93 60 00
        E 84 93 5b 61
        E 288 93 5b 00
        E 192 93 5b 65
        E 320 93 5b 00
        E 160 93 5b 6d
        E 292 93 5b 00
        E 188 93 5e 7f
        E 368 93 5e 00
        E 112 93 5b 52
        E 248 93 5b 00
        E 232 93 60 71
        E 404 93 60 00
        E 76 93 5b 57
        E 348 93 5b 00
        E 132 93 62 75
        E 404 93 62 00
        E 76 93 5b 61
        E 272 93 5b 00
        E 208 93 5b 51
        E 352 93 5b 00
        E 128 93 59 69
        E 284 93 59 00
        E 196 93 59 3e
        E 292 93 59 00
        E 188 93 59 5d
        E 304 93 59 00
        E 176 93 5e 7b
        E 396 93 5e 00
        E 84 93 59 52
        E 408 93 59 00
        E 72 93 60 6f
        E 408 93 60 00
        E 72 93 5b 61
        E 244 93 5b 00
        E 236 93 5b 59
        E 320 93 5b 00
        E 160 93 5b 61
        E 284 93 5b 00
        E 196 93 5e 7d
        E 324 93 5e 00
        E 156 93 5b 57
        E 352 93 5b 00
        E 128 93 60 6b
        E 404 93 60 00
        E 76 93 5b 59
        E 348 93 5b 00
        E 132 93 62 6f
        E 356 93 62 00
        E 124 93 5b 63
        E 280 93 5b 00
        E 200 93 5b 52
        E 416 93 5b 00
        E 64 93 59 67
        E 320 93 59 00
        E 160 93 59 39
        E 300 93 59 00
        E 180 93 59 5d
        E 356 93 59 00
        E 124 93 5e 7d
        E 404 93 5e 00
        E 76 93 59 49
        E 384 93 59 00
        E 96 93 60 73
        E 388 93 60 00
        E 92 93 5b 63
        E 292 93 5b 00
        E 188 93 5b 50
        E 320 93 5b 00
        E 160 93 5b 61
        E 312 93 5b 00
        E 168 93 5e 7b
        E 356 93 5e 00
        E 124 93 5b 52
        E 340 93 5b 00
        E 140 93 60 71
        E 404 93 60 00
        E 76 93 5b 57
        E 288 93 5b 00
        E 192 93 60 42
        E 0 93 62 75
        E 96 93 60 00
        E 248 93 62 00
        E 136 93 5b 5c
        E 300 93 5b 00
        E 180 93 5b 57
        E 388 93 5b 00
        E 92 93 59 61
        E 304 93 59 00
        E 176 93 59 4d
        E 316 93 59 00
        E 164 93 59 61
        E 364 93 59 00
        E 116 93 5e 7f
        E 436 93 5e 00
        E 44 93 59 55
        E 412 93 59 00
        E 68 93 60 6f
        E 424 93 60 00
        E 56 93 5b 6d
        E 268 93 5b 00
        E 212 93 5b 5f
        E 332 93 5b 00
        E 148 93 5b 61
        E 300 93 5b 00
        E 180 93 5e 7e
        E 368 93 5e 00
        E 112 93 5b 5a
        E 384 93 5b 00
        E 96 93 60 6d
        E 404 93 60 00
        E 76 93 5b 5f
        E 284 93 5b 00
        E 196 93 62 75
        E 0 93 60 47
        E 112 93 60 00
        E 252 93 62 00
        E 116 93 5b 61
        E 332 93 5b 00
        E 148 93 5b 53
        E 360 93 5b 00
        E 120 93 59 67
        E 264 93 59 00
        E 216 93 59 47
        E 288 93 59 00
        E 192 93 59 5c
        E 328 93 59 00
        E 152 93 5e 7d
        E 428 93 5e 00
        E 52 93 59 52
        E 392 93 59 00
        E 88 93 60 63
        E 396 93 60 00
        E 84 93 5b 61
        E 288 93 5b 00
        E 192 93 5b 65
        E 320 93 5b 00
        E 160 93 5b 6d
        E 292 93 5b 00
        E 15548 93 5e 7b
        E 356 93 5e 00
        E 124 93 5b 52
        E 340 93 5b 00
        E 140 93 60 71
        E 404 93 60 00
        E 76 93 5b 57
        E 288 93 5b 00
        E 192 93 62 75
        E 344 93 62 00
        E 136 93 5b 5c
        E 300 93 5b 00
        E 180 93 5b 57
        E 388 93 5b 00
        E 92 93 59 61
        E 304 93 59 00
        E 176 93 59 4d
        E 316 93 59 00
        E 164 93 59 61
        E 364 93 59 00
        E 116 93 5e 7f
        E 436 93 5e 00
        E 44 93 59 55
        E 412 93 59 00
        E 68 93 60 6f
        E 424 93 60 00
        E 56 93 5b 6d
        E 268 93 5b 00
        E 212 93 5b 5f
        E 332 93 5b 00
        E 148 93 5b 61
        E 300 93 5b 00
        E 180 93 5e 7e
        E 368 93 5e 00
        E 112 93 5b 5a
        E 384 93 5b 00
        E 96 93 60 6d
        E 404 93 60 00
        E 76 93 5b 5f
        E 284 93 5b 00
        E 196 93 62 75
        E 364 93 62 00
        E 116 93 5b 61
        E 332 93 5b 00
        E 148 93 5b 53
        E 360 93 5b 00
        E 120 93 59 67
        E 264 93 59 00
        E 216 93 59 47
        E 288 93 59 00
        E 192 93 59 5c
        E 328 93 59 00
        E 152 93 5e 7d
        E 428 93 5e 00
        E 52 93 59 52
        E 392 93 59 00
        E 88 93 60 63
        E 396 93 60 00
        E 84 93 5b 61
        E 288 93 5b 00
        E 192 93 5b 65
        E 320 93 5b 00
        E 160 93 5b 6d
        E 292 93 5b 00
        E 15548 93 5e 7b
        E 356 93 5e 00
        E 124 93 5b 52
        E 340 93 5b 00
        E 140 93 60 71
        E 404 93 60 00
        E 76 93 5b 57
        E 288 93 5b 00
        E 192 93 62 75
        E 344 93 62 00
        E 136 93 5b 5c
        E 300 93 5b 00
        E 180 93 5b 57
        E 388 93 5b 00
        E 92 93 59 61
        E 304 93 59 00
        E 176 93 59 4d
        E 316 93 59 00
        E 164 93 59 61
        E 364 93 59 00
        E 116 93 5e 7f
        E 436 93 5e 00
        E 44 93 59 55
        E 412 93 59 00
        E 68 93 60 6f
        E 424 93 60 00
        E 56 93 5b 6d
        E 268 93 5b 00
        E 212 93 5b 5f
        E 332 93 5b 00
        E 148 93 5b 61
        E 300 93 5b 00
        E 180 93 5e 7e
        E 368 93 5e 00
        E 112 93 5b 5a
        E 384 93 5b 00
        E 96 93 60 6d
        E 404 93 60 00
        E 76 93 5b 5f
        E 284 93 5b 00
        E 196 93 62 75
        E 0 93 60 47
        E 112 93 60 00
        E 252 93 62 00
        E 116 93 5b 61
        E 332 93 5b 00
        E 148 93 5b 53
        E 360 93 5b 00
        E 120 93 59 67
        E 264 93 59 00
        E 216 93 59 47
        E 288 93 59 00
        E 192 93 59 5c
        E 328 93 59 00
        E 152 93 5e 7d
        E 428 93 5e 00
        E 52 93 59 52
        E 392 93 59 00
        E 88 93 60 63
        E 396 93 60 00
        E 84 93 5b 61
        E 288 93 5b 00
        E 77952 93 5e 7b
        E 356 93 5e 00
        E 124 93 5b 52
        E 340 93 5b 00
        E 140 93 60 71
        E 404 93 60 00
        E 76 93 5b 57
        E 288 93 5b 00
        E 192 93 60 42
        E 0 93 62 75
        E 96 93 60 00
        E 248 93 62 00
        E 136 93 5b 5c
        E 300 93 5b 00
        E 180 93 5b 57
        E 388 93 5b 00
        E 92 93 59 61
        E 304 93 59 00
        E 176 93 59 4d
        E 316 93 59 00
        E 164 93 59 61
        E 364 93 59 00
        E 116 93 5e 7f
        E 436 93 5e 00
        E 44 93 59 55
        E 412 93 59 00
        E 68 93 60 6f
        E 424 93 60 00
        E 56 93 5b 6d
        E 268 93 5b 00
        E 212 93 5b 5f
        E 332 93 5b 00
        E 148 93 5b 61
        E 300 93 5b 00
        E 180 93 5e 7e
        E 368 93 5e 00
        E 112 93 5b 5a
        E 384 93 5b 00
        E 96 93 60 6d
        E 404 93 60 00
        E 76 93 5b 5f
        E 284 93 5b 00
        E 196 93 60 47
        E 0 93 62 75
        E 112 93 60 00
        E 252 93 62 00
        E 116 93 5b 61
        E 332 93 5b 00
        E 148 93 5b 53
        E 360 93 5b 00
        E 120 93 59 67
        E 264 93 59 00
        E 216 93 59 47
        E 288 93 59 00
        E 192 93 59 5c
        E 328 93 59 00
        E 152 93 5e 7d
        E 428 93 5e 00
        E 52 93 59 52
        E 392 93 59 00
        E 88 93 60 63
        E 396 93 60 00
        E 84 93 5b 61
        E 288 93 5b 00
        E 672 93 5b 6d
        E 292 93 5b 00
        E 15548 93 5e 7b
        E 356 93 5e 00
        E 124 93 5b 52
        E 340 93 5b 00
        E 140 93 60 71
        E 404 93 60 00
        E 76 93 5b 57
        E 288 93 5b 00
        E 192 93 60 42
        E 0 93 62 75
        E 96 93 60 00
        E 248 93 62 00
        E 136 93 5b 5c
        E 300 93 5b 00
        E 180 93 5b 57
        E 388 93 5b 00
        E 92 93 59 61
        E 304 93 59 00
        E 176 93 59 4d
        E 316 93 59 00
        E 164 93 59 61
        E 364 93 59 00
        E 116 93 5e 7f
        E 436 93 5e 00
        E 44 93 59 55
        E 412 93 59 00
        E 68 93 60 6f
        E 424 93 60 00
        E 56 93 5b 6d
        E 268 93 5b 00
        E 212 93 5b 5f
        E 332 93 5b 00
        E 148 93 5b 61
        E 300 93 5b 00
        E 180 93 5e 7e
        E 368 93 5e 00
        E 112 93 5b 5a
        E 384 93 5b 00
        E 96 93 60 6d
        E 404 93 60 00
        E 76 93 5b 5f
        E 284 93 5b 00
        E 196 93 62 75
        E 0 93 60 47
        E 112 93 60 00
        E 252 93 62 00
        E 116 93 5b 61
        E 332 93 5b 00
        E 148 93 5b 53
        E 360 93 5b 00
        E 120 93 59 67
        E 264 93 59 00
        E 216 93 59 47
        E 288 93 59 00
        E 192 93 59 5c
        E 328 93 59 00
        E 152 93 5e 7d
        E 428 93 5e 00
        E 52 93 59 52
        E 392 93 59 00
        E 88 93 60 63
        E 396 93 60 00
        E 84 93 5b 61
        E 288 93 5b 00
        E 192 93 5b 65
        E 320 93 5b 00
        E 160 93 5b 6d
        E 4 b3 5b 00
        E 288 93 5b 00
        E 65468 b0 7b 00
        CCINTERP 32
        CHASE_CC_TAKEOFFS 1
        GUID {536320C0-6A4B-497A-9D30-3E1633FA094F}
        IGNTEMPO 0 120 4 4
        SRCCOLOR 29
        VELLANE 131 100 0
        CFGEDITVIEW 49491.550312 0.037487 29 12 0 -1 0 0 0 0.5
        KEYSNAP 0
        TRACKSEL 0
        EVTFILTER 0 -1 -1 -1 -1 0 0 0 0 -1 -1 -1 -1 0 -1 0 -1 -1
        CFGEDIT 1 1 0 1 0 0 1 1 1 1 1 0.125 385 319 1744 1166 0 0 0 0 0 0 0 0 0 0.5 0 0 1 64
      >
    >
  >
  <TRACK {D408E314-125A-492A-85B5-B5C4C04422F3}
    NAME "PASSPORT.MID [chan 5] [chan 5]"
    PEAKCOL 16576
    BEAT -1
    AUTOMODE 0
    VOLPAN 1 0 -1 -1 1
    MUTESOLO 1 0 0
    IPHASE 0
    PLAYOFFS 0 1
    ISBUS 0 0
    BUSCOMP 0 0 0 0 0
    SHOWINMIX 1 0.6667 0.5 1 0.5 0 0 0
    SEL 0
    REC 0 0 1 0 0 0 0 0
    VU 2
    TRACKHEIGHT 0 0 0 0 0 0
    INQ 0 0 0 0.5 100 0 0 100
    NCHAN 2
    FX 1
    TRACKID {D408E314-125A-492A-85B5-B5C4C04422F3}
    PERF 0
    MIDIOUT 32
    MAINSEND 0 0
    <ITEM
      POSITION 0
      SNAPOFFS 0
      LENGTH 122.057092
      LOOP 1
      ALLTAKES 0
      FADEIN 1 0 0 1 0 0 0
      FADEOUT 1 0 0 1 0 0 0
      MUTE 0 0
      SEL 0
      IGUID {F49085AE-ED0D-4DB9-8F66-A1EC858A427D}
      IID 7
      NAME "PASSPORT.MID [chan 5]"
      VOLPAN 1 0 1 -1
      SOFFS 0 0
      PLAYRATE 1 1 0 -1 0 0.0025
      CHANMODE 0
      GUID {A000D09D-3FB3-4BDA-BDE1-DB139187DB31}
      <SOURCE MIDI
        HASDATA 1 960 QN
        CCINTERP 32
        POOLEDEVTS {00DC2CB7-8863-4AE5-8061-1DD8F1549EF7}
        E 0 b4 00 00
        E 0 b4 20 00
        e 0 c4 50 00
        E 0 b4 07 64
        E 3012 b4 0a 40
        E 0 b4 5b 37
        E 4896 e4 08 3a
        E 60 e4 16 33
        E 60 e4 20 2e
        E 60 e4 34 24
        E 56 e4 3a 21
        E 64 e4 3c 20
        E 60 e4 3e 1f
        E 60 e4 3c 20
        E 60 e4 32 25
        E 60 e4 2a 29
        E 60 e4 22 2d
        E 60 e4 20 2e
        E 60 e4 18 32
        E 60 e4 04 3c
        E 60 e4 00 40
        E 82584 e4 02 3d
        E 64 e4 0a 39
        E 56 e4 12 35
        E 60 e4 1c 30
        E 60 e4 22 2d
        E 60 e4 30 26
        E 60 e4 34 24
        E 64 e4 38 22
        E 60 e4 3a 21
        E 64 e4 3c 20
        E 236 e4 3a 21
        E 44 94 4f 79
        E 76 e4 38 22
        E 304 e4 32 25
        E 56 e4 30 26
        E 60 e4 2a 29
        E 60 e4 24 2c
        E 60 e4 20 2e
        E 60 e4 12 35
        E 60 e4 0a 39
        E 60 e4 04 3c
        E 60 e4 02 3d
        E 60 e4 00 40
        E 472 94 4f 00
        E 52 94 54 6d
        E 204 94 54 00
        E 1236 94 4d 77
        E 2696 94 4d 00
        E 184 94 48 69
        E 252 94 48 00
        E 708 94 4b 7e
        E 260 94 4b 00
        E 700 94 4a 75
        E 652 e4 02 3d
        E 60 e4 06 3b
        E 60 e4 0a 39
        E 60 e4 0c 38
        E 60 e4 10 36
        E 60 e4 14 34
        E 60 e4 1c 30
        E 60 e4 20 2e
        E 60 e4 24 2c
        E 56 e4 2a 29
        E 60 e4 30 26
        E 60 e4 34 24
        E 60 e4 36 23
        E 72 94 4a 00
        E 0 94 43 67
        E 48 e4 34 24
        E 60 e4 2e 27
        E 60 e4 18 32
        E 64 e4 04 3c
        E 56 e4 00 40
        E 1304 94 43 00
        E 328 94 46 7b
        E 1408 94 46 00
        E 32 94 42 7d
        E 216 94 42 00
        E 744 94 41 65
        E 328 94 41 00
        E 152 94 3f 6f
        E 288 94 3f 00
        E 192 94 3c 5d
        E 312 94 3c 00
        E 168 94 3f 7e
        E 752 e4 02 3d
        E 60 e4 04 3c
        E 60 e4 0a 39
        E 60 e4 14 34
        E 60 e4 1a 31
        E 60 e4 20 2e
        E 60 e4 24 2c
        E 60 e4 2e 27
        E 60 e4 32 25
        E 60 e4 34 24
        E 60 e4 38 22
        E 60 e4 3c 20
        E 64 e4 46 1b
        E 56 e4 4e 17
        E 0 94 3f 00
        E 64 e4 50 16
        E 60 e4 52 15
        E 120 e4 44 1c
        E 60 e4 34 24
        E 60 e4 1e 2f
        E 88 e4 00 40
        E 12896 94 48 6b
        E 344 94 48 00
        E 136 94 48 4b
        E 260 94 48 00
        E 120 e4 1c 30
        E 60 e4 44 1c
        E 40 94 4f 79
        E 24 e4 48 1a
        E 120 e4 42 1d
        E 60 e4 34 24
        E 60 e4 14 34
        E 60 e4 02 3d
        E 60 e4 00 40
        E 948 94 4f 00
        E 108 94 54 75
        E 252 94 54 00
        E 1188 94 4d 77
        E 2664 94 4d 00
        E 216 94 48 75
        E 348 94 48 00
        E 132 94 4a 65
        E 236 94 4a 00
        E 244 94 4b 6d
        E 404 94 4b 00
        E 76 94 48 5f
        E 204 94 48 00
        E 276 94 4a 79
        E 832 e4 02 3d
        E 60 e4 04 3c
        E 60 e4 10 36
        E 60 e4 14 34
        E 64 e4 1a 31
        E 60 e4 20 2e
        E 56 e4 26 2b
        E 60 e4 32 25
        E 60 e4 36 23
        E 60 e4 38 22
        E 8 94 4a 00
        E 52 e4 34 24
        E 8 94 43 6f
        E 52 e4 22 2d
        E 56 e4 00 40
        E 1400 94 43 00
        E 412 94 46 7f
        E 1168 94 46 00
        E 272 94 42 7e
        E 280 94 42 00
        E 680 94 41 6b
        E 348 94 41 00
        E 132 94 3f 75
        E 268 94 3f 00
        E 212 94 3c 5d
        E 344 94 3c 00
        E 136 94 3f 7f
        E 764 e4 04 3c
        E 60 e4 06 3b
        E 60 e4 0e 37
        E 60 e4 14 34
        E 60 e4 1a 31
        E 60 e4 28 2a
        E 64 e4 30 26
        E 60 e4 34 24
        E 60 e4 36 23
        E 60 e4 3a 21
        E 0 94 3f 00
        E 116 e4 36 23
        E 60 e4 30 26
        E 60 e4 22 2d
        E 60 e4 14 34
        E 60 e4 00 40
        E 74140 e4 02 3d
        E 236 e4 06 3b
        E 140 e4 0e 37
        E 128 e4 18 32
        E 144 e4 24 2c
        E 136 e4 32 25
        E 124 e4 44 1c
        E 184 e4 50 16
        E 180 e4 58 12
        E 132 e4 5a 11
        E 72 94 4f 79
        E 436 e4 52 15
        E 116 e4 4a 19
        E 120 e4 38 22
        E 120 e4 26 2b
        E 116 e4 14 34
        E 116 e4 00 40
        E 364 94 4f 00
        E 52 94 54 6d
        E 204 94 54 00
        E 1236 94 4d 77
        E 2696 94 4d 00
        E 184 94 48 69
        E 252 94 48 00
        E 708 94 4b 7e
        E 260 94 4b 00
        E 700 94 4a 75
        E 712 e4 06 3b
        E 60 e4 10 36
        E 60 e4 1a 31
        E 60 e4 22 2d
        E 60 e4 2a 29
        E 56 e4 38 22
        E 60 e4 3e 1f
        E 60 e4 44 1c
        E 60 e4 48 1a
        E 60 e4 50 16
        E 60 e4 58 12
        E 120 e4 54 14
        E 12 94 4a 00
        E 0 94 43 67
        E 48 e4 4a 19
        E 60 e4 3e 1f
        E 60 e4 22 2d
        E 60 e4 16 33
        E 60 e4 0e 37
        E 60 e4 06 3b
        E 60 e4 02 3d
        E 56 e4 00 40
        E 1128 94 43 00
        E 328 94 46 7b
        E 1408 94 46 00
        E 32 94 42 7d
        E 216 94 42 00
        E 744 94 41 65
        E 328 94 41 00
        E 152 94 3f 6f
        E 288 94 3f 00
        E 192 94 3c 5d
        E 312 94 3c 00
        E 168 94 3f 7e
        E 824 e4 08 3a
        E 60 e4 10 36
        E 60 e4 18 32
        E 64 e4 20 2e
        E 60 e4 24 2c
        E 60 e4 32 25
        E 60 e4 36 23
        E 56 e4 3c 20
        E 60 e4 42 1d
        E 60 e4 44 1c
        E 60 e4 4e 17
        E 60 e4 54 14
        E 48 94 3f 00
        E 12 e4 58 12
        E 60 e4 5a 11
        E 60 e4 5e 0f
        E 116 e4 58 12
        E 60 e4 4c 18
        E 60 e4 3c 20
        E 84 e4 12 35
        E 56 e4 00 40
        E 12840 94 48 6b
        E 344 94 48 00
        E 616 e4 04 3c
        E 28 e4 5a 11
        E 52 94 4f 79
        E 8 e4 68 0a
        E 60 e4 6e 07
        E 60 e4 6a 09
        E 60 e4 64 0c
        E 60 e4 50 16
        E 60 e4 46 1b
        E 60 e4 3e 1f
        E 60 e4 38 22
        E 56 e4 32 25
        E 60 e4 2c 28
        E 56 e4 22 2d
        E 60 e4 1a 31
        E 60 e4 12 35
        E 60 e4 08 3a
        E 60 e4 02 3d
        E 60 e4 00 40
        E 376 94 4f 00
        E 140 94 54 77
        E 264 94 54 00
        E 1184 94 4d 79
        E 2336 94 4d 00
        E 480 94 48 75
        E 348 94 48 00
        E 132 94 4a 65
        E 236 94 4a 00
        E 244 94 4b 6d
        E 404 94 4b 00
        E 76 94 48 5f
        E 204 94 48 00
        E 276 94 4a 79
        E 1380 94 4a 00
        E 60 94 43 6f
        E 1508 94 43 00
        E 412 94 46 7f
        E 716 e4 02 3d
        E 60 e4 08 3a
        E 60 e4 12 35
        E 60 e4 1c 30
        E 60 e4 2c 28
        E 56 e4 34 24
        E 60 e4 3a 21
        E 64 e4 3e 1f
        E 32 94 46 00
        E 28 e4 3a 21
        E 60 e4 1e 2f
        E 56 e4 04 3c
        E 64 e4 00 40
        E 64 94 42 7e
        E 280 94 42 00
        E 680 94 41 6b
        E 348 94 41 00
        E 132 94 3f 75
        E 268 94 3f 00
        E 212 94 3c 5d
        E 344 94 3c 00
        E 136 94 3f 7f
        E 4 b4 5b 00
        E 476 e4 00 40
        E 0 94 3f 00
        E 80639 e4 00 40
        E 1 b0 7b 00
        CCINTERP 32
        CHASE_CC_TAKEOFFS 1
        GUID {D966F6A0-F9C7-4AB8-BBB7-B0565F307044}
        IGNTEMPO 0 120 4 4
        SRCCOLOR 31
        VELLANE 131 100 0
        CFGEDITVIEW 78572.014563 0.020863 43 12 0 -1 0 0 0 0.5
        KEYSNAP 0
        TRACKSEL 0
        EVTFILTER 0 -1 -1 -1 -1 0 0 0 0 -1 -1 -1 -1 0 -1 0 -1 -1
        CFGEDIT 1 1 0 1 0 0 1 1 1 1 1 0.125 242 247 1601 1094 0 0 0 0 0 0 0 1 0 0.5 0 0 1 64
      >
    >
  >
  <TRACK {20F6F395-66BA-4ECE-BDCF-846557C81414}
    NAME "PASSPORT.MID [chan 6] [chan 6]"
    PEAKCOL 16576
    BEAT -1
    AUTOMODE 0
    VOLPAN 1 0 -1 -1 1
    MUTESOLO 0 0 0
    IPHASE 0
    PLAYOFFS 0 1
    ISBUS 0 0
    BUSCOMP 0 0 0 0 0
    SHOWINMIX 1 0.6667 0.5 1 0.5 0 0 0
    SEL 0
    REC 0 0 1 0 0 0 0 0
    VU 2
    TRACKHEIGHT 0 0 0 0 0 0
    INQ 0 0 0 0.5 100 0 0 100
    NCHAN 2
    FX 1
    TRACKID {20F6F395-66BA-4ECE-BDCF-846557C81414}
    PERF 0
    MIDIOUT 32
    MAINSEND 0 0
    <ITEM
      POSITION 0
      SNAPOFFS 0
      LENGTH 122.057092
      LOOP 1
      ALLTAKES 0
      FADEIN 1 0 0 1 0 0 0
      FADEOUT 1 0 0 1 0 0 0
      MUTE 0 0
      SEL 0
      IGUID {88338D93-A24A-4F45-9F96-DD0043796A29}
      IID 8
      NAME "PASSPORT.MID [chan 6]"
      VOLPAN 1 0 1 -1
      SOFFS 0 0
      PLAYRATE 1 1 0 -1 0 0.0025
      CHANMODE 0
      GUID {6EBDF71F-40A4-47BF-BB36-2D6AC7F2F2D8}
      <SOURCE MIDI
        HASDATA 1 960 QN
        CCINTERP 32
        POOLEDEVTS {C2A65D31-5547-46CE-B794-73428235AF8C}
        E 0 b5 00 00
        E 0 b5 20 00
        E 0 c5 1a 00
        E 0 b5 0a 63
        E 0 b5 07 3c
        E 0 b5 5b 37
        E 153600 95 3c 45
        E 20 b5 0a 6d
        E 0 95 37 45
        E 110 85 3c 6c
        E 20 85 37 6c
        E 340 95 3c 49
        E 20 95 37 49
        E 460 95 48 49
        E 20 95 43 49
        E 60 85 3c 72
        E 20 85 37 72
        E 370 85 48 72
        E 0 95 3c 49
        E 20 85 43 72
        E 0 95 37 49
        E 130 85 3c 6e
        E 20 85 37 6e
        E 310 95 3c 4e
        E 20 95 37 4e
        E 480 95 46 4e
        E 20 95 41 4e
        E 40 85 3c 6f
        E 20 85 37 6f
        E 360 85 46 6f
        E 20 85 41 6f
        E 30 95 3c 53
        E 20 95 37 53
        E 130 85 3c 68
        E 20 85 37 68
        E 310 95 3c 53
        E 20 95 37 53
        E 450 b5 5b 4d
        E 0 85 3c 74
        E 0 95 43 54
        E 20 85 37 74
        E 0 95 3e 54
        E 430 85 43 74
        E 20 85 3e 74
        E 10 95 3c 54
        E 20 95 37 54
        E 130 85 3c 6c
        E 20 85 37 6c
        E 310 95 3c 54
        E 20 95 37 58
        E 450 95 41 58
        E 20 95 3c 58
        E 40 85 3c 6e
        E 20 85 37 6e
        E 370 85 41 6e
        E 20 85 3c 6e
        E 10 95 3c 5b
        E 20 95 37 5b
        E 180 85 3c 6e
        E 20 85 37 6e
        E 260 95 3c 5c
        E 20 95 37 5c
        E 450 95 43 5c
        E 20 95 3e 5c
        E 460 85 43 6e
        E 0 95 46 5c
        E 20 85 3e 6e
        E 0 95 41 5c
        E 320 85 3c 75
        E 20 85 37 75
        E 70 85 46 75
        E 20 85 41 75
        E 50 95 3c 5c
        E 20 95 37 5c
        E 60 85 3c 6f
        E 20 85 37 6f
        E 390 95 3c 5e
        E 20 95 37 5e
        E 460 95 48 5f
        E 20 95 43 5f
        E 70 85 3c 72
        E 20 85 37 72
        E 310 85 48 72
        E 20 85 43 72
        E 30 95 3c 5f
        E 20 95 37 5f
        E 130 85 3c 6a
        E 20 85 37 6a
        E 310 95 3c 61
        E 20 95 37 61
        E 460 95 46 61
        E 20 95 41 61
        E 60 85 3c 6a
        E 20 85 37 6a
        E 370 85 46 6a
        E 0 95 3c 61
        E 20 85 41 6a
        E 0 95 37 61
        E 130 85 3c 72
        E 20 85 37 72
        E 310 95 3c 63
        E 20 95 37 65
        E 460 95 43 65
        E 20 85 3c 75
        E 0 95 3e 65
        E 20 85 37 75
        E 360 85 43 75
        E 20 85 3e 75
        E 50 95 3c 65
        E 20 95 37 65
        E 160 85 3c 6f
        E 20 85 37 6f
        E 280 95 3c 66
        E 20 95 37 66
        E 430 85 3c 72
        E 20 85 37 72
        E 30 95 41 68
        E 20 95 3c 68
        E 2260 b5 0a 6d
        E 70 85 41 6c
        E 20 85 3c 6c
        E 10 95 3c 68
        E 20 95 37 68
        E 110 85 3c 6c
        E 20 85 37 6c
        E 340 95 3c 68
        E 20 95 37 68
        E 460 95 48 68
        E 20 95 43 68
        E 60 85 3c 72
        E 20 85 37 72
        E 370 85 48 72
        E 0 95 3c 68
        E 20 85 43 72
        E 0 95 37 68
        E 130 85 3c 6e
        E 20 85 37 6e
        E 310 95 3c 68
        E 20 95 37 68
        E 480 95 46 68
        E 20 95 41 68
        E 40 85 3c 6f
        E 20 85 37 6f
        E 360 85 46 6f
        E 20 85 41 6f
        E 30 95 3c 68
        E 20 95 37 68
        E 130 85 3c 68
        E 20 85 37 68
        E 310 95 3c 68
        E 20 95 37 68
        E 450 b5 5b 4d
        E 0 85 3c 74
        E 0 95 43 68
        E 20 85 37 74
        E 0 95 3e 68
        E 430 85 43 74
        E 20 85 3e 74
        E 10 95 3c 68
        E 20 95 37 68
        E 130 85 3c 6c
        E 20 85 37 6c
        E 310 95 3c 68
        E 20 95 37 68
        E 450 95 41 68
        E 20 95 3c 68
        E 40 85 3c 6e
        E 20 85 37 6e
        E 370 85 41 6e
        E 20 85 3c 6e
        E 10 95 3c 68
        E 20 95 37 68
        E 180 85 3c 6e
        E 20 85 37 6e
        E 260 95 3c 65
        E 20 95 37 65
        E 450 95 43 65
        E 20 95 3e 65
        E 460 85 43 6e
        E 0 95 46 65
        E 20 85 3e 6e
        E 0 95 41 65
        E 320 85 3c 75
        E 20 85 37 75
        E 70 85 46 75
        E 20 85 41 75
        E 50 95 3c 65
        E 20 95 37 65
        E 60 85 3c 6f
        E 20 85 37 6f
        E 390 95 3c 63
        E 20 95 37 63
        E 460 95 48 63
        E 20 95 43 63
        E 70 85 3c 72
        E 20 85 37 72
        E 310 85 48 72
        E 20 85 43 72
        E 30 95 3c 63
        E 20 95 37 63
        E 130 85 3c 6a
        E 20 85 37 6a
        E 310 95 3c 63
        E 20 95 37 63
        E 460 95 46 62
        E 20 95 41 62
        E 60 85 3c 6a
        E 20 85 37 6a
        E 370 85 46 6a
        E 0 95 3c 62
        E 20 85 41 6a
        E 0 95 37 62
        E 130 85 3c 72
        E 20 85 37 72
        E 310 95 3c 61
        E 20 95 37 61
        E 460 95 43 61
        E 20 85 3c 75
        E 0 95 3e 61
        E 20 85 37 75
        E 360 85 43 75
        E 20 85 3e 75
        E 50 95 3c 61
        E 20 95 37 61
        E 160 85 3c 6f
        E 20 85 37 6f
        E 280 95 3c 5f
        E 20 95 37 5f
        E 430 85 3c 72
        E 20 85 37 72
        E 30 95 41 5c
        E 20 95 3c 5c
        E 2330 85 41 6c
        E 20 85 3c 6c
        E 10 95 3c 5c
        E 20 b5 0a 6d
        E 0 95 37 5c
        E 110 85 3c 6c
        E 20 85 37 6c
        E 340 95 3c 5c
        E 20 95 37 5c
        E 460 95 48 5b
        E 20 95 43 5b
        E 60 85 3c 72
        E 20 85 37 72
        E 370 85 48 72
        E 0 95 3c 5b
        E 20 85 43 72
        E 0 95 37 5b
        E 130 85 3c 6e
        E 20 85 37 6e
        E 310 95 3c 5b
        E 20 95 37 5b
        E 480 95 46 5b
        E 20 95 41 5b
        E 40 85 3c 6f
        E 20 85 37 6f
        E 360 85 46 6f
        E 20 85 41 6f
        E 30 95 3c 5b
        E 20 95 37 5b
        E 130 85 3c 68
        E 20 85 37 68
        E 310 95 3c 5b
        E 20 95 37 5b
        E 450 b5 5b 4d
        E 0 85 3c 74
        E 0 95 43 5b
        E 20 85 37 74
        E 0 95 3e 5b
        E 430 85 43 74
        E 20 85 3e 74
        E 10 95 3c 5b
        E 20 95 37 5b
        E 130 85 3c 6c
        E 20 85 37 6c
        E 310 95 3c 5b
        E 20 95 37 5b
        E 450 95 41 5b
        E 20 95 3c 5b
        E 40 85 3c 6e
        E 20 85 37 6e
        E 370 85 41 6e
        E 20 85 3c 6e
        E 10 95 3c 5b
        E 20 95 37 5b
        E 180 85 3c 6e
        E 20 85 37 6e
        E 260 95 3c 5b
        E 20 95 37 5b
        E 450 95 43 5b
        E 20 95 3e 5b
        E 460 85 43 6e
        E 0 95 46 5b
        E 20 85 3e 6e
        E 0 95 41 5b
        E 320 85 3c 75
        E 20 85 37 75
        E 70 85 46 75
        E 20 85 41 75
        E 50 95 3c 5b
        E 20 95 37 5b
        E 60 85 3c 6f
        E 20 85 37 6f
        E 390 95 3c 5b
        E 20 95 37 5b
        E 460 95 48 5b
        E 20 95 43 5b
        E 70 85 3c 72
        E 20 85 37 72
        E 310 85 48 72
        E 20 85 43 72
        E 30 95 3c 5b
        E 20 95 37 5b
        E 130 85 3c 6a
        E 20 85 37 6a
        E 310 95 3c 5b
        E 20 95 37 5b
        E 460 95 46 5b
        E 20 95 41 5b
        E 60 85 3c 6a
        E 20 85 37 6a
        E 370 85 46 6a
        E 0 95 3c 5b
        E 20 85 41 6a
        E 0 95 37 5b
        E 130 85 3c 72
        E 20 85 37 72
        E 310 95 3c 5c
        E 20 95 37 5c
        E 460 95 43 5c
        E 20 85 3c 75
        E 0 95 3e 5c
        E 20 85 37 75
        E 360 85 43 75
        E 20 85 3e 75
        E 50 95 3c 5c
        E 20 95 37 5c
        E 160 85 3c 6f
        E 20 85 37 6f
        E 280 95 3c 5c
        E 20 95 37 5c
        E 430 85 3c 72
        E 20 85 37 72
        E 30 95 41 5e
        E 20 95 3c 5e
        E 2330 85 41 6c
        E 20 85 3c 6c
        E 10 95 3c 5e
        E 20 95 37 5e
        E 150 85 3c 6c
        E 20 85 37 6c
        E 280 95 3c 5f
        E 20 95 37 5f
        E 460 95 48 5f
        E 20 95 43 5f
        E 210 85 3c 71
        E 20 85 37 71
        E 230 85 48 71
        E 0 95 3c 5f
        E 20 85 43 71
        E 0 95 37 5f
        E 150 85 3c 69
        E 20 85 37 69
        E 280 95 3c 61
        E 20 95 37 61
        E 460 95 46 61
        E 20 95 41 61
        E 60 85 3c 6e
        E 20 85 37 6e
        E 400 85 46 6f
        E 0 95 3c 61
        E 20 85 41 6f
        E 0 95 37 61
        E 160 85 3c 6f
        E 20 85 37 6f
        E 280 95 3c 61
        E 20 95 37 61
        E 440 95 43 61
        E 20 95 3e 61
        E 20 85 3c 76
        E 20 85 37 76
        E 390 85 43 76
        E 20 85 3e 76
        E 30 95 3c 61
        E 20 95 37 61
        E 130 85 3c 6a
        E 20 85 37 6a
        E 310 95 3c 62
        E 20 95 37 62
        E 460 95 41 62
        E 20 85 3c 73
        E 0 95 3c 62
        E 20 85 37 73
        E 430 95 3c 62
        E 20 95 37 62
        E 40 85 41 6f
        E 20 85 3c 6f
        E 70 85 3c 6f
        E 20 85 37 6f
        E 310 95 3c 62
        E 20 95 37 62
        E 460 95 43 62
        E 20 95 3e 62
        E 450 85 43 6e
        E 0 95 46 62
        E 20 85 3e 6e
        E 0 95 41 62
        E 270 85 3c 6f
        E 20 85 37 6f
        E 170 85 46 6f
        E 0 95 3c 62
        E 20 85 41 6f
        E 0 95 37 62
        E 170 85 3c 6e
        E 20 85 37 6e
        E 290 95 3c 62
        E 20 95 37 62
        E 460 95 48 62
        E 20 95 43 62
        E 330 85 3c 75
        E 20 85 37 75
        E 120 95 3c 62
        E 20 95 37 62
        E 20 85 48 6f
        E 20 85 43 6f
        E 100 85 3c 6f
        E 20 85 37 6f
        E 280 95 3c 62
        E 20 95 37 62
        E 470 95 46 62
        E 20 95 41 62
        E 100 85 3c 6e
        E 20 85 37 6e
        E 340 85 46 6e
        E 0 95 3c 62
        E 20 85 41 6e
        E 0 95 37 62
        E 130 85 3c 72
        E 20 85 37 72
        E 300 95 3c 62
        E 20 95 37 62
        E 260 85 3c 73
        E 20 85 37 73
        E 170 95 43 61
        E 20 95 3e 61
        E 220 95 41 61
        E 20 85 43 70
        E 0 95 3c 61
        E 20 85 3e 70
        E 180 85 41 69
        E 20 85 3c 69
        E 0 95 3e 61
        E 20 95 39 61
        E 220 85 3e 70
        E 0 95 41 61
        E 20 85 39 70
        E 0 95 3c 61
        E 210 85 41 67
        E 10 95 43 61
        E 10 85 3c 67
        E 10 95 3e 61
        E 240 85 43 6f
        E 0 95 41 61
        E 20 85 3e 6f
        E 0 95 3c 61
        E 200 85 41 66
        E 0 95 3e 61
        E 20 85 3c 66
        E 0 95 39 61
        E 220 95 3c 61
        E 20 85 3e 71
        E 0 95 37 61
        E 20 85 39 71
        E 200 85 3c 67
        E 20 85 37 67
        E 0 95 3e 5f
        E 20 95 39 5f
        E 200 95 41 5f
        E 10 85 3e 6f
        E 10 95 3c 5f
        E 10 85 39 6f
        E 220 85 41 65
        E 10 95 43 5f
        E 10 85 3c 65
        E 10 95 3e 5f
        E 200 95 46 5f
        E 10 85 43 70
        E 10 95 41 5f
        E 10 85 3e 70
        E 230 85 46 67
        E 10 95 41 5e
        E 10 85 41 67
        E 10 95 3c 5e
        E 190 95 3e 5e
        E 10 85 41 6e
        E 10 95 39 5e
        E 10 85 3c 6e
        E 210 85 3e 64
        E 10 95 3c 5e
        E 10 85 39 64
        E 10 95 37 5e
        E 210 85 3c 71
        E 0 95 3a 5e
        E 20 85 37 71
        E 0 95 35 5c
        E 220 85 3a 6c
        E 20 85 35 6c
        E 66240 b5 5b 4d
        E 0 95 4e 73
        E 24 95 4d 5a
        E 12 95 54 5f
        E 156 95 54 00
        E 12 95 4e 00
        E 8 95 4d 00
        E 1252 95 4e 73
        E 12 95 54 63
        E 4 95 4d 5c
        E 152 95 4e 00
        E 8 95 54 00
        E 4 95 4d 00
        E 1068 e5 04 3c
        E 64 e5 24 2c
        E 60 e5 32 25
        E 52 95 4e 7b
        E 12 e5 3a 21
        E 0 95 4d 6d
        E 0 95 54 71
        E 60 e5 44 1c
        E 60 e5 4a 19
        E 60 e5 4e 17
        E 60 e5 50 16
        E 64 e5 4e 17
        E 60 e5 48 1a
        E 60 e5 3e 1f
        E 64 e5 34 24
        E 60 e5 24 2c
        E 60 e5 20 2e
        E 64 e5 18 32
        E 60 e5 14 34
        E 64 e5 0e 37
        E 60 e5 02 3d
        E 60 e5 00 40
        E 144 95 54 00
        E 4 95 4e 00
        E 32 95 4d 00
        E 364 95 4e 73
        E 12 95 4d 5d
        E 0 95 54 61
        E 160 95 4e 00
        E 4 95 54 00
        E 20 95 4d 00
        E 1184 95 4e 73
        E 12 95 54 69
        E 8 95 4d 5f
        E 172 95 4e 00
        E 16 95 54 00
        E 0 95 4d 00
        E 808 95 2b 63
        E 972 95 2b 00
        E 392 95 2e 6b
        E 948 95 2e 00
        E 440 95 33 6b
        E 596 95 33 00
        E 472 95 30 59
        E 240 95 30 00
        E 268 95 30 61
        E 312 95 30 00
        E 640 95 30 51
        E 212 95 30 00
        E 288 95 2b 55
        E 448 95 2b 00
        e 492 95 2b 71
        e 724 95 2b 00
        E 1800 95 5b 5c
        E 0 95 60 57
        E 176 95 5b 00
        E 32 95 60 00
        E 112 95 5a 6f
        E 0 95 55 65
        E 180 95 5a 00
        E 12 95 55 00
        E 128 95 60 50
        E 0 95 5b 59
        E 164 95 5b 00
        E 32 95 60 00
        E 124 95 5a 6f
        E 0 95 55 69
        E 164 95 55 00
        E 24 95 5a 00
        E 132 95 60 5a
        E 0 95 5b 5c
        E 168 95 5b 00
        E 32 95 60 00
        E 120 95 5a 6f
        E 0 95 55 65
        E 172 95 5a 00
        E 16 95 55 00
        E 132 95 5b 56
        E 0 95 60 55
        E 184 95 5b 00
        E 36 95 60 00
        E 100 95 55 6b
        E 0 95 5a 77
        E 148 95 55 00
        E 52 95 5a 00
        E 120 95 60 59
        E 0 95 5b 5a
        E 172 95 5b 00
        E 36 95 60 00
        E 112 95 5a 73
        E 0 95 55 69
        E 196 95 5a 00
        E 0 95 55 00
        E 124 95 5b 5c
        E 0 95 60 5c
        E 184 95 5b 00
        E 20 95 60 00
        E 116 95 5a 71
        E 0 95 55 63
        E 156 95 55 00
        E 32 95 5a 00
        E 132 95 60 56
        E 0 95 5b 57
        E 176 95 5b 00
        E 28 95 60 00
        E 116 95 5a 71
        E 0 95 55 67
        E 172 95 55 00
        E 20 95 5a 00
        E 128 95 60 55
        E 0 95 5b 57
        E 188 95 5b 00
        E 16 95 60 00
        E 116 95 5a 73
        E 0 95 55 5f
        E 128 95 55 00
        E 76 95 5a 00
        E 116 95 60 52
        E 0 95 5b 53
        E 180 95 5b 00
        E 16 95 60 00
        E 124 95 5a 71
        E 0 95 55 65
        E 124 95 55 00
        E 68 95 5a 00
        E 128 95 5b 56
        E 0 95 60 55
        E 196 95 5b 00
        E 16 95 60 00
        E 108 95 5a 73
        E 0 95 55 65
        E 164 95 55 00
        E 36 95 5a 00
        E 120 95 5b 59
        E 0 95 60 52
        E 184 95 5b 00
        E 16 95 60 00
        E 120 95 55 65
        E 0 95 5a 73
        E 188 95 55 00
        E 12 95 5a 00
        E 120 95 60 5a
        E 0 95 5b 5c
        E 8 95 2b 65
        E 184 95 5b 00
        E 24 95 60 00
        E 104 95 55 5f
        E 0 95 5a 6f
        E 168 95 55 00
        E 28 95 5a 00
        E 124 95 5b 59
        E 0 95 60 57
        E 196 95 5b 00
        E 16 95 60 00
        E 108 95 5a 73
        E 0 95 55 63
        E 172 95 55 00
        E 28 95 2b 00
        E 4 95 5a 00
        E 116 95 60 55
        E 0 95 5b 57
        E 152 95 5b 00
        E 64 95 2e 73
        E 8 95 60 00
        E 96 95 55 61
        E 0 95 5a 71
        E 172 95 55 00
        E 16 95 5a 00
        E 132 95 5b 5a
        E 0 95 60 59
        E 196 95 5b 00
        E 20 95 60 00
        E 104 95 55 67
        E 0 95 5a 75
        E 116 95 2e 00
        E 36 95 55 00
        E 48 95 5a 00
        E 120 95 5b 65
        E 0 95 60 61
        E 4 b5 5b 00
        E 180 95 5b 00
        E 24 95 60 00
        E 108 95 30 55
        E 280 95 30 00
        E 212 95 24 42
        E 16 95 30 6b
        E 408 95 24 00
        E 124 95 30 00
        E 404 95 30 5c
        E 16 95 24 4e
        E 236 95 30 00
        E 24 95 24 00
        E 232 95 1f 53
        E 8 95 2b 5d
        E 492 95 1f 00
        E 48 95 2b 00
        E 456 95 2e 77
        E 8 95 22 5f
        E 664 95 22 00
        E 44 95 2e 00
        E 7912 e5 74 7a
        E 60 e5 3d 7f
        E 124 e5 6e 77
        E 60 e5 00 40
        E 2612 95 2b 7f
        E 244 95 2b 00
        E 200 95 2e 7a
        E 248 95 2e 00
        E 224 95 30 73
        E 256 95 30 00
        E 232 95 30 6c
        E 324 95 30 00
        E 636 95 30 6f
        E 220 95 30 00
        E 260 95 2b 6f
        E 328 95 2b 00
        E 632 95 2e 7f
        E 896 95 2e 00
        E 544 95 2e 7f
        E 212 95 2e 00
        E 748 95 2e 7f
        E 220 95 2e 00
        E 260 95 29 66
        E 416 95 29 00
        E 544 95 2a 7f
        E 1044 95 2a 00
        E 396 95 2a 71
        E 260 95 2a 00
        E 700 95 2a 77
        E 236 95 2a 00
        E 244 95 2e 7f
        E 332 95 2e 00
        E 628 95 2e 7e
        E 260 95 2e 00
        E 220 95 33 7a
        E 320 95 33 00
        E 640 95 33 77
        E 200 95 33 00
        E 280 95 38 7f
        E 308 95 38 00
        E 652 95 38 7f
        E 252 95 38 00
        E 228 95 3d 7f
        E 336 95 3d 00
        E 624 95 3d 7c
        E 4 b5 5d 00
        E 0 b5 5b 00
        E 304 95 3d 00
        E 172 95 3c 7f
        E 4 b5 5b 00
        E 496 95 3c 00
        E 3339 e5 00 40
        E 1 b0 7b 00
        CCINTERP 32
        CHASE_CC_TAKEOFFS 1
        GUID {92BC7C27-A43C-4028-8395-33948B562F07}
        IGNTEMPO 0 120 4 4
        SRCCOLOR 33
        VELLANE -1 100 0
        CFGEDITVIEW 283497.418776 0.06736 31 12 0 -1 0 0 0 0.5
        KEYSNAP 0
        TRACKSEL 0
        EVTFILTER 0 -1 -1 -1 -1 0 0 0 0 -1 -1 -1 -1 0 -1 0 -1 -1
        CFGEDIT 1 1 0 1 0 0 1 1 1 1 1 0.125 242 247 1601 1094 0 0 0 0 0 0 0 1 0 0.5 0 0 1 64
      >
    >
  >
  <TRACK {F6ADABB2-3164-47D8-98E5-8FD1F56C3C3F}
    NAME "PASSPORT.MID [chan 7] [chan 7]"
    PEAKCOL 16576
    BEAT -1
    AUTOMODE 0
    VOLPAN 1 0 -1 -1 1
    MUTESOLO 0 0 0
    IPHASE 0
    PLAYOFFS 0 1
    ISBUS 0 0
    BUSCOMP 0 0 0 0 0
    SHOWINMIX 1 0.6667 0.5 1 0.5 0 0 0
    SEL 1
    REC 0 0 1 0 0 0 0 0
    VU 2
    TRACKHEIGHT 0 0 0 0 0 0
    INQ 0 0 0 0.5 100 0 0 100
    NCHAN 2
    FX 1
    TRACKID {F6ADABB2-3164-47D8-98E5-8FD1F56C3C3F}
    PERF 0
    MIDIOUT 32
    MAINSEND 0 0
    <ITEM
      POSITION 0
      SNAPOFFS 0
      LENGTH 122.05709199999795
      LOOP 1
      ALLTAKES 0
      FADEIN 1 0 0 1 0 0 0
      FADEOUT 1 0 0 1 0 0 0
      MUTE 0 0
      SEL 0
      IGUID {5392B705-DBF2-458F-8A1A-01C1EBD4EE2F}
      IID 9
      NAME "PASSPORT.MID [chan 7]"
      VOLPAN 1 0 1 -1
      SOFFS 0 0
      PLAYRATE 1 1 0 -1 0 0.0025
      CHANMODE 0
      GUID {860DA68D-637D-4B71-88DB-9F6DD2B52ECC}
      <SOURCE MIDI
        HASDATA 1 960 QN
        CCINTERP 32
        POOLEDEVTS {3DB558B7-00C6-42D8-A6C7-5D5A74762237}
        E 0 b6 00 00
        E 0 b6 20 00
        E 0 c6 4c 00
        e 0 b6 07 57
        E 64 b6 0a 40
        E 153536 b6 5b 4d
        E 0 96 5a 7b
        E 140 96 5b 73
        E 116 96 5a 00
        E 4784 96 5b 00
        E 720 96 59 7b
        E 480 86 59 00
        E 240 96 57 7b
        E 480 86 57 00
        E 160 96 54 7b
        E 480 86 54 00
        E 80 96 58 7b
        E 160 86 58 00
        E 0 96 59 7b
        E 7040 86 59 00
        E 480 b6 5b 4d
        E 0 96 5a 7b
        E 140 96 5b 73
        E 116 96 5a 00
        E 4784 96 5b 00
        E 720 96 59 7b
        E 480 86 59 00
        E 240 96 57 7b
        E 480 86 57 00
        E 160 96 54 7b
        E 480 86 54 00
        E 80 96 58 7b
        E 160 86 58 00
        E 0 96 59 7b
        E 7040 86 59 00
        E 480 b6 5b 4d
        E 0 96 5a 7b
        E 140 96 5b 73
        E 116 96 5a 00
        E 4784 96 5b 00
        E 720 96 5b 7b
        E 480 86 5b 00
        E 240 96 5e 7b
        E 480 86 5e 00
        E 240 96 5b 7b
        E 480 86 5b 00
        E 80 96 58 7b
        E 160 86 58 00
        E 0 96 59 7b
        E 7040 86 59 00
        E 480 b6 5b 4d
        E 0 96 5a 7b
        E 140 96 5b 73
        E 116 96 5a 00
        E 4784 96 5b 00
        E 720 96 5b 7b
        E 480 86 5b 00
        E 240 96 5e 7b
        E 480 86 5e 00
        E 240 96 62 7b
        E 400 86 62 00
        E 80 96 5f 7b
        E 160 86 5f 00
        E 0 96 60 7b
        E 7040 86 60 00
        E 127120 b0 7b 00
        CCINTERP 32
        CHASE_CC_TAKEOFFS 1
        GUID {DF1461A9-1D7B-48BC-B6D1-345A2EC58B38}
        IGNTEMPO 0 120 4 4
        SRCCOLOR 148
        VELLANE 131 100 0
        CFGEDITVIEW 215846.89827 0.015959 6 12 0 -1 0 0 0 0.5
        KEYSNAP 0
        TRACKSEL 0
        EVTFILTER 64 -1 -1 -1 -1 6 0 0 0 -1 -1 -1 -1 0 -1 0 -1 -1
        CFGEDIT 1 1 0 1 0 4 1 1 7 1 1 0.08333333 421 65 1780 912 0 0 0 0 0 0 0 1 0 0.5 0 0 1 64
      >
    >
  >
  <TRACK {E85179DA-2732-4D93-8FC1-3E458A8018AD}
    NAME "PASSPORT.MID [chan 8] [chan 8]"
    PEAKCOL 16576
    BEAT -1
    AUTOMODE 0
    VOLPAN 1 0 -1 -1 1
    MUTESOLO 0 0 0
    IPHASE 0
    PLAYOFFS 0 1
    ISBUS 0 0
    BUSCOMP 0 0 0 0 0
    SHOWINMIX 1 0.6667 0.5 1 0.5 0 0 0
    SEL 0
    REC 0 0 1 0 0 0 0 0
    VU 2
    TRACKHEIGHT 0 0 0 0 0 0
    INQ 0 0 0 0.5 100 0 0 100
    NCHAN 2
    FX 1
    TRACKID {E85179DA-2732-4D93-8FC1-3E458A8018AD}
    PERF 0
    MIDIOUT 32
    MAINSEND 0 0
    <ITEM
      POSITION 0
      SNAPOFFS 0
      LENGTH 122.057092
      LOOP 1
      ALLTAKES 0
      FADEIN 1 0 0 1 0 0 0
      FADEOUT 1 0 0 1 0 0 0
      MUTE 0 0
      SEL 0
      IGUID {B3BA38E4-14DA-4F59-A862-B994C2033333}
      IID 10
      NAME "PASSPORT.MID [chan 8]"
      VOLPAN 1 0 1 -1
      SOFFS 0 0
      PLAYRATE 1 1 0 -1 0 0.0025
      CHANMODE 0
      GUID {0636DF2D-4C3A-470D-84E2-3C3703A99539}
      <SOURCE MIDI
        HASDATA 1 960 QN
        CCINTERP 32
        POOLEDEVTS {4E46F06E-B021-4025-8778-CA4998F92286}
        E 0 b7 00 00
        E 0 b7 20 00
        E 0 c7 3d 00
        E 0 b7 07 63
        E 1440 b7 0a 21
        E 153600 b7 5b 32
        E 0 97 48 65
        E 0 97 44 7d
        E 0 97 4b 7d
        E 236 97 44 00
        E 12 97 48 00
        E 4 97 4b 00
        E 708 97 48 6b
        E 0 97 4f 71
        E 0 97 4b 7b
        E 244 97 48 00
        E 16 97 4b 00
        E 44 97 4f 00
        E 176 97 48 6b
        E 0 97 4a 6b
        E 0 97 4d 6f
        E 4732 97 4a 00
        E 28 97 48 00
        E 0 97 4d 00
        E 10120 97 48 59
        E 0 97 54 73
        E 196 97 48 00
        E 12 97 54 00
        E 272 97 4b 77
        E 0 97 57 7e
        E 300 97 57 00
        E 24 97 4b 00
        E 636 97 59 77
        E 0 97 4d 79
        E 244 97 4d 00
        E 40 97 59 00
        E 1156 97 4d 7d
        E 0 97 59 7d
        E 172 97 59 00
        E 28 97 4d 00
        E 11320 97 48 63
        E 0 97 4b 79
        E 0 97 44 6d
        E 156 97 4b 00
        E 20 97 48 00
        E 20 97 44 00
        E 764 97 46 7b
        E 0 97 4a 65
        E 0 97 4d 6f
        E 112 97 4a 00
        E 80 97 46 00
        E 4 97 4d 00
        E 764 97 4f 71
        E 0 97 48 65
        E 0 97 4a 6d
        E 4144 97 4a 00
        E 4 97 48 00
        E 28 97 4f 00
        E 9780 97 48 7b
        E 24 97 3c 67
        E 240 97 48 00
        E 16 97 3c 00
        E 676 97 3f 77
        E 24 97 4b 7d
        E 296 97 3f 00
        E 20 97 4b 00
        E 664 97 4d 6f
        E 16 97 41 6d
        E 364 97 41 00
        E 16 97 4d 00
        E 96 97 43 61
        E 8 97 4f 69
        E 264 97 43 00
        E 40 97 4f 00
        E 112 97 4b 7d
        E 28 97 3f 7b
        E 304 97 4b 00
        E 4 97 3f 00
        E 648 97 4d 75
        E 0 97 41 73
        E 316 97 4d 00
        E 0 97 41 00
        E 164 97 43 5a
        E 0 97 4f 63
        E 256 97 43 00
        E 52 97 4f 00
        E 100 97 4b 79
        E 40 97 3f 77
        E 212 97 4b 00
        E 56 97 3f 00
        E 268 97 4d 75
        E 0 97 41 6f
        E 284 97 41 00
        E 52 97 4d 00
        E 536 97 3f 69
        E 48 97 4b 6b
        E 248 97 4b 00
        E 12 97 3f 00
        E 180 97 4d 55
        E 0 97 41 59
        E 264 97 4d 00
        E 80 97 41 00
        E 144 97 4f 6d
        E 52 97 43 5d
        E 188 97 4f 00
        E 20 97 43 00
        E 272 97 52 7e
        E 0 97 46 71
        E 192 97 52 00
        E 56 97 46 00
        E 284 97 43 5a
        E 8 97 4f 5d
        E 212 97 4f 00
        E 80 97 43 00
        E 124 97 52 73
        E 48 97 46 5a
        E 176 97 52 00
        E 40 97 46 00
        E 192 97 48 61
        E 24 97 54 7b
        E 296 97 48 00
        E 32 97 54 00
        E 96 97 4f 75
        E 0 97 5b 75
        E 240 97 4d 6e
        E 0 97 59 6e
        E 20 87 4f 70
        E 0 87 5b 70
        E 200 87 4d 69
        E 0 87 59 69
        E 20 97 4a 75
        E 0 97 56 75
        E 240 87 4a 70
        E 0 87 56 70
        E 0 97 4d 6c
        E 0 97 59 6c
        E 230 87 4d 67
        E 0 87 59 67
        E 10 97 4f 74
        E 0 97 5b 74
        E 260 87 4f 6f
        E 0 87 5b 6f
        E 0 97 4d 6b
        E 0 97 59 6b
        E 220 87 4d 66
        E 0 87 59 66
        E 0 97 4a 76
        E 0 97 56 76
        E 240 97 48 6c
        E 0 97 54 6c
        E 20 87 4a 71
        E 0 87 56 71
        E 220 87 48 67
        E 0 87 54 67
        E 20 97 4a 74
        E 0 97 56 74
        E 220 97 4d 6a
        E 0 97 59 6a
        E 10 87 4a 6f
        E 0 87 56 6f
        E 240 87 4d 65
        E 0 87 59 65
        E 10 97 4f 75
        E 0 97 5b 75
        E 220 97 52 6c
        E 0 97 5e 6c
        E 10 87 4f 70
        E 0 87 5b 70
        E 250 87 52 67
        E 0 87 5e 67
        E 10 97 4d 73
        E 0 97 59 73
        E 210 97 4a 69
        E 0 97 56 69
        E 10 87 4d 6e
        E 0 87 59 6e
        E 230 87 4a 64
        E 0 87 56 64
        E 10 97 48 76
        E 0 97 54 76
        E 230 87 48 71
        E 0 87 54 71
        E 0 97 46 6c
        E 0 97 52 6c
        E 240 87 46 6c
        E 0 87 52 6c
        E 16296 97 57 7f
        E 56 97 4b 7b
        E 172 97 57 00
        E 48 97 4b 00
        E 284 97 48 73
        E 8 97 54 7f
        E 192 97 54 00
        E 40 97 48 00
        E 3028 97 52 7f
        E 64 97 46 77
        E 44 97 47 69
        E 88 97 46 00
        E 12 97 52 00
        E 4 97 47 00
        E 1364 97 46 79
        E 44 97 52 7f
        E 148 97 46 00
        E 16 97 52 00
        E 1164 97 46 6d
        E 40 97 52 7f
        E 388 97 52 00
        E 52 97 46 00
        E 92 97 48 75
        E 0 97 54 73
        E 256 97 54 00
        E 4 97 48 00
        E 3492 97 4e 7f
        E 40 97 42 75
        E 208 97 4e 00
        E 24 97 42 00
        E 232 97 41 69
        E 4 97 4d 71
        E 308 97 41 00
        E 0 97 4d 00
        E 672 97 3f 79
        E 44 97 4b 7f
        E 260 97 3f 00
        E 24 97 4b 00
        E 108 97 48 65
        E 44 97 3b 59
        E 0 97 3c 5d
        E 176 97 3b 00
        E 20 97 3c 00
        E 44 97 48 00
        E 220 97 46 7e
        E 60 97 3a 5a
        E 140 97 46 00
        E 60 97 3a 00
        E 15540 97 43 6b
        E 40 97 4f 7e
        E 1084 97 4f 00
        E 40 97 43 00
        E 228 97 46 6d
        E 56 97 52 7e
        E 216 97 52 00
        E 16 97 46 00
        E 696 97 48 6b
        E 28 97 54 71
        E 216 97 48 00
        E 68 97 54 00
        E 712 97 4b 77
        E 20 97 57 79
        E 436 97 4b 00
        E 44 97 54 73
        E 0 97 48 6d
        E 80 97 57 00
        E 1076 97 48 00
        E 32 97 54 00
        E 132 97 46 6d
        E 36 97 52 7d
        E 208 97 52 00
        E 4 97 46 00
        E 780 97 4f 71
        E 12 97 43 65
        E 248 97 4f 00
        E 4 97 43 00
        E 632 97 42 6f
        E 36 97 4e 7f
        E 404 97 4e 00
        E 16 97 42 00
        E 104 97 41 6b
        E 12 97 4d 6f
        E 1144 97 4d 00
        E 112 97 41 00
        E 108 97 3f 6d
        E 8 97 4b 7f
        E 360 97 3f 00
        E 32 97 4b 00
        E 160 97 48 61
        E 4 97 3c 56
        E 188 97 48 00
        E 24 97 3c 00
        E 244 97 4b 7f
        E 44 97 3f 71
        E 808 97 3f 00
        E 68 97 4b 00
        E 48 97 48 69
        E 8 97 3c 61
        E 248 97 48 00
        E 0 97 3c 00
        E 204 97 46 7b
        E 16 97 3a 57
        E 184 97 3a 00
        E 8 97 46 00
        E 240 97 43 75
        E 0 97 4f 75
        E 240 97 41 6e
        E 0 97 4d 6e
        E 20 87 43 70
        E 0 87 4f 70
        E 200 87 41 69
        E 0 87 4d 69
        E 20 97 3e 75
        E 0 97 4a 75
        E 240 87 3e 70
        E 0 87 4a 70
        E 0 97 41 6c
        E 0 97 4d 6c
        E 230 87 41 67
        E 0 87 4d 67
        E 10 97 43 74
        E 0 97 4f 74
        E 260 87 43 6f
        E 0 87 4f 6f
        E 0 97 41 6b
        E 0 97 4d 6b
        E 220 87 41 66
        E 0 87 4d 66
        E 0 97 3e 76
        E 0 97 4a 76
        E 240 97 3c 6c
        E 0 97 48 6c
        E 20 87 3e 71
        E 0 87 4a 71
        E 220 87 3c 67
        E 0 87 48 67
        E 20 97 3e 74
        E 0 97 4a 74
        E 220 97 41 6a
        E 0 97 4d 6a
        E 10 87 3e 6f
        E 0 87 4a 6f
        E 240 87 41 65
        E 0 87 4d 65
        E 10 97 43 75
        E 0 97 4f 75
        E 220 97 46 6c
        E 0 97 52 6c
        E 10 87 43 70
        E 0 87 4f 70
        E 250 87 46 67
        E 0 87 52 67
        E 10 97 41 73
        E 0 97 4d 73
        E 210 97 3e 69
        E 0 97 4a 69
        E 10 87 41 6e
        E 0 87 4d 6e
        E 230 87 3e 64
        E 0 87 4a 64
        E 10 97 3c 76
        E 0 97 48 76
        E 230 87 3c 71
        E 0 87 48 71
        E 0 97 3a 6c
        E 0 97 46 6c
        E 240 87 3a 6c
        E 0 87 46 6c
        E 45120 97 37 53
        E 0 97 43 75
        E 212 97 37 00
        E 28 97 43 00
        E 240 97 46 7b
        E 0 97 3a 5f
        E 204 97 46 00
        E 72 97 3a 00
        E 204 97 48 73
        E 0 97 3c 59
        E 280 97 48 00
        E 20 97 3c 00
        E 180 97 48 75
        E 0 97 3c 5a
        E 272 97 3c 00
        E 36 97 48 00
        E 652 97 48 73
        E 0 97 3c 5a
        E 256 97 48 00
        E 0 97 3c 00
        E 224 97 37 5d
        E 0 97 43 71
        E 236 97 43 00
        E 88 97 37 00
        E 636 97 46 79
        E 0 97 3a 69
        E 960 97 3a 00
        E 36 97 46 00
        E 444 97 3a 6f
        E 0 97 46 79
        E 248 97 3a 00
        E 16 97 46 00
        E 696 97 3a 6b
        E 0 97 46 79
        E 212 97 3a 00
        E 20 97 46 00
        E 248 97 41 69
        E 0 97 35 63
        E 312 97 41 00
        E 104 97 35 00
        E 544 97 36 63
        E 0 97 42 7e
        E 932 97 36 00
        E 60 97 42 00
        E 448 97 42 6b
        E 0 97 36 63
        E 312 97 42 00
        E 8 97 36 00
        E 640 97 36 5f
        E 0 97 42 71
        E 256 97 42 00
        E 60 97 36 00
        E 164 97 46 71
        E 0 97 3a 5d
        E 304 97 46 00
        E 0 97 3a 00
        E 656 97 46 73
        E 0 97 3a 65
        E 284 97 3a 00
        E 12 97 46 00
        E 184 97 4b 71
        E 0 97 3f 67
        E 252 97 3f 00
        E 48 97 4b 00
        e 180 97 51 70
        e 230 87 51 70
        e 0 97 4e 69
        e 260 87 4e 69
        e 0 97 4b 70
        e 220 87 4b 70
        e 0 97 47 67
        e 260 87 47 67
        e 0 97 45 6f
        e 230 87 45 6f
        e 0 97 42 66
        e 240 87 42 66
        e 0 97 3f 71
        e 220 87 3f 71
        e 0 97 3b 67
        e 260 87 3b 67
        e 0 97 53 6f
        e 230 87 53 6f
        e 0 97 51 65
        e 250 87 51 65
        e 0 97 4e 70
        e 240 87 4e 70
        e 0 97 4b 67
        e 230 87 4b 67
        e 0 97 47 6e
        e 260 87 47 6e
        e 0 97 45 64
        e 220 87 45 64
        e 0 97 42 71
        e 260 87 42 71
        e 0 97 3f 67
        e 200 87 3f 67
        E 30 97 48 7f
        E 240 97 48 00
        E 3600 b0 7b 00
        CCINTERP 32
        CHASE_CC_TAKEOFFS 1
        GUID {D605BDD5-8339-4825-A557-92E4A345917C}
        IGNTEMPO 0 120 4 4
        SRCCOLOR 37
        VELLANE 131 100 0
        CFGEDITVIEW 250714.029464 0.027966 26 12 0 -1 0 0 0 0.5
        KEYSNAP 0
        TRACKSEL 0
        EVTFILTER 0 -1 -1 -1 -1 0 0 0 0 -1 -1 -1 -1 0 -1 0 -1 -1
        CFGEDIT 1 1 0 1 0 4 1 1 1 1 1 0.125 242 247 1601 1094 0 0 0 0 0 0 0 1 0 0.5 0 0 1 64
      >
    >
  >
  <TRACK {765222C5-E786-4CFC-A7D3-C3FD19569B31}
    NAME "PASSPORT.MID [chan 9] [chan 9]"
    PEAKCOL 16576
    BEAT -1
    AUTOMODE 0
    VOLPAN 1 0 -1 -1 1
    MUTESOLO 0 0 0
    IPHASE 0
    PLAYOFFS 0 1
    ISBUS 0 0
    BUSCOMP 0 0 0 0 0
    SHOWINMIX 1 0.6667 0.5 1 0.5 0 0 0
    SEL 0
    REC 0 0 1 0 0 0 0 0
    VU 2
    TRACKHEIGHT 0 0 0 0 0 0
    INQ 0 0 0 0.5 100 0 0 100
    NCHAN 2
    FX 1
    TRACKID {765222C5-E786-4CFC-A7D3-C3FD19569B31}
    PERF 0
    MIDIOUT 32
    MAINSEND 1 0
    <ITEM
      POSITION 0
      SNAPOFFS 0
      LENGTH 122.057092
      LOOP 1
      ALLTAKES 0
      FADEIN 1 0 0 1 0 0 0
      FADEOUT 1 0 0 1 0 0 0
      MUTE 0 0
      SEL 0
      IGUID {1B148CB5-334B-4CE2-BFD5-CB580EB13BBB}
      IID 11
      NAME "PASSPORT.MID [chan 9]"
      VOLPAN 1 0 1 -1
      SOFFS 0 0
      PLAYRATE 1 1 0 -1 0 0.0025
      CHANMODE 0
      GUID {B2A88760-9B44-4716-AFD3-1B6BEC623CEA}
      <SOURCE MIDI
        HASDATA 1 960 QN
        CCINTERP 32
        POOLEDEVTS {2EC247E5-C434-41C1-B36C-F6C19CBB5278}
        E 0 b8 00 00
        E 0 b8 20 78
        E 0 c8 37 00
        E 0 b8 07 63
        E 3800 b8 0a 40
        E 0 b8 5b 58
        E 334080 98 3c 7f
        E 4 b8 5b 00
        E 2708 98 3c 00
        E 1168 b0 7b 00
        CCINTERP 32
        CHASE_CC_TAKEOFFS 1
        GUID {9E7ED6E1-3E39-425F-8224-6122E47C3770}
        IGNTEMPO 0 120 4 4
        SRCCOLOR 39
        VELLANE 131 100 0
      >
    >
  >
  <TRACK {23C7B5C4-9174-4C3C-A8C0-BEEC9F720343}
    NAME "PASSPORT.MID [chan 10] [chan 10]"
    PEAKCOL 16576
    BEAT -1
    AUTOMODE 0
    VOLPAN 0 0 -1 -1 1
    MUTESOLO 0 0 0
    IPHASE 0
    PLAYOFFS 0 1
    ISBUS 0 0
    BUSCOMP 0 0 0 0 0
    SHOWINMIX 1 0.6667 0.5 1 0.5 0 0 0
    SEL 0
    REC 0 0 1 0 0 0 0 0
    VU 2
    TRACKHEIGHT 0 0 0 0 0 0
    INQ 0 0 0 0.5 100 0 0 100
    NCHAN 2
    FX 1
    TRACKID {23C7B5C4-9174-4C3C-A8C0-BEEC9F720343}
    PERF 0
    MIDIOUT 32
    MAINSEND 1 0
    <ITEM
      POSITION 0
      SNAPOFFS 0
      LENGTH 122.057092
      LOOP 1
      ALLTAKES 0
      FADEIN 1 0 0 1 0 0 0
      FADEOUT 1 0 0 1 0 0 0
      MUTE 0 0
      SEL 0
      IGUID {244F8C88-F4B7-4D83-B2B1-E0C051A463E3}
      IID 12
      NAME "PASSPORT.MID [chan 10]"
      VOLPAN 1 0 1 -1
      SOFFS 0 0
      PLAYRATE 1 1 0 -1 0 0.0025
      CHANMODE 0
      GUID {1EF40CB1-BB07-4D43-B211-4C8BD3464A7B}
      <SOURCE MIDI
        HASDATA 1 960 QN
        CCINTERP 32
        POOLEDEVTS {EF3EE5F8-7223-4812-AD0E-AA57274FE2EE}
        E 0 b9 00 00
        E 0 b9 20 00
        E 0 c9 00 00
        E 0 b9 07 5d
        E 0 b9 0a 40
        E 0 b9 5b 54
        E 0 99 2a 44
        E 0 99 24 79
        E 176 99 2a 00
        E 304 99 2a 30
        E 280 99 2a 00
        E 56 99 24 00
        E 144 99 2a 39
        E 240 99 2a 00
        E 240 99 2a 2c
        E 0 99 24 6d
        E 244 99 2a 00
        E 8 99 24 00
        E 228 99 2a 39
        E 0 99 26 77
        E 208 99 2a 00
        E 272 99 2a 28
        E 60 99 26 00
        E 184 99 2a 00
        E 236 99 2a 3a
        E 0 99 24 7d
        E 220 99 2a 00
        E 260 99 2a 27
        E 216 99 2a 00
        E 264 99 2a 3b
        E 144 99 24 00
        E 72 99 2a 00
        E 264 99 2a 2c
        E 236 99 2a 00
        E 244 99 2a 3c
        E 228 99 2a 00
        E 252 99 2a 2e
        E 268 99 2a 00
        E 212 99 2a 39
        E 0 99 26 77
        E 248 99 2a 00
        E 232 99 2a 2f
        E 164 99 26 00
        E 100 99 2a 00
        E 216 99 2a 3c
        E 0 99 24 79
        E 256 99 2a 00
        E 124 99 24 00
        E 100 99 2a 38
        E 236 99 2a 00
        E 244 99 2a 3b
        E 0 99 24 7b
        E 216 99 2a 00
        E 264 99 2a 2c
        E 236 99 2a 00
        E 96 99 24 00
        E 148 99 2a 3c
        E 228 99 2a 00
        E 252 99 24 79
        E 0 99 2a 2e
        E 268 99 2a 00
        E 76 99 24 00
        E 136 99 26 79
        E 0 99 2a 39
        E 248 99 2a 00
        E 232 99 2a 2f
        E 128 99 26 00
        E 136 99 2a 00
        E 216 99 2a 3c
        E 256 99 2a 00
        E 224 99 24 71
        E 0 99 2a 38
        E 236 99 2a 00
        E 244 99 2a 44
        E 32 99 2a 00
        E 404 99 24 00
        E 44 99 2a 30
        E 280 99 2a 00
        E 200 99 24 7d
        E 0 99 2a 39
        E 240 99 2a 00
        E 240 99 2a 2c
        E 84 99 24 00
        E 160 99 2a 00
        E 236 99 2a 40
        E 0 99 26 7b
        E 144 99 2a 00
        E 336 99 2e 44
        E 92 99 26 00
        E 96 99 2e 00
        E 292 99 2a 45
        E 216 99 2a 00
        E 264 99 2a 27
        E 0 99 24 6f
        E 156 99 24 00
        E 60 99 2a 00
        E 264 99 2a 44
        E 0 99 24 77
        E 176 99 2a 00
        E 304 99 2a 30
        E 280 99 2a 00
        E 168 99 24 00
        E 32 99 2a 39
        E 240 99 2a 00
        E 240 99 2a 2c
        E 0 99 24 71
        E 244 99 2a 00
        E 56 99 24 00
        E 180 99 26 77
        E 0 99 2a 39
        E 208 99 2a 00
        E 272 99 2a 28
        E 60 99 26 00
        E 184 99 2a 00
        E 236 99 2a 3a
        E 0 99 24 7d
        E 220 99 2a 00
        E 260 99 2a 27
        E 216 99 2a 00
        E 264 99 2a 3b
        E 216 99 2a 00
        E 264 99 2a 2c
        E 236 99 2a 00
        E 244 99 2a 3c
        E 228 99 2a 00
        E 252 99 2a 2e
        E 136 99 24 00
        E 132 99 2a 00
        E 212 99 2a 39
        E 0 99 26 77
        E 248 99 2a 00
        E 232 99 2a 2f
        E 164 99 26 00
        E 100 99 2a 00
        E 216 99 2a 3c
        E 0 99 24 73
        E 256 99 2a 00
        E 108 99 24 00
        E 116 99 2a 38
        E 236 99 2a 00
        E 244 99 2a 44
        E 0 99 24 7d
        E 32 99 2a 00
        E 448 99 2a 30
        E 280 99 2a 00
        E 124 99 24 00
        E 76 99 2a 39
        E 240 99 2a 00
        E 240 99 2a 2c
        E 0 99 24 7b
        E 244 99 2a 00
        E 120 99 24 00
        E 116 99 26 79
        E 0 99 2a 40
        E 144 99 2a 00
        E 336 99 2e 44
        E 128 99 26 00
        E 60 99 2e 00
        E 292 99 2a 3a
        E 216 99 2a 00
        E 264 99 2a 27
        E 0 99 24 77
        E 216 99 2a 00
        E 264 99 2a 3b
        E 4 99 2a 00
        E 476 99 2a 2c
        E 44 99 24 00
        E 192 99 2a 00
        E 244 99 24 73
        E 0 99 2a 3c
        E 228 99 2a 00
        E 252 99 2a 2e
        E 156 99 24 00
        E 112 99 2a 00
        E 212 99 26 7b
        E 0 99 2a 39
        E 248 99 2a 00
        E 232 99 2a 2f
        E 92 99 26 00
        E 172 99 2a 00
        E 216 99 24 79
        E 0 99 2b 7f
        E 0 99 2a 3c
        E 256 99 2a 00
        E 52 99 2b 00
        E 12 99 24 00
        E 160 99 2a 38
        E 236 99 2a 00
        E 244 99 2a 44
        E 0 99 24 7d
        E 176 99 2a 00
        E 304 99 2a 30
        E 280 99 2a 00
        E 112 99 24 00
        E 88 99 2a 39
        E 240 99 2a 00
        E 240 99 24 79
        E 0 99 2a 2c
        E 244 99 2a 00
        E 36 99 24 00
        E 200 99 2a 39
        E 0 99 26 77
        E 208 99 2a 00
        E 272 99 2a 28
        E 60 99 26 00
        E 184 99 2a 00
        E 236 99 24 7b
        E 0 99 2a 3a
        E 220 99 2a 00
        E 260 99 2a 27
        E 216 99 2a 00
        E 264 99 2a 3b
        E 216 99 2a 00
        E 264 99 2a 2c
        E 236 99 2a 00
        E 244 99 2a 3c
        E 228 99 2a 00
        E 252 99 2a 2e
        E 76 99 24 00
        E 192 99 2a 00
        E 212 99 26 77
        E 0 99 2a 39
        E 248 99 2a 00
        E 232 99 2a 2f
        E 164 99 26 00
        E 100 99 2a 00
        E 216 99 24 7b
        E 0 99 2a 3c
        E 256 99 2a 00
        E 100 99 24 00
        E 124 99 2a 38
        E 236 99 2a 00
        E 244 99 2a 3b
        E 0 99 24 79
        E 216 99 2a 00
        E 264 99 2a 2c
        E 236 99 2a 00
        E 152 99 24 00
        E 92 99 2a 3c
        E 228 99 2a 00
        E 252 99 2a 2e
        E 0 99 24 75
        E 268 99 2a 00
        E 72 99 24 00
        E 140 99 2a 39
        E 0 99 26 79
        E 248 99 2a 00
        E 232 99 2a 2f
        E 128 99 26 00
        E 136 99 2a 00
        E 216 99 2a 3c
        E 256 99 2a 00
        E 224 99 2a 38
        E 0 99 24 77
        E 236 99 2a 00
        E 244 99 2a 44
        E 32 99 2a 00
        E 352 99 24 00
        E 96 99 2a 30
        E 280 99 2a 00
        E 200 99 24 7b
        E 0 99 2a 39
        E 240 99 2a 00
        E 240 99 2a 2c
        E 52 99 24 00
        E 192 99 2a 00
        E 236 99 26 7b
        E 0 99 2a 40
        E 144 99 2a 00
        E 336 99 2e 44
        E 92 99 26 00
        E 96 99 2e 00
        E 292 99 2a 45
        E 216 99 2a 00
        E 264 99 24 77
        E 0 99 2a 27
        E 180 99 24 00
        E 36 99 2a 00
        E 264 99 2a 44
        E 0 99 24 7b
        E 176 99 2a 00
        E 304 99 2a 30
        E 172 99 24 00
        E 108 99 2a 00
        E 200 99 2a 39
        E 240 99 2a 00
        E 240 99 24 71
        E 0 99 2a 2c
        E 244 99 2a 00
        E 56 99 24 00
        E 180 99 2a 39
        E 0 99 26 77
        E 208 99 2a 00
        E 272 99 2a 28
        E 60 99 26 00
        E 184 99 2a 00
        E 236 99 24 7d
        E 0 99 2a 3a
        E 220 99 2a 00
        E 260 99 2a 27
        E 216 99 2a 00
        E 264 99 2a 3b
        E 216 99 2a 00
        E 264 99 2a 2c
        E 236 99 2a 00
        E 244 99 2a 3c
        E 96 99 24 00
        E 132 99 2a 00
        E 252 99 2a 2e
        E 268 99 2a 00
        E 212 99 26 77
        E 0 99 2a 39
        E 248 99 2a 00
        E 232 99 2a 2f
        E 164 99 26 00
        E 100 99 2a 00
        E 216 99 2a 3c
        E 0 99 24 7b
        E 256 99 2a 00
        E 184 99 24 00
        E 40 99 2a 38
        E 236 99 2a 00
        E 244 99 2a 44
        E 0 99 24 6f
        E 0 99 2a 3e
        E 32 99 2a 00
        E 0 99 2a 00
        E 448 99 2a 30
        E 280 99 2a 00
        E 60 99 24 00
        E 140 99 2a 39
        E 240 99 2a 00
        E 240 99 24 7b
        E 0 99 2a 2c
        E 244 99 2a 00
        E 92 99 24 00
        E 144 99 2a 40
        E 0 99 26 79
        E 144 99 2a 00
        E 336 99 2e 44
        E 128 99 26 00
        E 60 99 2e 00
        E 292 99 2a 3a
        E 216 99 2a 00
        E 264 99 2a 27
        E 0 99 24 75
        E 216 99 2a 00
        E 180 99 24 00
        E 84 99 2a 3b
        E 4 99 2a 00
        E 476 99 24 77
        E 0 99 2a 2c
        E 144 99 24 00
        E 92 99 2a 00
        E 244 99 24 7d
        E 0 99 2a 3c
        E 228 99 2a 00
        E 156 99 24 00
        E 96 99 2a 2e
        E 268 99 2a 00
        E 212 99 2a 39
        E 0 99 26 75
        E 248 99 2a 00
        E 232 99 2a 2f
        E 0 99 30 77
        E 4 99 26 00
        E 236 99 2f 6f
        E 24 99 2a 00
        E 20 99 30 00
        E 132 99 2f 00
        E 64 99 2b 7f
        E 0 99 26 7e
        E 0 99 2a 3c
        E 256 99 2a 00
        E 108 99 2b 00
        E 116 99 2a 38
        E 76 99 26 00
        E 160 99 2a 00
        E 244 99 31 71
        E 0 99 2a 44
        E 0 99 24 7d
        E 176 99 2a 00
        E 208 99 31 00
        E 96 99 2a 30
        E 280 99 2a 00
        E 112 99 24 00
        E 88 99 2a 39
        E 240 99 2a 00
        E 240 99 24 79
        E 0 99 2a 2c
        E 244 99 2a 00
        E 36 99 24 00
        E 200 99 26 77
        E 0 99 2a 39
        E 208 99 2a 00
        E 272 99 2a 28
        E 60 99 26 00
        E 184 99 2a 00
        E 236 99 24 7b
        E 0 99 2a 3a
        E 220 99 2a 00
        E 260 99 2a 27
        E 216 99 2a 00
        E 264 99 2a 3b
        E 216 99 2a 00
        E 264 99 2a 2c
        E 236 99 2a 00
        E 244 99 2a 3c
        E 228 99 2a 00
        E 252 99 2a 2e
        E 76 99 24 00
        E 192 99 2a 00
        E 212 99 2a 39
        E 0 99 26 77
        E 248 99 2a 00
        E 232 99 2a 2f
        E 164 99 26 00
        E 100 99 2a 00
        E 216 99 2a 3c
        E 0 99 24 7b
        E 256 99 2a 00
        E 100 99 24 00
        E 124 99 2a 38
        E 236 99 2a 00
        E 244 99 24 79
        E 0 99 2a 3b
        E 216 99 2a 00
        E 264 99 2a 2c
        E 236 99 2a 00
        E 152 99 24 00
        E 92 99 2a 3c
        E 228 99 2a 00
        E 252 99 24 75
        E 0 99 2a 2e
        E 268 99 2a 00
        E 72 99 24 00
        E 140 99 26 79
        E 0 99 2a 39
        E 248 99 2a 00
        E 232 99 2a 2f
        E 128 99 26 00
        E 136 99 2a 00
        E 216 99 2a 3c
        E 256 99 2a 00
        E 224 99 24 77
        E 0 99 2a 38
        E 236 99 2a 00
        E 244 99 2a 3e
        E 32 99 2a 00
        E 352 99 24 00
        E 96 99 2a 30
        E 280 99 2a 00
        E 200 99 24 7b
        E 0 99 2a 39
        E 240 99 2a 00
        E 240 99 2a 2c
        E 52 99 24 00
        E 192 99 2a 00
        E 236 99 2a 40
        E 0 99 26 7b
        E 144 99 2a 00
        E 336 99 2e 44
        E 92 99 26 00
        E 96 99 2e 00
        E 292 99 2a 45
        E 216 99 2a 00
        E 264 99 24 77
        E 0 99 2a 27
        E 180 99 24 00
        E 36 99 2a 00
        E 264 99 24 7b
        E 0 99 2a 44
        E 176 99 2a 00
        E 304 99 2a 30
        E 172 99 24 00
        E 108 99 2a 00
        E 200 99 2a 39
        E 240 99 2a 00
        E 240 99 24 71
        E 0 99 2a 2c
        E 244 99 2a 00
        E 56 99 24 00
        E 180 99 2a 39
        E 0 99 26 77
        E 208 99 2a 00
        E 272 99 2a 28
        E 60 99 26 00
        E 184 99 2a 00
        E 236 99 2a 3a
        E 0 99 24 7d
        E 220 99 2a 00
        E 260 99 2a 27
        E 216 99 2a 00
        E 264 99 2a 44
        E 176 99 2a 00
        E 304 99 2a 30
        E 280 99 2a 00
        E 200 99 2a 39
        E 96 99 24 00
        E 144 99 2a 00
        E 240 99 2a 2c
        E 244 99 2a 00
        E 236 99 2a 39
        E 0 99 26 77
        E 208 99 2a 00
        E 272 99 2a 28
        E 164 99 26 00
        E 80 99 2a 00
        E 236 99 24 7b
        E 0 99 2a 3a
        E 220 99 2a 00
        E 220 99 24 00
        E 40 99 2a 27
        E 216 99 2a 00
        E 264 99 24 6f
        E 0 99 2a 44
        E 32 99 2a 00
        E 448 99 2a 30
        E 280 99 2a 00
        E 60 99 24 00
        E 140 99 2a 39
        E 240 99 2a 00
        E 240 99 2a 2c
        E 0 99 24 7b
        E 244 99 2a 00
        E 92 99 24 00
        E 144 99 26 79
        E 0 99 2a 40
        E 144 99 2a 00
        E 336 99 2e 44
        E 128 99 26 00
        E 60 99 2e 00
        E 292 99 2a 3a
        E 216 99 2a 00
        E 264 99 24 75
        E 0 99 2a 27
        E 216 99 2a 00
        E 180 99 24 00
        E 84 99 2a 3b
        E 4 99 2a 00
        E 476 99 24 77
        E 0 99 2f 7f
        E 0 99 2a 2c
        E 144 99 24 00
        E 44 99 2f 00
        E 48 99 2a 00
        E 244 99 2a 3c
        E 0 99 24 7d
        E 228 99 2a 00
        E 156 99 24 00
        E 96 99 2a 2e
        E 268 99 2a 00
        E 212 99 26 7b
        E 0 99 2a 39
        E 248 99 2a 00
        E 232 99 2a 2f
        E 92 99 26 00
        E 172 99 2a 00
        E 216 99 2a 3c
        E 256 99 2a 00
        E 224 99 2a 38
        E 236 99 2a 00
        E 244 99 2a 44
        E 0 99 24 7e
        E 176 99 2a 00
        E 304 99 2a 30
        E 280 99 2a 00
        E 172 99 24 00
        E 28 99 2a 39
        E 240 99 2a 00
        E 240 99 24 7d
        E 0 99 2a 2c
        E 244 99 2a 00
        E 100 99 24 00
        E 136 99 2a 39
        E 0 99 26 77
        E 208 99 2a 00
        E 272 99 2a 28
        E 60 99 26 00
        E 184 99 2a 00
        E 236 99 24 7e
        E 0 99 2a 3a
        E 220 99 2a 00
        E 260 99 2a 27
        E 216 99 2a 00
        E 264 99 2a 3b
        E 204 99 24 00
        E 12 99 2a 00
        E 264 99 2a 2c
        E 236 99 2a 00
        E 244 99 2a 3c
        E 0 99 24 7f
        E 228 99 2a 00
        E 172 99 24 00
        E 80 99 2a 2e
        E 268 99 2a 00
        E 212 99 2a 39
        E 0 99 26 77
        E 248 99 2a 00
        E 232 99 2a 2f
        E 164 99 26 00
        E 100 99 2a 00
        E 216 99 24 75
        E 0 99 2a 3c
        E 256 99 2a 00
        E 68 99 24 00
        E 156 99 2a 38
        E 236 99 2a 00
        E 244 99 2a 3b
        E 0 99 24 7d
        E 216 99 2a 00
        E 264 99 2a 2c
        E 236 99 2a 00
        E 200 99 24 00
        E 44 99 2a 3c
        E 228 99 2a 00
        E 252 99 2a 2e
        E 0 99 24 7d
        E 268 99 2a 00
        E 4 99 24 00
        E 208 99 2a 39
        E 0 99 26 79
        E 248 99 2a 00
        E 232 99 2a 2f
        E 128 99 26 00
        E 136 99 2a 00
        E 216 99 2a 3c
        E 256 99 2a 00
        E 224 99 24 7b
        E 0 99 2a 38
        E 236 99 2a 00
        E 244 99 2a 44
        E 32 99 2a 00
        E 396 99 24 00
        E 52 99 2a 30
        E 280 99 2a 00
        E 200 99 2a 39
        E 0 99 24 7f
        E 240 99 2a 00
        E 212 99 24 00
        E 28 99 2a 2c
        E 244 99 2a 00
        E 236 99 2a 40
        E 0 99 26 7b
        E 144 99 2a 00
        E 336 99 2e 44
        E 0 99 24 7e
        E 92 99 26 00
        E 96 99 2e 00
        E 188 99 24 00
        E 104 99 2a 45
        E 216 99 2a 00
        E 264 99 2a 27
        E 0 99 24 79
        E 192 99 24 00
        E 24 99 2a 00
        E 264 99 2a 44
        E 0 99 24 7e
        E 176 99 2a 00
        E 304 99 2a 30
        E 168 99 24 00
        E 112 99 2a 00
        E 200 99 2a 39
        E 240 99 2a 00
        E 240 99 24 7d
        E 0 99 2a 2c
        E 244 99 2a 00
        E 48 99 24 00
        E 188 99 26 77
        E 0 99 2a 39
        E 208 99 2a 00
        E 272 99 2a 28
        E 60 99 26 00
        E 184 99 2a 00
        E 236 99 2a 3a
        E 0 99 24 7e
        E 220 99 2a 00
        E 260 99 2a 27
        E 216 99 2a 00
        E 264 99 2a 44
        E 176 99 2a 00
        E 40 99 24 00
        E 264 99 2a 30
        E 280 99 2a 00
        E 200 99 2a 39
        E 0 99 24 7f
        E 240 99 2a 00
        E 240 99 2a 2c
        E 244 99 2a 00
        E 88 99 24 00
        E 148 99 26 77
        E 0 99 2a 39
        E 208 99 2a 00
        E 272 99 2a 28
        E 164 99 26 00
        E 80 99 2a 00
        E 236 99 2a 3a
        E 0 99 24 7f
        E 220 99 2a 00
        E 116 99 24 00
        E 144 99 2a 27
        E 216 99 2a 00
        E 264 99 2a 3e
        E 0 99 24 7f
        E 0 99 2a 44
        E 32 99 2a 00
        E 0 99 2a 00
        E 448 99 2a 30
        E 280 99 2a 00
        E 112 99 24 00
        E 88 99 2a 39
        E 240 99 2a 00
        E 240 99 24 7d
        E 0 99 2a 2c
        E 244 99 2a 00
        E 48 99 24 00
        E 188 99 26 79
        E 0 99 2a 40
        E 144 99 2a 00
        E 336 99 2e 44
        E 128 99 26 00
        E 60 99 2e 00
        E 292 99 2a 45
        E 216 99 2a 00
        E 264 99 2a 27
        E 0 99 24 7e
        E 216 99 2a 00
        E 264 99 2a 3b
        E 4 99 2a 00
        E 312 99 24 00
        E 164 99 2f 7f
        E 0 99 2a 2c
        E 236 99 2a 00
        E 8 99 2f 00
        E 236 99 2a 3c
        E 0 99 24 7f
        E 228 99 2a 00
        E 252 99 2a 2e
        E 72 99 24 00
        E 196 99 2a 00
        E 212 99 2a 39
        E 0 99 26 7b
        E 248 99 2a 00
        E 232 99 24 7f
        E 0 99 2a 2f
        E 92 99 26 00
        E 172 99 2a 00
        E 96 99 24 00
        E 120 99 2a 3c
        E 256 99 2a 00
        E 224 99 24 7f
        E 0 99 2a 38
        E 236 99 2a 00
        E 28 99 24 00
        E 216 99 24 7e
        E 0 99 2a 44
        E 176 99 2a 00
        E 304 99 2a 30
        E 280 99 2a 00
        E 172 99 24 00
        E 28 99 2a 39
        E 240 99 2a 00
        E 240 99 2a 2c
        E 0 99 24 7d
        E 244 99 2a 00
        E 100 99 24 00
        E 136 99 2a 39
        E 0 99 26 77
        E 208 99 2a 00
        E 272 99 2a 28
        E 60 99 26 00
        E 184 99 2a 00
        E 236 99 24 7e
        E 0 99 2a 3a
        E 220 99 2a 00
        E 260 99 2a 27
        E 216 99 2a 00
        E 264 99 2a 3b
        E 204 99 24 00
        E 12 99 2a 00
        E 264 99 2a 2c
        E 236 99 2a 00
        E 244 99 2a 3c
        E 0 99 24 7f
        E 228 99 2a 00
        E 172 99 24 00
        E 80 99 2a 2e
        E 268 99 2a 00
        E 212 99 2a 39
        E 0 99 26 77
        E 248 99 2a 00
        E 232 99 2a 2f
        E 164 99 26 00
        E 100 99 2a 00
        E 216 99 2a 3c
        E 0 99 24 75
        E 256 99 2a 00
        E 68 99 24 00
        E 156 99 2a 38
        E 236 99 2a 00
        E 244 99 24 7d
        E 0 99 2a 3b
        E 216 99 2a 00
        E 264 99 2a 2c
        E 236 99 2a 00
        E 200 99 24 00
        E 44 99 2a 3c
        E 228 99 2a 00
        E 252 99 2a 2e
        E 0 99 24 7d
        E 268 99 2a 00
        E 4 99 24 00
        E 208 99 2a 39
        E 0 99 26 79
        E 248 99 2a 00
        E 232 99 2a 2f
        E 128 99 26 00
        E 136 99 2a 00
        E 216 99 2a 3c
        E 256 99 2a 00
        E 224 99 2a 38
        E 0 99 24 7b
        E 236 99 2a 00
        E 244 99 2a 3e
        E 32 99 2a 00
        E 396 99 24 00
        E 52 99 2a 30
        E 280 99 2a 00
        E 200 99 2a 39
        E 0 99 24 7f
        E 240 99 2a 00
        E 212 99 24 00
        E 28 99 2a 2c
        E 244 99 2a 00
        E 236 99 26 7b
        E 0 99 2a 40
        E 144 99 2a 00
        E 336 99 24 7e
        E 0 99 2e 44
        E 92 99 26 00
        E 96 99 2e 00
        E 188 99 24 00
        E 104 99 2a 3a
        E 216 99 2a 00
        E 264 99 2a 27
        E 0 99 24 79
        E 192 99 24 00
        E 24 99 2a 00
        E 264 99 2a 44
        E 0 99 24 7e
        E 32 99 2a 00
        E 448 99 2a 30
        E 168 99 24 00
        E 112 99 2a 00
        E 200 99 2a 39
        E 240 99 2a 00
        E 240 99 2a 2c
        E 0 99 24 7d
        E 244 99 2a 00
        E 48 99 24 00
        E 188 99 2a 39
        E 0 99 26 77
        E 208 99 2a 00
        E 272 99 2a 28
        E 60 99 26 00
        E 184 99 2a 00
        E 236 99 2a 3a
        E 0 99 24 7e
        E 220 99 2a 00
        E 260 99 2a 27
        E 216 99 2a 00
        E 264 99 2a 3b
        E 216 99 24 00
        E 0 99 2a 00
        E 264 99 2a 2c
        E 236 99 2a 00
        E 244 99 2a 3c
        E 0 99 24 7f
        E 228 99 2a 00
        E 252 99 2a 2e
        E 268 99 2a 00
        E 64 99 24 00
        E 148 99 26 77
        E 0 99 2a 39
        E 248 99 2a 00
        E 232 99 2a 2f
        E 164 99 26 00
        E 100 99 2a 00
        E 216 99 2a 3c
        E 0 99 24 7f
        E 256 99 2a 00
        E 80 99 24 00
        E 144 99 2a 38
        E 236 99 2a 00
        E 244 99 2a 44
        E 0 99 24 7f
        E 0 99 2a 3e
        E 32 99 2a 00
        E 0 99 2a 00
        E 448 99 2a 30
        E 280 99 2a 00
        E 112 99 24 00
        E 88 99 2a 39
        E 240 99 2a 00
        E 240 99 2a 2c
        E 0 99 24 7d
        E 244 99 2a 00
        E 48 99 24 00
        E 188 99 2a 39
        E 0 99 26 79
        E 208 99 2a 00
        E 272 99 2a 28
        E 0 99 2f 7f
        E 128 99 26 00
        E 116 99 2a 00
        E 12 99 2f 00
        E 224 99 2a 3a
        E 220 99 2a 00
        E 260 99 24 7e
        E 0 99 2a 27
        E 216 99 2a 00
        E 264 99 2a 3b
        E 216 99 2a 00
        E 100 99 24 00
        E 164 99 2d 7f
        E 0 99 2a 2c
        E 236 99 2a 00
        E 32 99 2d 00
        E 212 99 2a 3c
        E 0 99 24 7f
        E 228 99 2a 00
        E 252 99 2a 2e
        E 72 99 24 00
        E 196 99 2a 00
        E 212 99 2a 39
        E 248 99 2a 00
        E 232 99 24 7f
        E 0 99 2e 50
        E 40 99 30 6b
        E 156 99 2d 75
        E 44 99 2e 00
        E 32 99 30 00
        E 88 99 24 00
        E 8 99 2d 00
        E 68 99 29 7f
        E 44 99 2a 3c
        E 160 99 29 00
        E 96 99 2a 00
        E 224 99 24 7f
        E 0 99 2a 38
        E 236 99 2a 00
        E 28 99 24 00
        E 216 99 2a 44
        E 0 99 24 7e
        E 0 99 46 71
        E 176 99 2a 00
        E 244 99 46 00
        E 60 99 2a 30
        E 280 99 2a 00
        E 172 99 24 00
        E 28 99 2a 39
        E 0 99 46 53
        E 220 99 46 00
        E 20 99 2a 00
        E 240 99 52 57
        E 0 99 2a 2c
        E 0 99 24 7d
        E 244 99 2a 00
        E 100 99 24 00
        E 84 99 52 00
        E 52 99 46 51
        E 0 99 2a 39
        E 0 99 26 77
        E 208 99 2a 00
        E 100 99 46 00
        E 172 99 2a 50
        E 60 99 26 00
        E 180 99 2a 00
        E 240 99 2a 3a
        E 0 99 24 7e
        E 0 99 46 51
        E 200 99 46 00
        E 20 99 2a 00
        E 260 99 52 57
        E 0 99 2a 27
        E 216 99 2a 00
        E 264 99 2a 3b
        E 0 99 46 5f
        E 32 99 52 00
        E 172 99 24 00
        E 12 99 2a 00
        E 88 99 46 00
        E 176 99 2a 2c
        E 236 99 2a 00
        E 244 99 46 4e
        E 0 99 24 7f
        E 0 99 2a 3c
        E 212 99 46 00
        E 16 99 2a 00
        E 172 99 24 00
        E 80 99 52 69
        E 0 99 2a 2e
        E 268 99 2a 00
        E 116 99 52 00
        E 96 99 26 77
        E 0 99 2a 39
        E 0 99 46 5c
        E 248 99 2a 00
        E 28 99 46 00
        E 204 99 2a 2f
        E 164 99 26 00
        E 100 99 2a 00
        E 216 99 2a 3c
        E 0 99 46 57
        E 0 99 24 75
        E 196 99 46 00
        E 60 99 2a 00
        E 68 99 24 00
        E 156 99 2a 38
        E 0 99 52 69
        E 236 99 2a 00
        E 148 99 52 00
        E 96 99 24 7d
        E 0 99 46 69
        E 0 99 2a 3b
        E 216 99 2a 00
        E 40 99 46 00
        E 224 99 2a 2c
        E 236 99 2a 00
        E 200 99 24 00
        E 44 99 2a 3c
        E 0 99 46 5c
        E 216 99 46 00
        E 12 99 2a 00
        E 252 99 52 5f
        E 0 99 2a 2e
        E 0 99 24 7d
        E 268 99 2a 00
        E 4 99 24 00
        E 108 99 52 00
        E 100 99 2a 39
        E 0 99 46 63
        E 0 99 26 79
        E 248 99 2a 00
        E 76 99 46 00
        E 156 99 2a 2f
        E 128 99 26 00
        E 136 99 2a 00
        E 216 99 46 57
        E 0 99 2a 3c
        E 220 99 46 00
        E 36 99 2a 00
        E 224 99 2a 38
        E 0 99 52 5f
        E 0 99 24 7b
        E 236 99 2a 00
        E 184 99 52 00
        E 60 99 46 5f
        E 0 99 2a 44
        E 32 99 2a 00
        E 272 99 46 00
        E 124 99 24 00
        E 52 99 2a 30
        E 280 99 2a 00
        E 200 99 2a 39
        E 0 99 24 7f
        E 0 99 46 5d
        E 240 99 2a 00
        E 32 99 46 00
        E 180 99 24 00
        E 28 99 52 65
        E 0 99 2a 2c
        E 244 99 2a 00
        E 176 99 52 00
        E 60 99 26 7b
        E 0 99 46 56
        E 0 99 2a 40
        E 144 99 2a 00
        E 196 99 46 00
        E 140 99 24 7e
        E 0 99 2e 44
        E 92 99 26 00
        E 96 99 2e 00
        E 188 99 24 00
        E 104 99 46 61
        E 0 99 2a 3a
        E 216 99 2a 00
        E 40 99 46 00
        E 224 99 24 79
        E 0 99 52 65
        E 0 99 2a 27
        E 192 99 24 00
        E 24 99 2a 00
        E 96 99 52 00
        E 168 99 2a 44
        E 0 99 46 4e
        E 0 99 24 7e
        E 176 99 2a 00
        E 144 99 46 00
        E 160 99 2a 30
        E 168 99 24 00
        E 112 99 2a 00
        E 200 99 46 5d
        E 0 99 2a 39
        E 204 99 46 00
        E 36 99 2a 00
        E 240 99 52 61
        E 0 99 2a 2c
        E 0 99 24 7d
        E 244 99 2a 00
        E 48 99 24 00
        E 68 99 52 00
        E 120 99 26 77
        E 0 99 46 51
        E 0 99 2a 39
        E 208 99 2a 00
        E 116 99 46 00
        E 156 99 2a 28
        E 60 99 26 00
        E 184 99 2a 00
        E 236 99 2a 3a
        E 0 99 46 63
        E 0 99 24 7e
        E 220 99 2a 00
        E 32 99 46 00
        E 228 99 52 5d
        E 0 99 2a 27
        E 216 99 2a 00
        E 220 99 52 00
        E 44 99 46 67
        E 0 99 2a 44
        E 176 99 2a 00
        E 40 99 24 00
        E 108 99 46 00
        E 156 99 2a 30
        E 280 99 2a 00
        E 200 99 46 61
        E 0 99 2a 39
        E 0 99 24 7f
        E 224 99 46 00
        E 16 99 2a 00
        E 240 99 2a 2c
        E 0 99 52 67
        E 244 99 2a 00
        E 88 99 24 00
        E 8 99 52 00
        E 140 99 46 65
        E 0 99 2a 39
        E 0 99 26 77
        E 208 99 2a 00
        E 148 99 46 00
        E 124 99 2a 28
        E 164 99 26 00
        E 80 99 2a 00
        E 236 99 46 67
        E 0 99 2a 3a
        E 0 99 24 7f
        E 220 99 2a 00
        E 52 99 46 00
        E 64 99 24 00
        E 144 99 52 67
        E 0 99 2a 27
        E 216 99 2a 00
        E 180 99 52 00
        E 84 99 2a 3e
        E 0 99 46 67
        E 0 99 24 7f
        E 32 99 2a 00
        E 280 99 46 00
        E 168 99 2a 30
        E 280 99 2a 00
        E 112 99 24 00
        E 88 99 46 5c
        E 0 99 2a 39
        E 228 99 46 00
        E 12 99 2a 00
        E 240 99 52 63
        E 0 99 2a 2c
        E 0 99 24 7d
        E 244 99 2a 00
        E 48 99 24 00
        E 168 99 52 00
        E 20 99 2a 40
        E 0 99 26 79
        E 0 99 46 56
        E 144 99 2a 00
        E 136 99 46 00
        E 200 99 2e 44
        E 128 99 26 00
        E 60 99 2e 00
        E 292 99 2a 3a
        E 0 99 46 63
        E 216 99 2a 00
        E 12 99 46 00
        E 252 99 24 7e
        E 0 99 52 63
        E 0 99 2a 27
        E 216 99 2a 00
        E 264 99 46 5c
        E 0 99 2a 3b
        E 4 99 2a 00
        E 32 99 52 00
        E 224 99 46 00
        E 56 99 24 00
        E 164 99 2a 2c
        E 236 99 2a 00
        E 244 99 46 5d
        E 0 99 24 7f
        E 0 99 2a 3c
        E 212 99 46 00
        E 16 99 2a 00
        E 252 99 52 67
        E 0 99 2a 2e
        E 72 99 24 00
        E 196 99 2a 00
        E 132 99 52 00
        E 80 99 2a 39
        E 0 99 26 7b
        E 0 99 46 51
        E 236 99 46 00
        E 12 99 2a 00
        E 232 99 52 5d
        E 0 99 24 7f
        E 0 99 2a 2f
        E 92 99 26 00
        E 172 99 2a 00
        E 96 99 24 00
        E 104 99 52 00
        E 16 99 46 5f
        E 0 99 2a 3c
        E 232 99 46 00
        E 24 99 2a 00
        E 224 99 2a 38
        E 0 99 24 7f
        E 0 99 52 53
        E 236 99 2a 00
        E 28 99 24 00
        E 184 99 52 00
        E 32 99 2a 44
        E 0 99 24 7e
        E 0 99 46 6b
        E 176 99 2a 00
        E 160 99 46 00
        E 144 99 2a 30
        E 280 99 2a 00
        E 172 99 24 00
        E 28 99 46 5d
        E 0 99 2a 39
        E 240 99 46 00
        E 0 99 2a 00
        E 240 99 52 65
        E 0 99 2a 2c
        E 0 99 24 7d
        E 244 99 2a 00
        E 100 99 24 00
        E 100 99 52 00
        E 36 99 26 77
        E 0 99 46 63
        E 0 99 2a 39
        E 208 99 2a 00
        E 116 99 46 00
        E 156 99 2a 28
        E 60 99 26 00
        E 184 99 2a 00
        E 236 99 24 7e
        E 0 99 46 63
        E 0 99 2a 3a
        E 220 99 46 00
        E 0 99 2a 00
        E 260 99 2a 27
        E 0 99 52 67
        E 216 99 2a 00
        E 264 99 52 00
        E 0 99 46 5d
        E 0 99 2a 3b
        E 204 99 24 00
        E 12 99 2a 00
        E 140 99 46 00
        E 124 99 2a 2c
        E 236 99 2a 00
        E 244 99 46 63
        E 0 99 24 7f
        E 0 99 2a 3c
        E 228 99 2a 00
        E 32 99 46 00
        E 140 99 24 00
        E 80 99 52 69
        E 0 99 2a 2e
        E 268 99 2a 00
        E 212 99 26 77
        E 0 99 2a 39
        E 0 99 46 53
        E 68 99 52 00
        E 180 99 2a 00
        E 36 99 46 00
        E 196 99 2a 2f
        E 164 99 26 00
        E 100 99 2a 00
        E 216 99 2a 3c
        E 0 99 46 63
        E 0 99 24 75
        E 244 99 46 00
        E 12 99 2a 00
        E 68 99 24 00
        E 156 99 52 61
        E 0 99 2a 38
        E 236 99 2a 00
        E 244 99 46 69
        E 0 99 24 7d
        E 0 99 2a 3b
        E 80 99 52 00
        E 136 99 2a 00
        E 92 99 46 00
        E 172 99 2a 2c
        E 236 99 2a 00
        E 200 99 24 00
        E 44 99 2a 3c
        E 0 99 46 61
        E 228 99 2a 00
        E 4 99 46 00
        E 248 99 2a 2e
        E 0 99 24 7d
        E 0 99 52 63
        E 268 99 2a 00
        E 4 99 24 00
        E 208 99 46 5d
        E 0 99 26 79
        E 0 99 2a 39
        E 184 99 52 00
        E 64 99 2a 00
        E 84 99 46 00
        E 148 99 2a 2f
        E 128 99 26 00
        E 136 99 2a 00
        E 216 99 46 61
        E 0 99 2a 3c
        E 256 99 46 00
        E 0 99 2a 00
        E 224 99 52 67
        E 0 99 24 7b
        E 0 99 2a 38
        E 236 99 2a 00
        E 244 99 46 61
        E 0 99 2a 44
        E 32 99 2a 00
        E 48 99 52 00
        E 180 99 46 00
        E 168 99 24 00
        E 52 99 2a 30
        E 280 99 2a 00
        E 200 99 2a 39
        E 0 99 46 63
        E 0 99 24 7f
        E 240 99 2a 00
        E 4 99 46 00
        E 208 99 24 00
        E 28 99 52 67
        E 0 99 2a 2c
        E 244 99 2a 00
        E 84 99 52 00
        E 152 99 46 63
        E 0 99 2a 40
        E 0 99 26 7b
        E 144 99 2a 00
        E 140 99 46 00
        E 196 99 2e 44
        E 0 99 24 7e
        E 92 99 26 00
        E 96 99 2e 00
        E 188 99 24 00
        E 104 99 2a 3a
        E 0 99 46 6d
        E 216 99 2a 00
        E 28 99 46 00
        E 236 99 24 79
        E 0 99 52 6b
        E 0 99 2a 27
        E 192 99 24 00
        E 24 99 2a 00
        E 104 99 52 00
        E 160 99 2a 44
        E 0 99 46 63
        E 0 99 24 7e
        E 176 99 2a 00
        E 196 99 46 00
        E 108 99 2a 30
        E 168 99 24 00
        E 112 99 2a 00
        E 200 99 46 63
        E 0 99 2a 39
        E 232 99 46 00
        E 8 99 2a 00
        E 240 99 24 7d
        E 0 99 52 57
        E 0 99 2a 2c
        E 244 99 2a 00
        E 48 99 24 00
        E 168 99 52 00
        E 20 99 2a 39
        E 0 99 46 69
        E 0 99 26 77
        E 208 99 2a 00
        E 112 99 46 00
        E 160 99 2a 28
        E 60 99 26 00
        E 184 99 2a 00
        E 236 99 2a 3a
        E 0 99 24 7e
        E 0 99 46 63
        E 220 99 2a 00
        E 20 99 46 00
        E 240 99 2a 27
        E 0 99 52 71
        E 216 99 2a 00
        E 132 99 52 00
        E 132 99 46 61
        E 0 99 2a 44
        E 176 99 2a 00
        E 40 99 24 00
        E 84 99 46 00
        E 180 99 2a 30
        E 280 99 2a 00
        E 200 99 2a 39
        E 0 99 46 61
        E 0 99 24 7f
        E 240 99 2a 00
        E 12 99 46 00
        E 228 99 2a 2c
        E 0 99 52 67
        E 244 99 2a 00
        E 88 99 24 00
        E 108 99 52 00
        E 40 99 46 63
        E 0 99 26 77
        E 0 99 2a 39
        E 208 99 2a 00
        E 80 99 46 00
        E 192 99 2a 28
        E 164 99 26 00
        E 80 99 2a 00
        E 236 99 24 7f
        E 0 99 46 5d
        E 0 99 2a 3a
        E 220 99 2a 00
        E 12 99 46 00
        E 104 99 24 00
        E 144 99 2a 27
        E 0 99 52 6b
        E 216 99 2a 00
        E 264 99 24 7f
        E 0 99 2a 44
        E 0 99 46 53
        E 0 99 2a 3e
        E 28 99 52 00
        E 4 99 2a 00
        E 0 99 2a 00
        E 260 99 46 00
        E 188 99 2a 30
        E 280 99 2a 00
        E 112 99 24 00
        E 88 99 46 53
        E 0 99 2a 39
        E 240 99 2a 00
        E 16 99 46 00
        E 224 99 52 73
        E 0 99 24 7d
        E 0 99 2a 2c
        E 244 99 2a 00
        E 48 99 24 00
        E 152 99 52 00
        E 36 99 46 5c
        E 0 99 2a 40
        E 0 99 26 79
        E 144 99 2a 00
        E 168 99 46 00
        E 168 99 2e 44
        E 128 99 26 00
        E 60 99 2e 00
        E 292 99 2a 3a
        E 0 99 46 67
        E 0 99 2a 45
        E 216 99 2a 00
        E 0 99 2a 00
        E 60 99 46 00
        E 204 99 2a 27
        E 0 99 24 7e
        E 0 99 52 71
        E 216 99 2a 00
        E 188 99 52 00
        E 76 99 46 69
        E 0 99 2a 3b
        E 4 99 2a 00
        E 312 99 24 00
        E 8 99 46 00
        E 156 99 2a 2c
        E 236 99 2a 00
        E 244 99 2a 3c
        E 0 99 46 69
        E 0 99 24 7f
        E 228 99 2a 00
        E 28 99 46 00
        E 224 99 2a 2e
        E 0 99 52 73
        E 72 99 24 00
        E 196 99 2a 00
        E 120 99 52 00
        E 92 99 46 5d
        E 0 99 2a 39
        E 0 99 26 7b
        E 248 99 2a 00
        E 56 99 46 00
        E 176 99 2a 2f
        E 0 99 24 7f
        E 92 99 26 00
        E 172 99 2a 00
        E 96 99 24 00
        E 120 99 46 67
        E 0 99 2a 3c
        E 212 99 46 00
        E 44 99 2a 00
        E 224 99 2a 38
        E 0 99 24 7f
        E 236 99 2a 00
        E 28 99 24 00
        E 216 99 2a 44
        E 0 99 24 77
        E 176 99 2a 00
        E 304 99 2a 30
        E 168 99 24 00
        E 112 99 2a 00
        E 200 99 26 7f
        E 0 99 2a 39
        E 240 99 2a 00
        E 240 99 24 75
        E 0 99 2a 2c
        E 116 99 26 00
        E 128 99 2a 00
        E 236 99 2a 39
        E 208 99 2a 00
        E 272 99 2a 28
        E 244 99 2a 00
        E 56 99 24 00
        E 180 99 2a 3a
        E 0 99 26 7f
        E 220 99 2a 00
        E 260 99 2a 27
        E 16 99 26 00
        E 200 99 2a 00
        E 264 99 24 79
        E 0 99 2a 3b
        E 216 99 2a 00
        E 264 99 2a 2c
        E 236 99 2a 00
        E 124 99 24 00
        E 120 99 2a 3c
        E 0 99 26 7f
        E 228 99 2a 00
        E 252 99 2a 2e
        E 68 99 26 00
        E 200 99 2a 00
        E 212 99 24 7b
        E 0 99 2a 39
        E 200 99 24 00
        E 48 99 2a 00
        E 232 99 24 73
        E 0 99 2a 2f
        E 248 99 24 00
        E 16 99 2a 00
        E 216 99 26 7f
        E 0 99 2a 3c
        E 256 99 2a 00
        E 224 99 26 00
        E 0 99 2a 38
        E 236 99 2a 00
        E 244 99 24 77
        E 0 99 2a 3e
        E 32 99 2a 00
        E 432 99 24 00
        E 16 99 2a 30
        E 280 99 2a 00
        E 200 99 2a 39
        E 0 99 26 7e
        E 240 99 2a 00
        E 240 99 24 77
        E 0 99 2a 2c
        E 24 99 26 00
        E 220 99 2a 00
        E 236 99 2a 40
        E 144 99 2a 00
        E 84 99 24 00
        E 252 99 2e 44
        E 188 99 2e 00
        E 292 99 2a 3a
        E 0 99 26 7f
        E 0 99 2a 45
        E 216 99 2a 00
        E 0 99 2a 00
        E 264 99 2a 27
        E 20 99 26 00
        E 196 99 2a 00
        E 264 99 2a 3b
        E 0 99 24 7b
        E 4 99 2a 00
        E 476 99 2a 2c
        E 236 99 2a 00
        E 116 99 24 00
        E 128 99 2a 3c
        E 0 99 26 7f
        E 228 99 2a 00
        E 252 99 26 00
        E 0 99 24 7d
        E 0 99 2a 2e
        E 184 99 24 00
        E 84 99 2a 00
        E 212 99 24 79
        E 0 99 2a 39
        E 248 99 2a 00
        E 232 99 2a 2f
        E 32 99 24 00
        E 232 99 2a 00
        E 216 99 2a 3c
        E 0 99 26 7f
        E 256 99 2a 00
        E 168 99 26 00
        E 56 99 2a 38
        E 236 99 2a 00
        E 244 99 24 77
        E 0 99 2a 44
        E 176 99 2a 00
        E 304 99 2a 30
        E 168 99 24 00
        E 112 99 2a 00
        E 200 99 26 7f
        E 0 99 2a 39
        E 240 99 2a 00
        E 204 99 26 00
        E 36 99 2a 2c
        E 0 99 24 75
        E 244 99 2a 00
        E 236 99 2a 39
        E 208 99 2a 00
        E 272 99 2a 28
        E 244 99 2a 00
        E 56 99 24 00
        E 180 99 2a 3a
        E 0 99 26 7f
        E 220 99 2a 00
        E 192 99 26 00
        E 68 99 2a 27
        E 216 99 2a 00
        E 264 99 24 79
        E 0 99 2a 44
        E 176 99 2a 00
        E 304 99 2a 30
        E 280 99 2a 00
        E 80 99 24 00
        E 120 99 26 7e
        E 0 99 2a 39
        E 240 99 2a 00
        E 160 99 26 00
        E 80 99 2a 2c
        E 244 99 2a 00
        E 236 99 2a 39
        E 0 99 24 7b
        E 200 99 24 00
        E 8 99 2a 00
        E 272 99 24 73
        E 0 99 2a 28
        E 244 99 2a 00
        E 4 99 24 00
        E 232 99 2a 3a
        E 0 99 26 7e
        E 220 99 2a 00
        E 204 99 26 00
        E 56 99 2a 27
        E 216 99 2a 00
        E 264 99 2a 3e
        E 0 99 24 77
        E 0 99 2a 44
        E 32 99 2a 00
        E 0 99 2a 00
        E 432 99 24 00
        E 16 99 2a 30
        E 280 99 2a 00
        E 200 99 26 7f
        E 0 99 2a 39
        E 240 99 2a 00
        E 240 99 2a 2c
        E 0 99 24 77
        E 24 99 26 00
        E 220 99 2a 00
        E 236 99 2a 40
        E 144 99 2a 00
        E 84 99 24 00
        E 252 99 2e 44
        E 188 99 2e 00
        E 292 99 2a 45
        E 0 99 26 7e
        E 216 99 2a 00
        E 264 99 26 00
        E 0 99 2a 27
        E 216 99 2a 00
        E 264 99 24 7b
        E 0 99 2a 3b
        E 4 99 2a 00
        E 476 99 2a 2c
        E 0 99 2f 7f
        E 236 99 2a 00
        E 8 99 2f 00
        E 108 99 24 00
        E 128 99 26 7b
        E 0 99 2a 3c
        E 228 99 2a 00
        E 252 99 2a 2e
        E 0 99 24 7d
        E 184 99 24 00
        E 84 99 2a 00
        E 4 99 26 00
        E 208 99 2a 39
        E 0 99 24 79
        E 248 99 2a 00
        E 232 99 2a 2f
        E 0 99 26 7b
        E 32 99 24 00
        E 124 99 26 00
        E 108 99 2a 00
        E 216 99 26 7d
        E 0 99 2a 3c
        E 256 99 2a 00
        E 100 99 26 00
        E 124 99 2a 38
        E 236 99 2a 00
        E 244 99 24 77
        E 0 99 2a 44
        E 176 99 2a 00
        E 304 99 2a 30
        E 168 99 24 00
        E 112 99 2a 00
        E 200 99 2a 39
        E 0 99 26 7f
        E 240 99 2a 00
        E 240 99 24 75
        E 0 99 2a 2c
        E 48 99 26 00
        E 196 99 2a 00
        E 236 99 2a 39
        E 208 99 2a 00
        E 272 99 2a 28
        E 244 99 2a 00
        E 56 99 24 00
        E 180 99 26 7e
        E 0 99 2a 3a
        E 220 99 2a 00
        E 260 99 2a 27
        E 216 99 2a 00
        E 28 99 26 00
        E 236 99 2a 3b
        E 0 99 24 79
        E 216 99 2a 00
        E 264 99 2a 2c
        E 236 99 2a 00
        E 124 99 24 00
        E 120 99 26 7d
        E 0 99 2a 3c
        E 228 99 2a 00
        E 252 99 2a 2e
        E 196 99 26 00
        E 72 99 2a 00
        E 212 99 24 7b
        E 0 99 2a 39
        E 200 99 24 00
        E 48 99 2a 00
        E 232 99 24 73
        E 0 99 2a 2f
        E 248 99 24 00
        E 16 99 2a 00
        E 216 99 26 7d
        E 0 99 2a 3c
        E 256 99 2a 00
        E 224 99 2a 38
        E 20 99 26 00
        E 216 99 2a 00
        E 244 99 2a 44
        E 0 99 24 77
        E 32 99 2a 00
        E 432 99 24 00
        E 16 99 2a 30
        E 280 99 2a 00
        E 200 99 2a 39
        E 0 99 26 7f
        E 240 99 2a 00
        E 240 99 24 77
        E 0 99 2a 2c
        E 148 99 26 00
        E 96 99 2a 00
        E 236 99 2a 40
        E 144 99 2a 00
        E 84 99 24 00
        E 252 99 2e 44
        E 188 99 2e 00
        E 292 99 2a 45
        E 0 99 26 7e
        E 216 99 2a 00
        E 264 99 2a 27
        E 128 99 26 00
        E 88 99 2a 00
        E 264 99 2a 3b
        E 0 99 24 7b
        E 4 99 2a 00
        E 476 99 2a 2c
        E 236 99 2a 00
        E 116 99 24 00
        E 128 99 2a 3c
        E 0 99 26 7e
        E 228 99 2a 00
        E 252 99 2a 2e
        E 0 99 24 7d
        E 164 99 26 00
        E 20 99 24 00
        E 84 99 2a 00
        E 212 99 24 79
        E 0 99 2a 39
        E 248 99 2a 00
        E 232 99 26 79
        E 0 99 2a 2f
        E 32 99 24 00
        E 132 99 26 00
        E 100 99 2a 00
        E 216 99 2a 3c
        E 0 99 26 7e
        E 256 99 2a 00
        E 192 99 26 00
        E 32 99 2a 38
        E 236 99 2a 00
        E 244 99 24 77
        E 0 99 2a 3e
        E 32 99 2a 00
        E 448 99 2a 30
        E 168 99 24 00
        E 112 99 2a 00
        E 200 99 2a 39
        E 0 99 26 7e
        E 240 99 2a 00
        E 240 99 2a 2c
        E 0 99 24 75
        E 108 99 26 00
        E 136 99 2a 00
        E 236 99 2a 39
        E 208 99 2a 00
        E 272 99 2a 28
        E 244 99 2a 00
        E 56 99 24 00
        E 180 99 26 7d
        E 0 99 2a 3a
        E 220 99 2a 00
        E 240 99 26 00
        E 20 99 2a 27
        E 216 99 2a 00
        E 264 99 24 79
        E 0 99 2a 3b
        E 216 99 2a 00
        E 264 99 2a 2c
        E 236 99 2a 00
        E 124 99 24 00
        E 120 99 2a 3c
        E 0 99 26 7d
        E 228 99 2a 00
        E 252 99 2a 2e
        E 184 99 26 00
        E 84 99 2a 00
        E 212 99 2a 39
        E 0 99 24 7b
        E 200 99 24 00
        E 48 99 2a 00
        E 232 99 2a 2f
        E 0 99 24 73
        E 248 99 24 00
        E 16 99 2a 00
        E 216 99 2a 3c
        E 0 99 26 7f
        E 256 99 2a 00
        E 224 99 2a 38
        E 20 99 26 00
        E 216 99 2a 00
        E 244 99 2a 44
        E 0 99 24 77
        E 0 99 2a 3e
        E 32 99 2a 00
        E 0 99 2a 00
        E 432 99 24 00
        E 16 99 2a 30
        E 280 99 2a 00
        E 200 99 2a 39
        E 0 99 26 7f
        E 240 99 2a 00
        E 240 99 24 77
        E 0 99 2a 2c
        E 164 99 26 00
        E 80 99 2a 00
        E 236 99 2a 39
        E 208 99 2a 00
        E 20 99 24 00
        E 252 99 2a 28
        E 0 99 2f 7f
        E 244 99 2a 00
        E 12 99 2f 00
        E 224 99 2a 3a
        E 0 99 26 7e
        E 220 99 2a 00
        E 260 99 2a 27
        E 216 99 2a 00
        E 124 99 26 00
        E 140 99 24 7b
        E 0 99 2a 3b
        E 216 99 2a 00
        E 264 99 2a 2c
        E 0 99 2d 7f
        E 236 99 2a 00
        E 32 99 2d 00
        E 84 99 24 00
        E 128 99 26 7f
        E 0 99 2a 3c
        E 228 99 2a 00
        E 92 99 26 00
        E 160 99 2a 2e
        E 0 99 24 7d
        E 184 99 24 00
        E 84 99 2a 00
        E 212 99 24 79
        E 0 99 2a 39
        E 0 99 2d 7f
        E 248 99 2a 00
        E 48 99 2d 00
        E 184 99 2a 2f
        E 0 99 26 7e
        E 32 99 24 00
        E 148 99 26 00
        E 84 99 2a 00
        E 216 99 26 7d
        E 0 99 2a 3c
        E 172 99 26 00
        E 84 99 2a 00
        E 224 99 26 7f
        E 0 99 2a 38
        E 236 99 2a 00
        E 24 99 26 00
        E 220 99 24 79
        E 0 99 38 77
        E 0 99 2c 7f
        E 164 99 2c 00
        E 56 99 24 00
        E 120 99 38 00
        E 140 99 24 73
        E 228 99 24 00
        E 252 99 2c 7f
        E 0 99 36 65
        E 0 99 26 7e
        E 180 99 36 00
        E 60 99 2c 00
        E 240 99 36 67
        E 168 99 26 00
        E 0 99 36 00
        E 312 99 38 75
        E 0 99 2c 7f
        E 0 99 24 79
        E 232 99 2c 00
        E 56 99 38 00
        E 28 99 24 00
        E 644 99 2c 7f
        E 0 99 26 7b
        E 0 99 36 6b
        E 192 99 36 00
        E 20 99 2c 00
        E 268 99 36 5f
        E 180 99 36 00
        E 96 99 26 00
        E 204 99 2c 7f
        E 0 99 24 75
        E 0 99 38 77
        E 216 99 2c 00
        E 120 99 38 00
        E 8 99 24 00
        E 616 99 2c 7f
        E 0 99 26 7d
        E 0 99 36 65
        E 172 99 36 00
        E 60 99 2c 00
        E 236 99 26 00
        E 12 99 24 77
        E 0 99 36 5f
        E 164 99 36 00
        E 132 99 24 00
        E 184 99 2c 7f
        E 0 99 38 77
        E 208 99 2c 00
        E 72 99 38 00
        E 200 99 24 75
        E 332 99 24 00
        E 148 99 26 7e
        E 0 99 36 6d
        E 0 99 2c 7f
        E 184 99 36 00
        E 48 99 2c 00
        E 248 99 36 61
        E 180 99 36 00
        E 212 99 26 00
        E 88 99 38 77
        E 0 99 2c 7f
        E 0 99 24 79
        E 220 99 2c 00
        E 0 99 24 00
        E 88 99 38 00
        E 172 99 24 73
        E 228 99 24 00
        E 252 99 36 63
        E 0 99 26 7d
        E 0 99 2c 7f
        E 160 99 36 00
        E 36 99 2c 00
        E 284 99 36 65
        E 156 99 36 00
        E 112 99 26 00
        E 212 99 38 75
        E 0 99 24 79
        E 0 99 2c 7f
        E 200 99 2c 00
        E 48 99 38 00
        E 68 99 24 00
        E 644 99 2c 7f
        E 0 99 36 63
        E 0 99 26 79
        E 168 99 36 00
        E 48 99 2c 00
        E 264 99 36 67
        E 200 99 36 00
        E 32 99 26 00
        E 248 99 2c 7f
        E 0 99 24 75
        E 0 99 38 77
        E 220 99 2c 00
        E 0 99 38 00
        E 124 99 24 00
        E 616 99 26 7d
        E 0 99 36 6b
        E 0 99 2c 7f
        E 196 99 36 00
        E 36 99 2c 00
        E 160 99 26 00
        E 88 99 36 5f
        E 0 99 24 77
        E 196 99 36 00
        E 100 99 24 00
        E 184 99 2c 7f
        E 0 99 38 6f
        E 220 99 2c 00
        E 120 99 38 00
        E 140 99 24 75
        E 332 99 24 00
        E 148 99 2c 7f
        E 0 99 36 63
        E 0 99 26 7f
        E 160 99 36 00
        E 92 99 2c 00
        E 228 99 36 61
        E 148 99 26 00
        E 24 99 36 00
        E 308 99 24 79
        E 0 99 2c 7f
        E 0 99 38 73
        E 220 99 24 00
        E 8 99 2c 00
        E 68 99 38 00
        E 184 99 24 73
        E 228 99 24 00
        E 252 99 26 79
        E 0 99 36 65
        E 0 99 2c 7f
        E 172 99 36 00
        E 44 99 2c 00
        E 264 99 36 5f
        E 168 99 26 00
        E 12 99 36 00
        E 300 99 24 79
        E 0 99 2c 7f
        E 0 99 38 75
        E 212 99 2c 00
        E 104 99 24 00
        E 0 99 38 00
        E 644 99 2c 7f
        E 0 99 36 71
        E 0 99 26 7d
        E 192 99 2c 00
        E 8 99 36 00
        E 280 99 36 63
        E 68 99 26 00
        E 108 99 36 00
        E 304 99 2c 7e
        E 0 99 24 75
        E 0 99 38 79
        E 176 99 2c 00
        E 104 99 38 00
        E 64 99 24 00
        E 616 99 26 7b
        E 0 99 2c 7e
        E 0 99 36 6b
        E 132 99 2c 00
        E 28 99 36 00
        E 304 99 26 00
        E 16 99 24 77
        E 0 99 51 53
        E 60 99 51 00
        E 236 99 24 00
        E 184 99 2c 7e
        E 0 99 51 5a
        E 144 99 2c 00
        E 32 99 51 00
        E 304 99 24 75
        E 0 99 50 5d
        E 140 99 50 00
        E 192 99 24 00
        E 148 99 26 7f
        E 0 99 2c 7f
        E 0 99 51 48
        E 120 99 51 00
        E 40 99 2c 00
        E 320 99 51 56
        E 156 99 51 00
        E 112 99 26 00
        E 212 99 24 79
        E 0 99 51 61
        E 0 99 2c 7f
        E 152 99 51 00
        E 4 99 2c 00
        E 64 99 24 00
        E 260 99 50 5a
        E 0 99 24 73
        E 156 99 50 00
        E 72 99 24 00
        E 252 99 51 42
        E 0 99 2c 7f
        E 0 99 26 7e
        E 104 99 51 00
        E 44 99 2c 00
        E 332 99 51 55
        E 40 99 26 00
        E 136 99 51 00
        E 304 99 24 79
        E 0 99 2c 7e
        E 0 99 51 65
        E 140 99 2c 00
        E 48 99 51 00
        E 128 99 24 00
        E 136 99 4e 71
        E 28 99 50 56
        E 120 99 50 00
        E 104 99 4e 00
        E 256 99 2c 7e
        E 0 99 51 46
        E 0 99 26 7d
        E 144 99 2c 00
        E 0 99 51 00
        E 300 99 4e 6d
        E 36 99 51 4b
        E 132 99 26 00
        E 12 99 51 00
        E 4 99 4e 00
        E 332 99 51 5c
        E 0 99 2c 7f
        E 0 99 4e 7b
        E 0 99 24 75
        E 164 99 2c 00
        E 24 99 51 00
        E 156 99 24 00
        E 72 99 4e 00
        E 64 99 50 59
        E 128 99 50 00
        E 340 99 4f 65
        E 12 99 2c 7e
        E 0 99 51 4c
        E 0 99 26 7f
        E 156 99 4f 00
        E 16 99 51 00
        E 4 99 2c 00
        E 236 99 26 00
        E 68 99 24 77
        E 0 99 51 56
        E 28 99 4f 6d
        E 136 99 51 00
        E 80 99 4f 00
        E 52 99 24 00
        E 184 99 51 61
        E 0 99 2c 7d
        e 0 99 26 7f
        E 76 99 4e 77
        E 92 99 2c 00
        E 16 99 51 00
        E 216 99 4e 00
        e 80 89 26 00
        E 0 99 50 65
        E 140 99 50 00
        E 340 99 26 7f
        E 0 99 51 53
        E 0 99 2c 7d
        E 128 99 51 00
        E 36 99 2c 00
        E 316 99 51 63
        E 76 99 26 00
        E 76 99 51 00
        E 328 99 38 6d
        E 0 99 24 79
        E 0 99 2c 7d
        E 180 99 2c 00
        E 40 99 24 00
        E 104 99 38 00
        E 156 99 24 73
        E 228 99 24 00
        E 252 99 2c 7d
        E 0 99 26 7d
        E 0 99 36 7f
        E 172 99 2c 00
        E 52 99 36 00
        E 256 99 38 6f
        E 108 99 26 00
        E 72 99 38 00
        E 300 99 24 79
        E 0 99 2c 7e
        E 0 99 38 6f
        E 172 99 2c 00
        E 48 99 38 00
        E 96 99 24 00
        E 644 99 26 7d
        E 0 99 2c 7e
        E 0 99 36 7f
        E 168 99 2c 00
        E 92 99 36 00
        E 220 99 38 71
        E 88 99 26 00
        E 120 99 38 00
        E 272 99 38 5f
        E 0 99 24 75
        E 0 99 2c 7b
        E 156 99 2c 00
        E 112 99 38 00
        E 76 99 24 00
        E 616 99 26 7e
        E 0 99 36 7d
        E 0 99 2c 79
        E 208 99 2c 00
        E 20 99 36 00
        E 208 99 26 00
        E 44 99 38 75
        E 0 99 24 77
        E 172 99 38 00
        E 124 99 24 00
        E 184 99 38 69
        E 0 99 2c 6f
        E 148 99 2c 00
        E 88 99 38 00
        E 244 99 2e 7d
        E 0 99 24 75
        E 240 99 2e 00
        E 92 99 24 00
        E 148 99 36 79
        E 0 99 2c 6b
        E 0 99 26 7e
        E 208 99 2c 00
        E 28 99 36 00
        E 244 99 38 75
        E 148 99 26 00
        E 16 99 38 00
        E 316 99 24 79
        E 0 99 38 65
        E 0 99 2c 7f
        E 184 99 2c 00
        E 36 99 24 00
        E 112 99 38 00
        E 148 99 24 73
        E 228 99 24 00
        E 252 99 2c 7e
        E 0 99 26 7e
        E 0 99 36 77
        E 200 99 2c 00
        E 28 99 36 00
        E 252 99 38 71
        E 20 99 26 00
        E 136 99 38 00
        E 324 99 38 63
        E 0 99 2c 7e
        E 0 99 24 79
        E 204 99 2c 00
        E 16 99 38 00
        E 96 99 24 00
        E 644 99 26 7b
        E 0 99 36 77
        E 0 99 2c 7e
        E 216 99 2c 00
        E 16 99 36 00
        E 228 99 26 00
        E 20 99 38 6d
        E 144 99 38 00
        E 336 99 24 75
        E 0 99 38 5d
        E 0 99 2c 7e
        E 224 99 2c 00
        E 68 99 38 00
        E 52 99 24 00
        E 136 99 32 7d
        E 216 99 32 00
        E 264 99 30 77
        E 0 99 26 7d
        E 0 99 36 71
        E 0 99 2c 7d
        E 224 99 36 00
        E 8 99 2c 00
        E 4 99 30 00
        E 108 99 26 00
        E 136 99 38 77
        E 0 99 2f 7b
        E 0 99 24 77
        E 160 99 38 00
        E 56 99 2f 00
        E 80 99 24 00
        E 184 99 38 79
        E 0 99 2d 75
        E 0 99 2c 7d
        E 212 99 2c 00
        E 28 99 2d 00
        E 44 99 38 00
        E 196 99 24 75
        E 0 99 2b 7f
        E 260 99 2b 00
        E 72 99 24 00
        E 148 99 26 7e
        E 0 99 36 6f
        E 0 99 2b 7b
        E 0 99 2c 61
        E 116 99 2c 00
        E 104 99 36 00
        E 28 99 2b 00
        E 220 99 26 00
        E 12 99 38 77
        E 0 99 2b 65
        E 0 99 2e 7e
        E 156 99 38 00
        E 16 99 2b 00
        E 76 99 2e 00
        E 232 99 2c 73
        E 0 99 44 79
        E 0 99 24 79
        E 184 99 44 00
        E 36 99 24 00
        E 8 99 2c 00
        E 252 99 24 73
        E 0 99 44 7d
        E 208 99 44 00
        E 20 99 24 00
        E 252 99 2c 7f
        E 0 99 26 7d
        E 244 99 2c 00
        E 192 99 26 00
        E 44 99 44 6f
        E 204 99 44 00
        E 276 99 24 79
        E 0 99 2c 7f
        E 0 99 43 5f
        E 212 99 43 00
        E 24 99 2c 00
        E 80 99 24 00
        E 644 99 2c 7f
        E 0 99 26 7d
        E 0 99 44 75
        E 232 99 2c 00
        E 240 99 26 00
        E 52 99 44 00
        E 436 99 2c 7e
        E 0 99 24 75
        E 224 99 2c 00
        E 120 99 24 00
        E 136 99 44 6d
        E 204 99 44 00
        E 276 99 26 7b
        E 0 99 2c 7e
        E 224 99 2c 00
        E 104 99 26 00
        E 152 99 24 77
        E 0 99 44 6f
        E 204 99 44 00
        E 92 99 24 00
        E 184 99 2c 7e
        E 0 99 43 61
        E 212 99 2c 00
        E 96 99 43 00
        E 172 99 24 75
        E 332 99 24 00
        E 148 99 44 73
        E 0 99 26 7b
        E 0 99 2c 7f
        E 188 99 2c 00
        E 144 99 26 00
        E 552 99 44 00
        E 76 99 2c 7f
        E 0 99 24 79
        E 208 99 2c 00
        E 12 99 24 00
        E 260 99 24 73
        E 0 99 44 75
        E 228 99 24 00
        E 16 99 44 00
        E 236 99 26 7d
        E 0 99 2c 7b
        E 232 99 2c 00
        E 180 99 26 00
        E 68 99 44 6b
        E 192 99 44 00
        E 288 99 24 79
        E 0 99 43 67
        E 0 99 2c 79
        E 220 99 2c 00
        E 80 99 43 00
        E 16 99 24 00
        E 644 99 43 67
        E 0 99 2c 7f
        E 0 99 26 79
        E 220 99 2c 00
        E 16 99 43 00
        E 148 99 26 00
        E 96 99 44 77
        E 264 99 44 00
        E 216 99 2c 79
        E 184 99 2c 00
        E 296 99 44 77
        E 0 99 2e 7b
        E 0 99 24 71
        E 204 99 44 00
        E 20 99 2e 00
        E 152 99 24 00
        E 104 99 26 7f
        E 0 99 2c 50
        E 0 99 32 79
        E 0 99 43 65
        E 216 99 2c 00
        E 24 99 30 6d
        E 36 99 43 00
        E 32 99 32 00
        E 172 99 2f 6f
        E 132 99 30 00
        E 16 99 26 00
        E 84 99 2f 00
        E 248 99 43 6f
        E 0 99 2c 73
        E 0 99 24 7e
        E 172 99 2c 00
        E 64 99 43 00
        E 216 99 24 00
        E 28 99 2e 7b
        E 0 99 2f 73
        E 0 99 44 79
        E 0 99 26 7f
        E 212 99 2e 00
        E 28 99 2d 75
        E 4 99 44 00
        E 4 99 2f 00
        E 232 99 26 00
        E 0 99 2c 7d
        E 0 99 2b 59
        E 108 99 2d 00
        E 92 99 2b 00
        E 16 99 2c 00
        E 264 99 44 7b
        E 184 99 44 00
        E 296 99 26 7f
        E 0 99 3a 79
        E 0 99 24 7f
        E 0 99 2c 7f
        E 0 99 29 7f
        E 4 b9 5b 00
        E 248 99 2c 00
        E 260 99 24 00
        E 48 99 29 00
        E 44 99 26 00
        E 36 99 3a 00
        E 3200 b0 7b 00
        CCINTERP 32
        CHASE_CC_TAKEOFFS 1
        GUID {EC73EB35-C311-4E98-9DE0-8D26F1C75E69}
        IGNTEMPO 0 120 4 4
        SRCCOLOR 41
        VELLANE -1 100 0
        CFGEDITVIEW 297476.770854 0.121037 65 12 0 -1 0 0 0 0.5
        KEYSNAP 0
        TRACKSEL 0
        EVTFILTER 0 -1 -1 -1 -1 0 0 0 0 -1 -1 -1 -1 0 -1 0 -1 -1
        CFGEDIT 1 1 0 1 0 0 1 1 1 1 1 0.125 283 201 1642 1048 0 0 0 0 0 0 0 0 0 0.5 0 0 1 64
      >
    >
  >
  <TRACK {70A025AD-B8ED-4A36-9A01-75682BC22D1B}
    NAME "Track 2"
    PEAKCOL 16576
    BEAT -1
    AUTOMODE 0
    VOLPAN 0.14324788521511 0 -1 -1 1
    MUTESOLO 0 0 0
    IPHASE 0
    PLAYOFFS 0 1
    ISBUS 0 0
    BUSCOMP 0 0 0 0 0
    SHOWINMIX 1 0.6667 0.5 1 0.5 0 0 0
    SEL 0
    REC 0 0 1 0 0 0 0 0
    VU 2
    TRACKHEIGHT 0 0 0 0 0 0
    INQ 0 0 0 0.5 100 0 0 100
    NCHAN 2
    FX 1
    TRACKID {70A025AD-B8ED-4A36-9A01-75682BC22D1B}
    PERF 0
    MIDIOUT 43
    MAINSEND 1 0
    <ITEM
      POSITION 10.971424
      SNAPOFFS 0
      LENGTH 10.971424
      LOOP 1
      ALLTAKES 0
      FADEIN 1 0 0 1 0 0 0
      FADEOUT 1 0 0 1 0 0 0
      MUTE 0 0
      SEL 0
      IGUID {8ABBD0E4-9A72-4C2A-8DBA-30B8002A1FB8}
      IID 13
      NAME "Track 2 - e1m1-2.mid"
      VOLPAN 1 0 1 -1
      SOFFS 0 0
      PLAYRATE 1 1 0 -1 0 0.0025
      CHANMODE 0
      GUID {2B336CB5-02EA-4164-B6FF-FDAEE30A0DFD}
      <SOURCE MIDI
        HASDATA 1 96 QN
        CCINTERP 32
        POOLEDEVTS {019CCAB7-F3C9-4064-AB61-2C873C0F69FD}
        E 0 b0 00 00
        E 0 b0 20 00
        E 0 c0 5a 00
        E 0 b0 07 46
        E 0 b0 0a 6d
        E 0 90 54 71
        E 13 80 54 6c
        E 36 90 54 77
        E 23 80 54 72
        E 25 90 60 77
        E 47 80 60 72
        E 0 90 54 73
        E 15 80 54 6e
        E 33 90 54 73
        E 24 80 54 6f
        E 26 90 5e 74
        E 44 80 5e 6f
        E 5 90 54 6d
        E 15 80 54 68
        E 33 90 54 74
        E 15 80 54 74
        E 32 90 5b 79
        E 45 80 5b 74
        E 3 90 54 71
        E 15 80 54 6c
        E 33 90 54 73
        E 21 80 54 6e
        E 26 90 59 73
        E 45 80 59 6e
        E 3 90 54 73
        E 20 80 54 6e
        E 28 90 54 74
        E 23 80 54 75
        E 24 90 5b 73
        E 48 80 5b 6e
        E 0 90 5e 7a
        E 43 80 5e 75
        E 7 90 54 74
        E 8 80 54 6f
        E 38 90 54 74
        E 24 80 54 72
        E 27 90 60 77
        E 42 80 60 72
        E 5 90 54 6f
        E 15 80 54 6a
        E 33 90 54 71
        E 22 80 54 6a
        E 26 90 5e 6f
        E 47 80 5e 6a
        E 0 90 54 77
        E 15 80 54 72
        E 33 90 54 6f
        E 23 80 54 75
        E 25 90 5b 7a
        E 40 80 5b 75
        E 7 90 54 74
        E 18 80 54 6f
        E 30 90 54 77
        E 24 80 54 72
        E 24 90 59 77
        E 240 b0 0a 6d
        E 0 80 59 00
        E 0 90 54 71
        E 13 80 54 6c
        E 36 90 54 77
        E 23 80 54 72
        E 25 90 60 77
        E 47 80 60 72
        E 0 90 54 73
        E 15 80 54 6e
        E 33 90 54 73
        E 24 80 54 6f
        E 26 90 5e 74
        E 44 80 5e 6f
        E 5 90 54 6d
        E 15 80 54 68
        E 33 90 54 74
        E 15 80 54 74
        E 32 90 5b 79
        E 45 80 5b 74
        E 3 90 54 71
        E 15 80 54 6c
        E 33 90 54 73
        E 21 80 54 6e
        E 26 90 59 73
        E 45 80 59 6e
        E 3 90 54 73
        E 20 80 54 6e
        E 28 90 54 74
        E 23 80 54 75
        E 24 90 5b 73
        E 48 80 5b 6e
        E 0 90 5e 7a
        E 43 80 5e 75
        E 7 90 54 74
        E 8 80 54 6f
        E 38 90 54 74
        E 24 80 54 72
        E 27 90 60 77
        E 42 80 60 72
        E 5 90 54 6f
        E 15 80 54 6a
        E 33 90 54 71
        E 22 80 54 6a
        E 26 90 5e 6f
        E 47 80 5e 6a
        E 0 90 54 77
        E 15 80 54 72
        E 33 90 54 6f
        E 23 80 54 75
        E 24 90 5b 75
        E 12 80 5b 70
        E 10 90 59 6e
        E 12 80 59 69
        E 14 90 56 75
        E 12 80 56 70
        E 12 90 59 6c
        E 11 80 59 67
        E 13 90 5b 74
        E 14 80 5b 6f
        E 12 90 59 6b
        E 10 80 59 66
        E 12 90 56 76
        E 14 80 56 71
        E 10 90 54 6c
        E 12 80 54 67
        E 14 90 56 74
        E 11 80 56 6f
        E 11 90 59 6a
        E 13 80 59 65
        E 13 90 5b 75
        E 11 80 5b 70
        E 11 90 5e 6c
        E 14 80 5e 67
        E 13 90 59 73
        E 10 80 59 6e
        E 11 90 56 69
        E 12 80 56 64
        E 13 90 54 76
        E 11 80 54 71
        E 12 90 52 6c
        E 12 80 52 6c
        E 12 b0 7b 00
        CCINTERP 32
        CHASE_CC_TAKEOFFS 1
        GUID {1A5EFE47-284F-4008-AAB1-C3B225E0CF58}
        IGNTEMPO 0 120 4 4
        SRCCOLOR 46
        VELLANE 128 100 0
        CFGEDITVIEW -1528.839376 0.302677 19 15 0 -1 0 0 0 0.5
        KEYSNAP 0
        TRACKSEL 0
        EVTFILTER 0 -1 -1 -1 -1 0 0 0 0 -1 -1 -1 -1 0 -1 0 -1 -1
        CFGEDIT 1 1 0 1 0 4 1 1 1 1 1 0.125 308 119 1667 1129 0 0 0 0 0 0 0 1 0 0.5 0 0 1 64
      >
    >
    <ITEM
      POSITION 21.942848
      SNAPOFFS 0
      LENGTH 10.971424
      LOOP 1
      ALLTAKES 0
      FADEIN 1 0 0 1 0 0 0
      FADEOUT 1 0 0 1 0 0 0
      MUTE 0 0
      SEL 0
      IGUID {E008EAE3-6FCC-4FDD-90FE-A1F05AA6FF7B}
      IID 42
      NAME "Track 2 - e1m1-2.mid"
      VOLPAN 1 0 1 -1
      SOFFS 0 0
      PLAYRATE 1 1 0 -1 0 0.0025
      CHANMODE 0
      GUID {8FA2D27B-845B-4A8E-B0CC-2A10B6C5DBEF}
      <SOURCE MIDI
        HASDATA 1 96 QN
        CCINTERP 32
        POOLEDEVTS {47A97DE1-2EB2-4A85-99D4-B4860A76176D}
        E 0 b0 00 00
        E 0 b0 20 00
        E 0 c0 5a 00
        E 0 b0 0a 6d
        E 0 90 54 71
        E 13 80 54 6c
        E 36 90 54 77
        E 23 80 54 72
        E 25 90 60 77
        E 47 80 60 72
        E 0 90 54 73
        E 15 80 54 6e
        E 33 90 54 73
        E 24 80 54 6f
        E 26 90 5e 74
        E 44 80 5e 6f
        E 5 90 54 6d
        E 15 80 54 68
        E 33 90 54 74
        E 15 80 54 74
        E 32 90 5b 79
        E 45 80 5b 74
        E 3 90 54 71
        E 15 80 54 6c
        E 33 90 54 73
        E 21 80 54 6e
        E 26 90 59 73
        E 45 80 59 6e
        E 3 90 54 73
        E 20 80 54 6e
        E 28 90 54 74
        E 23 80 54 75
        E 24 90 5b 73
        E 48 80 5b 6e
        E 0 90 5e 7a
        E 43 80 5e 75
        E 7 90 54 74
        E 8 80 54 6f
        E 38 90 54 74
        E 24 80 54 72
        E 27 90 60 77
        E 42 80 60 72
        E 5 90 54 6f
        E 15 80 54 6a
        E 33 90 54 71
        E 22 80 54 6a
        E 26 90 5e 6f
        E 47 80 5e 6a
        E 0 90 54 77
        E 15 80 54 72
        E 33 90 54 6f
        E 23 80 54 75
        E 25 90 5b 7a
        E 40 80 5b 75
        E 7 90 54 74
        E 18 80 54 6f
        E 30 90 54 77
        E 24 80 54 72
        E 24 90 59 77
        E 240 b0 0a 6d
        E 0 80 59 00
        E 0 90 54 71
        E 13 80 54 6c
        E 36 90 54 77
        E 23 80 54 72
        E 25 90 60 77
        E 47 80 60 72
        E 0 90 54 73
        E 15 80 54 6e
        E 33 90 54 73
        E 24 80 54 6f
        E 26 90 5e 74
        E 44 80 5e 6f
        E 5 90 54 6d
        E 15 80 54 68
        E 33 90 54 74
        E 15 80 54 74
        E 32 90 5b 79
        E 45 80 5b 74
        E 3 90 54 71
        E 15 80 54 6c
        E 33 90 54 73
        E 21 80 54 6e
        E 26 90 59 73
        E 45 80 59 6e
        E 3 90 54 73
        E 20 80 54 6e
        E 28 90 54 74
        E 23 80 54 75
        E 24 90 5b 73
        E 48 80 5b 6e
        E 0 90 5e 7a
        E 43 80 5e 75
        E 7 90 54 74
        E 8 80 54 6f
        E 38 90 54 74
        E 24 80 54 72
        E 27 90 60 77
        E 42 80 60 72
        E 5 90 54 6f
        E 15 80 54 6a
        E 33 90 54 71
        E 22 80 54 6a
        E 26 90 5e 6f
        E 47 80 5e 6a
        E 0 90 54 77
        E 15 80 54 72
        E 33 90 54 6f
        E 23 80 54 75
        E 24 90 5b 75
        E 12 80 5b 70
        E 10 90 59 6e
        E 12 80 59 69
        E 14 90 56 75
        E 12 80 56 70
        E 12 90 59 6c
        E 11 80 59 67
        E 13 90 5b 74
        E 14 80 5b 6f
        E 12 90 59 6b
        E 10 80 59 66
        E 12 90 56 76
        E 14 80 56 71
        E 10 90 54 6c
        E 12 80 54 67
        E 14 90 56 74
        E 11 80 56 6f
        E 11 90 59 6a
        E 13 80 59 65
        E 13 90 5b 75
        E 11 80 5b 70
        E 11 90 5e 6c
        E 14 80 5e 67
        E 13 90 59 73
        E 10 80 59 6e
        E 11 90 56 69
        E 12 80 56 64
        E 13 90 54 76
        E 11 80 54 71
        E 12 90 52 6c
        E 12 80 52 6c
        E 12 b0 7b 00
        CCINTERP 32
        CHASE_CC_TAKEOFFS 1
        GUID {05ECA426-5683-44DC-843C-C1FE2F0B385A}
        IGNTEMPO 0 120 4 4
        SRCCOLOR 205
        VELLANE 128 100 0
        CFGEDITVIEW 582.426977 0.543865 19 15 0 -1 0 0 0 0.5
        KEYSNAP 0
        TRACKSEL 0
        EVTFILTER 0 -1 -1 -1 -1 0 0 0 0 -1 -1 -1 -1 0 -1 0 -1 -1
        CFGEDIT 1 1 0 1 0 4 1 1 1 1 1 0.125 308 119 1667 1129 0 0 0 0 0 0 0 1 0 0.5 0 0 1 64
      >
    >
    <ITEM
      POSITION 38.39998399999936
      SNAPOFFS 0
      LENGTH 5.485712
      LOOP 1
      ALLTAKES 0
      FADEIN 1 0 0 1 0 0 0
      FADEOUT 1 0 0 1 0 0 0
      MUTE 0 0
      SEL 0
      IGUID {AC7BF73D-2900-4E5E-9B07-C3F97FB5FFC7}
      IID 43
      NAME "Track 2 - e1m1-2.mid"
      VOLPAN 1 0 1 -1
      SOFFS 0 0
      PLAYRATE 1 1 0 -1 0 0.0025
      CHANMODE 0
      GUID {753B09C3-55DE-44A8-A1FC-4C8B80EC9851}
      <SOURCE MIDI
        HASDATA 1 96 QN
        CCINTERP 32
        POOLEDEVTS {1AB89381-F29E-4DCC-BB85-9B24CE47EFEF}
        E 0 b0 00 00
        E 0 b0 20 00
        E 0 c0 5a 00
        E 0 b0 0a 6d
        E 0 90 54 71
        E 13 80 54 6c
        E 36 90 54 77
        E 23 80 54 72
        E 25 90 60 77
        E 47 80 60 72
        E 0 90 54 73
        E 15 80 54 6e
        E 33 90 54 73
        E 24 80 54 6f
        E 26 90 5e 74
        E 44 80 5e 6f
        E 5 90 54 6d
        E 15 80 54 68
        E 33 90 54 74
        E 15 80 54 74
        E 32 90 5b 79
        E 45 80 5b 74
        E 3 90 54 71
        E 15 80 54 6c
        E 33 90 54 73
        E 21 80 54 6e
        E 26 90 59 73
        E 45 80 59 6e
        E 3 90 54 73
        E 20 80 54 6e
        E 28 90 54 74
        E 23 80 54 75
        E 24 90 5b 73
        E 48 80 5b 6e
        E 0 90 5e 7a
        E 43 80 5e 75
        E 7 90 54 74
        E 8 80 54 6f
        E 38 90 54 74
        E 24 80 54 72
        E 27 90 60 77
        E 42 80 60 72
        E 5 90 54 6f
        E 15 80 54 6a
        E 33 90 54 71
        E 22 80 54 6a
        E 26 90 5e 6f
        E 47 80 5e 6a
        E 0 90 54 77
        E 15 80 54 72
        E 33 90 54 6f
        E 23 80 54 75
        E 25 90 5b 7a
        E 40 80 5b 75
        E 7 90 54 74
        E 18 80 54 6f
        E 30 90 54 77
        E 24 80 54 72
        E 24 90 59 77
        E 240 b0 0a 6d
        E 0 80 59 00
        E 0 90 54 71
        E 13 80 54 6c
        E 36 90 54 77
        E 23 80 54 72
        E 25 90 60 77
        E 47 80 60 72
        E 0 90 54 73
        E 15 80 54 6e
        E 33 90 54 73
        E 24 80 54 6f
        E 26 90 5e 74
        E 44 80 5e 6f
        E 5 90 54 6d
        E 15 80 54 68
        E 33 90 54 74
        E 15 80 54 74
        E 32 90 5b 79
        E 45 80 5b 74
        E 3 90 54 71
        E 15 80 54 6c
        E 33 90 54 73
        E 21 80 54 6e
        E 26 90 59 73
        E 45 80 59 6e
        E 3 90 54 73
        E 20 80 54 6e
        E 28 90 54 74
        E 23 80 54 75
        E 24 90 5b 73
        E 48 80 5b 6e
        E 0 90 5e 7a
        E 43 80 5e 75
        E 7 90 54 74
        E 8 80 54 6f
        E 38 90 54 74
        E 24 80 54 72
        E 27 90 60 77
        E 42 80 60 72
        E 5 90 54 6f
        E 15 80 54 6a
        E 33 90 54 71
        E 22 80 54 6a
        E 26 90 5e 6f
        E 47 80 5e 6a
        E 0 90 54 77
        E 15 80 54 72
        E 33 90 54 6f
        E 23 80 54 75
        E 24 90 5b 75
        E 12 80 5b 70
        E 10 90 59 6e
        E 12 80 59 69
        E 14 90 56 75
        E 12 80 56 70
        E 12 90 59 6c
        E 11 80 59 67
        E 13 90 5b 74
        E 14 80 5b 6f
        E 12 90 59 6b
        E 10 80 59 66
        E 12 90 56 76
        E 14 80 56 71
        E 10 90 54 6c
        E 12 80 54 67
        E 14 90 56 74
        E 11 80 56 6f
        E 11 90 59 6a
        E 13 80 59 65
        E 13 90 5b 75
        E 11 80 5b 70
        E 11 90 5e 6c
        E 14 80 5e 67
        E 13 90 59 73
        E 10 80 59 6e
        E 11 90 56 69
        E 12 80 56 64
        E 13 90 54 76
        E 11 80 54 71
        E 12 90 52 6c
        E 12 80 52 6c
        E 12 b0 7b 00
        CCINTERP 32
        CHASE_CC_TAKEOFFS 1
        GUID {945CBCA3-9F44-48BA-A52C-2AC333FB6EDD}
        IGNTEMPO 0 120 4 4
        SRCCOLOR 206
        VELLANE 128 100 0
        CFGEDITVIEW 0 0.302677 19 15 0 -1 0 0 0 0.5
        KEYSNAP 0
        TRACKSEL 0
        EVTFILTER 0 -1 -1 -1 -1 0 0 0 0 -1 -1 -1 -1 0 -1 0 -1 -1
        CFGEDIT 1 1 0 1 0 4 1 1 1 1 1 0.125 308 119 1667 1129 0 0 0 0 0 0 0 1 0 0.5 0 0 1 64
      >
    >
    <ITEM
      POSITION 49.37140799999917
      SNAPOFFS 0
      LENGTH 5.48571200000016
      LOOP 1
      ALLTAKES 0
      FADEIN 1 0 0 1 0 0 0
      FADEOUT 1 0 0 1 0 0 0
      MUTE 0 0
      SEL 0
      IGUID {26C1A32C-32A3-4CB8-9AE1-0FB245238275}
      IID 44
      NAME "Track 2 - e1m1-2.mid"
      VOLPAN 1 0 1 -1
      SOFFS 5.485712 16
      PLAYRATE 1 1 0 -1 0 0.0025
      CHANMODE 0
      GUID {E49F288F-1565-4EAD-B7A9-E94548CD3EF8}
      <SOURCE MIDI
        HASDATA 1 96 QN
        CCINTERP 32
        POOLEDEVTS {244E8DF6-53CC-44D7-84D9-A348E39F8774}
        E 0 b0 00 00
        E 0 b0 20 00
        E 0 c0 5a 00
        E 0 b0 0a 6d
        E 0 90 54 71
        E 13 80 54 6c
        E 36 90 54 77
        E 23 80 54 72
        E 25 90 60 77
        E 47 80 60 72
        E 0 90 54 73
        E 15 80 54 6e
        E 33 90 54 73
        E 24 80 54 6f
        E 26 90 5e 74
        E 44 80 5e 6f
        E 5 90 54 6d
        E 15 80 54 68
        E 33 90 54 74
        E 15 80 54 74
        E 32 90 5b 79
        E 45 80 5b 74
        E 3 90 54 71
        E 15 80 54 6c
        E 33 90 54 73
        E 21 80 54 6e
        E 26 90 59 73
        E 45 80 59 6e
        E 3 90 54 73
        E 20 80 54 6e
        E 28 90 54 74
        E 23 80 54 75
        E 24 90 5b 73
        E 48 80 5b 6e
        E 0 90 5e 7a
        E 43 80 5e 75
        E 7 90 54 74
        E 8 80 54 6f
        E 38 90 54 74
        E 24 80 54 72
        E 27 90 60 77
        E 42 80 60 72
        E 5 90 54 6f
        E 15 80 54 6a
        E 33 90 54 71
        E 22 80 54 6a
        E 26 90 5e 6f
        E 47 80 5e 6a
        E 0 90 54 77
        E 15 80 54 72
        E 33 90 54 6f
        E 23 80 54 75
        E 25 90 5b 7a
        E 40 80 5b 75
        E 7 90 54 74
        E 18 80 54 6f
        E 30 90 54 77
        E 24 80 54 72
        E 24 90 59 77
        E 240 b0 0a 6d
        E 0 80 59 00
        E 0 90 54 71
        E 13 80 54 6c
        E 36 90 54 77
        E 23 80 54 72
        E 25 90 60 77
        E 47 80 60 72
        E 0 90 54 73
        E 15 80 54 6e
        E 33 90 54 73
        E 24 80 54 6f
        E 26 90 5e 74
        E 44 80 5e 6f
        E 5 90 54 6d
        E 15 80 54 68
        E 33 90 54 74
        E 15 80 54 74
        E 32 90 5b 79
        E 45 80 5b 74
        E 3 90 54 71
        E 15 80 54 6c
        E 33 90 54 73
        E 21 80 54 6e
        E 26 90 59 73
        E 45 80 59 6e
        E 3 90 54 73
        E 20 80 54 6e
        E 28 90 54 74
        E 23 80 54 75
        E 24 90 5b 73
        E 48 80 5b 6e
        E 0 90 5e 7a
        E 43 80 5e 75
        E 7 90 54 74
        E 8 80 54 6f
        E 38 90 54 74
        E 24 80 54 72
        E 27 90 60 77
        E 42 80 60 72
        E 5 90 54 6f
        E 15 80 54 6a
        E 33 90 54 71
        E 22 80 54 6a
        E 26 90 5e 6f
        E 47 80 5e 6a
        E 0 90 54 77
        E 15 80 54 72
        E 33 90 54 6f
        E 23 80 54 75
        E 24 90 5b 75
        E 12 80 5b 70
        E 10 90 59 6e
        E 12 80 59 69
        E 14 90 56 75
        E 12 80 56 70
        E 12 90 59 6c
        E 11 80 59 67
        E 13 90 5b 74
        E 14 80 5b 6f
        E 12 90 59 6b
        E 10 80 59 66
        E 12 90 56 76
        E 14 80 56 71
        E 10 90 54 6c
        E 12 80 54 67
        E 14 90 56 74
        E 11 80 56 6f
        E 11 90 59 6a
        E 13 80 59 65
        E 13 90 5b 75
        E 11 80 5b 70
        E 11 90 5e 6c
        E 14 80 5e 67
        E 13 90 59 73
        E 10 80 59 6e
        E 11 90 56 69
        E 12 80 56 64
        E 13 90 54 76
        E 11 80 54 71
        E 12 90 52 6c
        E 12 80 52 6c
        E 12 b0 7b 00
        CCINTERP 32
        CHASE_CC_TAKEOFFS 1
        GUID {99A56EE5-D5E6-4794-B509-A36619014DC4}
        IGNTEMPO 0 120 4 4
        SRCCOLOR 207
        VELLANE 128 100 0
        CFGEDITVIEW 0 0.302677 19 15 0 -1 0 0 0 0.5
        KEYSNAP 0
        TRACKSEL 0
        EVTFILTER 0 -1 -1 -1 -1 0 0 0 0 -1 -1 -1 -1 0 -1 0 -1 -1
        CFGEDIT 1 1 0 1 0 4 1 1 1 1 1 0.125 308 119 1667 1129 0 0 0 0 0 0 0 1 0 0.5 0 0 1 64
      >
    >
    <ITEM
      POSITION 82.28568
      SNAPOFFS 0
      LENGTH 5.485712
      LOOP 1
      ALLTAKES 0
      FADEIN 1 0 0 1 0 0 0
      FADEOUT 1 0 0 1 0 0 0
      MUTE 0 0
      SEL 0
      IGUID {FFBC7D96-0896-487D-B3D0-C69EA0B12139}
      IID 35
      NAME "Track 2 - e1m1-2.mid"
      VOLPAN 1 0 1 -1
      SOFFS 0 0
      PLAYRATE 1 1 0 -1 0 0.0025
      CHANMODE 0
      GUID {BD4888F7-EC16-4EBE-8DA5-43E0667A69F6}
      <SOURCE MIDI
        HASDATA 1 96 QN
        CCINTERP 32
        POOLEDEVTS {5D0119E7-AC1E-4BEF-821F-2AF0D3FD07C5}
        E 0 b0 00 00
        E 0 b0 20 00
        E 0 c0 5a 00
        E 0 b0 0a 6d
        E 0 90 54 71
        E 13 80 54 6c
        E 36 90 54 77
        E 48 90 60 77
        E 8 80 54 72
        E 39 80 60 72
        E 0 90 54 73
        E 15 80 54 6e
        E 33 90 54 73
        E 50 90 5e 74
        E 6 80 54 6f
        E 38 80 5e 6f
        E 5 90 54 6d
        E 15 80 54 68
        E 33 90 54 74
        E 47 80 54 74
        E 0 90 5b 79
        E 45 80 5b 74
        E 3 90 54 71
        E 15 80 54 6c
        E 33 90 54 73
        E 47 90 59 73
        E 6 80 54 6e
        E 39 80 59 6e
        E 3 90 54 73
        E 20 80 54 6e
        E 28 90 54 74
        E 47 90 5b 73
        E 48 80 5b 6e
        E 0 90 5e 7a
        E 34 80 54 75
        E 9 80 5e 75
        E 7 90 54 74
        E 8 80 54 6f
        E 41 90 54 74
        E 48 90 60 77
        E 9 80 54 72
        E 33 80 60 72
        E 5 90 54 6f
        E 15 80 54 6a
        E 33 90 54 71
        E 48 90 5e 6f
        E 8 80 54 6a
        E 39 80 5e 6a
        E 0 90 54 77
        E 15 80 54 72
        E 33 90 54 6f
        E 48 90 5b 7a
        E 2 80 54 75
        E 38 80 5b 75
        E 7 90 54 74
        E 18 80 54 6f
        E 30 90 54 77
        E 50 90 59 77
        E 234 80 54 72
        E 6 90 54 71
        E 8 80 59 6c
        E 9 80 54 6c
        E 30 90 54 70
        E 48 90 60 76
        E 23 80 54 71
        E 25 80 60 71
        E 0 90 54 6e
        E 17 80 54 69
        E 30 90 54 74
        E 48 90 5e 73
        E 8 80 54 6e
        E 42 80 5e 6f
        E 0 90 54 74
        E 18 80 54 6f
        E 30 90 54 77
        E 46 90 5b 7b
        E 4 80 54 76
        E 41 80 5b 76
        E 5 90 54 6f
        E 15 80 54 6a
        E 33 90 54 71
        E 48 90 59 78
        E 2 80 54 73
        E 45 90 54 74
        E 6 80 59 6f
        E 9 80 54 6f
        E 33 90 54 74
        E 48 90 5b 73
        E 47 80 5b 6e
        E 0 90 5e 74
        E 29 80 54 6f
        E 19 80 5e 6f
        E 0 90 54 73
        E 19 80 54 6e
        E 31 90 54 71
        E 48 90 60 7a
        E 35 80 54 75
        E 14 90 54 74
        E 4 80 60 6f
        E 12 80 54 6f
        E 30 90 54 71
        E 49 90 5e 73
        E 12 80 54 6e
        E 36 80 5e 6e
        E 0 90 54 77
        E 15 80 54 72
        E 32 90 54 78
        E 28 80 54 73
        E 19 90 5b 75
        E 24 90 59 6e
        E 2 80 5b 70
        E 20 80 59 69
        E 2 90 56 75
        E 24 80 56 70
        E 0 90 59 6c
        E 23 80 59 67
        E 1 90 5b 74
        E 26 80 5b 6f
        E 0 90 59 6b
        E 22 80 59 66
        E 0 90 56 76
        E 24 90 54 6c
        E 2 80 56 71
        E 22 80 54 67
        E 2 90 56 74
        E 22 90 59 6a
        E 1 80 56 6f
        E 24 80 59 65
        E 1 90 5b 75
        E 22 90 5e 6c
        E 1 80 5b 70
        E 25 80 5e 67
        E 1 90 59 73
        E 21 90 56 69
        E 1 80 59 6e
        E 23 80 56 64
        E 1 90 54 76
        E 23 80 54 71
        E 0 90 52 6c
        E 24 80 52 6c
        E 0 b0 7b 00
        CCINTERP 32
        CHASE_CC_TAKEOFFS 1
        GUID {29315098-6BA2-476B-BE33-7DC9D68ECB4A}
        IGNTEMPO 0 120 4 4
        SRCCOLOR 67
        VELLANE 128 100 0
        CFGEDITVIEW -12485.074769 0.2258 10 15 0 -1 0 0 0 0.5
        KEYSNAP 0
        TRACKSEL 0
        EVTFILTER 0 -1 -1 -1 -1 0 0 0 0 -1 -1 -1 -1 0 -1 0 -1 -1
        CFGEDIT 1 1 0 1 0 4 1 1 1 1 1 0.125 308 119 1667 1129 0 0 0 0 0 0 0 1 0 0.5 0 0 1 64
      >
    >
    <ITEM
      POSITION 93.257104
      SNAPOFFS 0
      LENGTH 5.485712
      LOOP 1
      ALLTAKES 0
      FADEIN 1 0 0 1 0 0 0
      FADEOUT 1 0 0 1 0 0 0
      MUTE 0 0
      SEL 0
      IGUID {51D391CA-1F3B-40F7-86F4-6BDED0629924}
      IID 36
      NAME "Track 2 - e1m1-2.mid"
      VOLPAN 1 0 1 -1
      SOFFS 5.485712 16.00000000000034
      PLAYRATE 1 1 0 -1 0 0.0025
      CHANMODE 0
      GUID {D9840941-043B-4043-8228-56AE9D12A8D5}
      <SOURCE MIDI
        HASDATA 1 96 QN
        CCINTERP 32
        POOLEDEVTS {A17D917A-0D5B-4138-8316-DEB1D81587D1}
        E 0 b0 00 00
        E 0 b0 20 00
        E 0 c0 5a 00
        E 0 b0 0a 6d
        E 0 90 54 71
        E 13 80 54 6c
        E 36 90 54 77
        E 48 90 60 77
        E 8 80 54 72
        E 39 80 60 72
        E 0 90 54 73
        E 15 80 54 6e
        E 33 90 54 73
        E 50 90 5e 74
        E 6 80 54 6f
        E 38 80 5e 6f
        E 5 90 54 6d
        E 15 80 54 68
        E 33 90 54 74
        E 47 80 54 74
        E 0 90 5b 79
        E 45 80 5b 74
        E 3 90 54 71
        E 15 80 54 6c
        E 33 90 54 73
        E 47 90 59 73
        E 6 80 54 6e
        E 39 80 59 6e
        E 3 90 54 73
        E 20 80 54 6e
        E 28 90 54 74
        E 47 90 5b 73
        E 48 80 5b 6e
        E 0 90 5e 7a
        E 34 80 54 75
        E 9 80 5e 75
        E 7 90 54 74
        E 8 80 54 6f
        E 41 90 54 74
        E 48 90 60 77
        E 9 80 54 72
        E 33 80 60 72
        E 5 90 54 6f
        E 15 80 54 6a
        E 33 90 54 71
        E 48 90 5e 6f
        E 8 80 54 6a
        E 39 80 5e 6a
        E 0 90 54 77
        E 15 80 54 72
        E 33 90 54 6f
        E 48 90 5b 7a
        E 2 80 54 75
        E 38 80 5b 75
        E 7 90 54 74
        E 18 80 54 6f
        E 30 90 54 77
        E 50 90 59 77
        E 234 80 54 72
        E 6 90 54 71
        E 8 80 59 6c
        E 9 80 54 6c
        E 30 90 54 70
        E 48 90 60 76
        E 23 80 54 71
        E 25 80 60 71
        E 0 90 54 6e
        E 17 80 54 69
        E 30 90 54 74
        E 48 90 5e 73
        E 8 80 54 6e
        E 42 80 5e 6f
        E 0 90 54 74
        E 18 80 54 6f
        E 30 90 54 77
        E 46 90 5b 7b
        E 4 80 54 76
        E 41 80 5b 76
        E 5 90 54 6f
        E 15 80 54 6a
        E 33 90 54 71
        E 48 90 59 78
        E 2 80 54 73
        E 45 90 54 74
        E 6 80 59 6f
        E 9 80 54 6f
        E 33 90 54 74
        E 48 90 5b 73
        E 47 80 5b 6e
        E 0 90 5e 74
        E 29 80 54 6f
        E 19 80 5e 6f
        E 0 90 54 73
        E 19 80 54 6e
        E 31 90 54 71
        E 48 90 60 7a
        E 35 80 54 75
        E 14 90 54 74
        E 4 80 60 6f
        E 12 80 54 6f
        E 30 90 54 71
        E 49 90 5e 73
        E 12 80 54 6e
        E 36 80 5e 6e
        E 0 90 54 77
        E 15 80 54 72
        E 32 90 54 78
        E 28 80 54 73
        E 19 90 5b 75
        E 24 90 59 6e
        E 2 80 5b 70
        E 20 80 59 69
        E 2 90 56 75
        E 24 80 56 70
        E 0 90 59 6c
        E 23 80 59 67
        E 1 90 5b 74
        E 26 80 5b 6f
        E 0 90 59 6b
        E 22 80 59 66
        E 0 90 56 76
        E 24 90 54 6c
        E 2 80 56 71
        E 22 80 54 67
        E 2 90 56 74
        E 22 90 59 6a
        E 1 80 56 6f
        E 24 80 59 65
        E 1 90 5b 75
        E 22 90 5e 6c
        E 1 80 5b 70
        E 25 80 5e 67
        E 1 90 59 73
        E 21 90 56 69
        E 1 80 59 6e
        E 23 80 56 64
        E 1 90 54 76
        E 23 80 54 71
        E 0 90 52 6c
        E 24 80 52 6c
        E 0 b0 7b 00
        CCINTERP 32
        CHASE_CC_TAKEOFFS 1
        GUID {950FBCD7-1856-46E1-89B5-08DBD9075EA9}
        IGNTEMPO 0 120 4 4
        SRCCOLOR 68
        VELLANE 128 100 0
        CFGEDITVIEW -11942.353903 0.405729 10 15 0 -1 0 0 0 0.5
        KEYSNAP 0
        TRACKSEL 0
        EVTFILTER 0 -1 -1 -1 -1 0 0 0 0 -1 -1 -1 -1 0 -1 0 -1 -1
        CFGEDIT 1 1 0 1 0 4 1 1 1 1 1 0.125 308 119 1667 1129 0 0 0 0 0 0 0 1 0 0.5 0 0 1 64
      >
    >
  >
  <TRACK {C10FAFC7-B56F-4086-A6E4-B0B69C00B8ED}
    NAME "Track 2"
    PEAKCOL 16576
    BEAT -1
    AUTOMODE 0
    VOLPAN 0.28367082259856 0 -1 -1 1
    MUTESOLO 0 0 0
    IPHASE 0
    PLAYOFFS 0 1
    ISBUS 0 0
    BUSCOMP 0 0 0 0 0
    SHOWINMIX 1 0.6667 0.5 1 0.5 0 0 0
    SEL 0
    REC 0 0 1 0 0 0 0 0
    VU 2
    TRACKHEIGHT 0 0 0 0 0 0
    INQ 0 0 0 0.5 100 0 0 100
    NCHAN 2
    FX 1
    TRACKID {C10FAFC7-B56F-4086-A6E4-B0B69C00B8ED}
    PERF 0
    MIDIOUT 44
    MAINSEND 1 0
    <ITEM
      POSITION 31.542844
      SNAPOFFS 0
      LENGTH 6.85713999999972
      LOOP 1
      ALLTAKES 0
      FADEIN 1 0 0 1 0 0 0
      FADEOUT 1 0 0 1 0 0 0
      MUTE 0 0
      SEL 0
      IGUID {D7B3AFF5-C440-4962-AF02-CCFDDCECD707}
      IID 23
      NAME "Track 2 - e1m1-2.mid"
      VOLPAN 1 0 1 -1
      SOFFS 9.599996 28.00000000000048
      PLAYRATE 1 1 0 -1 0 0.0025
      CHANMODE 0
      GUID {F1421D6A-4AB9-42FA-9A1A-AE5F9BF391DF}
      <SOURCE MIDI
        HASDATA 1 96 QN
        CCINTERP 32
        POOLEDEVTS {F9D67579-4F8D-4346-85F2-1E65AA87B5DF}
        E 0 b0 00 00
        E 0 b0 20 00
        E 0 c0 50 00
        E 0 e0 10 1c
        e 0 b0 07 5a
        E 0 90 43 77
        E 12 e0 10 1c
        E 12 e0 44 1d
        E 12 e0 14 23
        E 12 e0 64 28
        E 12 e0 4d 2b
        E 12 e0 1d 31
        E 12 e0 3d 3c
        E 12 e0 00 40
        E 36 80 43 72
        E 12 90 48 74
        E 48 80 48 6f
        E 48 90 3c 74
        E 48 80 3c 6f
        E 0 90 46 74
        E 48 80 46 6f
        E 0 90 3c 73
        E 24 80 3c 00
        E 26 90 43 79
        E 70 80 43 74
        E 24 90 3c 73
        E 24 80 3c 00
        E 25 90 41 73
        E 83 80 41 6e
        E 12 90 3c 73
        E 24 80 3c 00
        E 24 90 43 73
        E 48 80 43 6e
        E 0 90 46 7a
        E 127 80 46 75
        E 20 90 48 77
        E 9 e0 28 19
        E 12 e0 44 1d
        E 36 e0 01 2d
        E 12 e0 39 35
        E 12 e0 09 3b
        E 12 e0 00 40
        E 33 80 48 72
        E 17 90 46 6f
        E 94 80 46 6a
        E 0 90 3c 77
        E 24 80 3c 00
        E 25 90 43 7a
        E 35 e0 00 40
        E 12 e0 55 39
        E 12 e0 69 2f
        E 12 e0 48 24
        E 24 e0 00 40
        E 0 80 43 75
        E 0 90 3c 77
        E 24 80 3c 00
        E 26 90 41 77
        E 332 80 41 6c
        E 2 e0 74 17
        E 1 90 48 76
        E 11 e0 28 19
        E 12 e0 2c 20
        E 12 e0 7c 25
        E 12 e0 01 2d
        E 12 e0 51 32
        E 12 e0 55 39
        E 12 e0 00 40
        E 49 80 48 71
        E 11 90 46 73
        E 134 80 46 6f
        E 10 90 43 7b
        E 129 80 43 76
        E 17 90 41 78
        E 137 80 41 6f
        E 6 90 43 73
        E 47 90 46 74
        E 84 80 43 6e
        E 48 80 46 6f
        E 12 e0 74 17
        E 2 90 48 7a
        E 10 e0 10 1c
        E 12 e0 60 21
        E 12 e0 7c 25
        E 12 e0 4d 2b
        E 12 e0 1d 31
        E 12 e0 6d 36
        E 12 e0 00 40
        E 12 e0 00 40
        E 43 80 48 6f
        E 7 90 46 73
        E 132 80 46 6e
        E 298 90 3c 77
        E 36 80 3c 00
        E 12 90 3c 77
        E 36 80 3c 00
        E 12 b0 7b 00
        CCINTERP 32
        CHASE_CC_TAKEOFFS 1
        GUID {99DC0220-039C-4322-AE3A-704C6A569BAE}
        IGNTEMPO 0 120 4 4
        SRCCOLOR 55
        VELLANE 128 100 0
        CFGEDITVIEW 2880.00126 0.771524 43 17 0 -1 0 0 0 0.5
        KEYSNAP 0
        TRACKSEL 0
        EVTFILTER 0 -1 -1 -1 -1 0 0 0 0 -1 -1 -1 -1 0 -1 0 -1 -1
        CFGEDIT 1 1 0 1 0 4 1 1 1 1 1 0.125 308 119 1667 1129 0 0 0 0 0 0 0 1 0 0.5 0 0 1 64
      >
    >
    <ITEM
      POSITION 42.514268
      SNAPOFFS 0
      LENGTH 6.85714
      LOOP 1
      ALLTAKES 0
      FADEIN 1 0 0 1 0 0 0
      FADEOUT 1 0 0 1 0 0 0
      MUTE 0 0
      SEL 0
      IGUID {BC9B4451-59D5-426D-A2CF-B1133F3109BD}
      IID 34
      NAME "Track 2 - e1m1-2.mid"
      VOLPAN 1 0 1 -1
      SOFFS 9.599996 28.00000000000048
      PLAYRATE 1 1 0 -1 0 0.0025
      CHANMODE 0
      GUID {9496A7C3-B178-4796-992E-914B4F7778F1}
      <SOURCE MIDI
        HASDATA 1 96 QN
        CCINTERP 32
        POOLEDEVTS {90E7F9D6-1B77-4557-84BF-66073CD23EA7}
        E 0 b0 00 00
        E 0 b0 20 00
        E 0 c0 50 00
        e 0 e0 10 1c
        e 0 90 43 77
        e 12 e0 10 1c
        e 12 e0 44 1d
        e 12 e0 14 23
        e 12 e0 64 28
        e 12 e0 4d 2b
        e 12 e0 1d 31
        e 12 e0 3d 3c
        e 12 e0 00 40
        e 36 80 43 72
        e 12 90 48 74
        e 48 80 48 6f
        e 48 90 3c 74
        e 48 80 3c 6f
        e 0 90 46 74
        e 48 80 46 6f
        e 0 90 3c 73
        e 24 80 3c 00
        e 26 90 43 79
        e 70 80 43 74
        e 24 90 3c 73
        e 24 80 3c 00
        e 25 90 41 73
        e 83 80 41 6e
        e 12 90 3c 73
        e 24 80 3c 00
        e 24 90 43 73
        e 48 80 43 6e
        e 0 90 46 7a
        e 127 80 46 75
        e 20 90 48 77
        e 9 e0 28 19
        e 12 e0 44 1d
        e 36 e0 01 2d
        e 12 e0 39 35
        e 12 e0 09 3b
        e 12 e0 00 40
        e 33 80 48 72
        e 17 90 46 6f
        e 94 80 46 6a
        e 0 90 3c 77
        e 24 80 3c 00
        e 25 90 43 7a
        e 35 e0 00 40
        e 12 e0 55 39
        e 12 e0 69 2f
        e 12 e0 48 24
        e 24 e0 00 40
        e 0 80 43 75
        e 0 90 3c 77
        e 24 80 3c 00
        e 26 90 41 77
        e 332 80 41 6c
        E 2 e0 74 17
        E 1 90 48 76
        E 11 e0 28 19
        E 12 e0 2c 20
        E 12 e0 7c 25
        E 12 e0 01 2d
        E 12 e0 51 32
        E 12 e0 55 39
        E 12 e0 00 40
        E 49 80 48 71
        E 11 90 46 73
        E 134 80 46 6f
        E 10 90 43 7b
        E 129 80 43 76
        E 17 90 41 78
        E 137 80 41 6f
        E 6 90 43 73
        E 47 90 46 74
        E 84 80 43 6e
        E 48 80 46 6f
        E 12 e0 74 17
        E 2 90 48 7a
        E 10 e0 10 1c
        E 12 e0 60 21
        E 12 e0 7c 25
        E 12 e0 4d 2b
        E 12 e0 1d 31
        E 12 e0 6d 36
        E 12 e0 00 40
        E 12 e0 00 40
        E 43 80 48 6f
        E 7 90 46 73
        E 132 80 46 6e
        e 298 90 3c 77
        e 36 80 3c 00
        e 12 90 3c 77
        e 36 80 3c 00
        E 12 b0 7b 00
        CCINTERP 32
        CHASE_CC_TAKEOFFS 1
        GUID {D2069430-1E93-453C-894B-D50AEF3AC25E}
        IGNTEMPO 0 120 4 4
        SRCCOLOR 66
        VELLANE 128 100 0
        CFGEDITVIEW 2442.036908 0.575564 37 15 0 -1 0 0 0 0.5
        KEYSNAP 0
        TRACKSEL 0
        EVTFILTER 0 -1 -1 -1 -1 0 0 0 0 -1 -1 -1 -1 0 -1 0 -1 -1
        CFGEDIT 1 1 0 1 0 1 1 1 1 1 1 0.125 308 119 1667 1129 0 0 0 0 0 0 0 1 0 0.5 0 0 1 64
      >
    >
    <ITEM
      POSITION 75.42853999999873
      SNAPOFFS 0
      LENGTH 6.85714
      LOOP 1
      ALLTAKES 0
      FADEIN 1 0 0 1 0 0 0
      FADEOUT 1 0 0 1 0 0 0
      MUTE 0 0
      SEL 0
      IGUID {EFCB99CA-82D3-49F5-9BC1-CC6480DF6855}
      IID 57
      NAME "Track 2 - e1m1-2.mid"
      VOLPAN 1 0 1 -1
      SOFFS 9.599996 28.0000000000004
      PLAYRATE 1 1 0 -1 0 0.0025
      CHANMODE 0
      GUID {804C2EA3-1F4A-4C13-ABFC-2E44C7044873}
      <SOURCE MIDI
        HASDATA 1 96 QN
        CCINTERP 32
        POOLEDEVTS {A9AC29B9-0959-40EB-BB40-7B292588C047}
        E 0 b0 00 00
        E 0 b0 20 00
        E 0 c0 50 00
        e 0 e0 10 1c
        e 0 90 43 77
        e 12 e0 10 1c
        e 12 e0 44 1d
        e 12 e0 14 23
        e 12 e0 64 28
        e 12 e0 4d 2b
        e 12 e0 1d 31
        e 12 e0 3d 3c
        e 12 e0 00 40
        e 36 80 43 72
        e 12 90 48 74
        e 48 80 48 6f
        e 48 90 3c 74
        e 48 80 3c 6f
        e 0 90 46 74
        e 48 80 46 6f
        e 0 90 3c 73
        e 24 80 3c 00
        e 26 90 43 79
        e 70 80 43 74
        e 24 90 3c 73
        e 24 80 3c 00
        e 25 90 41 73
        e 83 80 41 6e
        e 12 90 3c 73
        e 24 80 3c 00
        e 24 90 43 73
        e 48 80 43 6e
        e 0 90 46 7a
        e 127 80 46 75
        e 20 90 48 77
        e 9 e0 28 19
        e 12 e0 44 1d
        e 36 e0 01 2d
        e 12 e0 39 35
        e 12 e0 09 3b
        e 12 e0 00 40
        e 33 80 48 72
        e 17 90 46 6f
        e 94 80 46 6a
        e 0 90 3c 77
        e 24 80 3c 00
        e 25 90 43 7a
        e 35 e0 00 40
        e 12 e0 55 39
        e 12 e0 69 2f
        e 12 e0 48 24
        e 24 e0 00 40
        e 0 80 43 75
        e 0 90 3c 77
        e 24 80 3c 00
        e 26 90 41 77
        e 332 80 41 6c
        E 2 e0 74 17
        E 1 90 48 76
        E 11 e0 28 19
        E 12 e0 2c 20
        E 12 e0 7c 25
        E 12 e0 01 2d
        E 12 e0 51 32
        E 12 e0 55 39
        E 12 e0 00 40
        E 49 80 48 71
        E 11 90 46 73
        E 134 80 46 6f
        E 10 90 43 7b
        E 129 80 43 76
        E 17 90 41 78
        E 137 80 41 6f
        E 6 90 43 73
        E 47 90 46 74
        E 84 80 43 6e
        E 48 80 46 6f
        E 12 e0 74 17
        E 2 90 48 7a
        E 10 e0 10 1c
        E 12 e0 60 21
        E 12 e0 7c 25
        E 12 e0 4d 2b
        E 12 e0 1d 31
        E 12 e0 6d 36
        E 12 e0 00 40
        E 12 e0 00 40
        E 43 80 48 6f
        E 7 90 46 73
        E 132 80 46 6e
        e 298 90 3c 77
        e 36 80 3c 00
        e 12 90 3c 77
        e 36 80 3c 00
        E 12 b0 7b 00
        CCINTERP 32
        CHASE_CC_TAKEOFFS 1
        GUID {B79FD76C-4C8B-44CA-AC63-1B54C71D74C8}
        IGNTEMPO 0 120 4 4
        SRCCOLOR 224
        VELLANE 128 100 0
        CFGEDITVIEW 0 0.575564 37 15 0 -1 0 0 0 0.5
        KEYSNAP 0
        TRACKSEL 0
        EVTFILTER 0 -1 -1 -1 -1 0 0 0 0 -1 -1 -1 -1 0 -1 0 -1 -1
        CFGEDIT 1 1 0 1 0 1 1 1 1 1 1 0.125 308 119 1667 1129 0 0 0 0 0 0 0 1 0 0.5 0 0 1 64
      >
    >
    <ITEM
      POSITION 86.399964
      SNAPOFFS 0
      LENGTH 6.85714
      LOOP 1
      ALLTAKES 0
      FADEIN 1 0 0 1 0 0 0
      FADEOUT 1 0 0 1 0 0 0
      MUTE 0 0
      SEL 0
      IGUID {DEC5716E-1DEC-4D99-896A-5F6F89336AE7}
      IID 38
      NAME "Track 2 - e1m1-2.mid"
      VOLPAN 1 0 1 -1
      SOFFS 9.599996 28.00000000000048
      PLAYRATE 1 1 0 -1 0 0.0025
      CHANMODE 0
      GUID {67493C91-6195-4264-B24A-84BF0D7D003F}
      <SOURCE MIDI
        HASDATA 1 96 QN
        CCINTERP 32
        POOLEDEVTS {CCE1787F-BDB0-441C-BB1E-D9829887B1D8}
        E 0 b0 00 00
        E 0 b0 20 00
        E 0 c0 50 00
        E 0 e0 10 1c
        E 0 90 43 77
        E 12 e0 10 1c
        E 12 e0 44 1d
        E 12 e0 14 23
        E 12 e0 64 28
        E 12 e0 4d 2b
        E 12 e0 1d 31
        E 12 e0 3d 3c
        E 12 e0 00 40
        E 36 80 43 72
        E 12 90 48 74
        E 48 80 48 6f
        E 48 90 3c 74
        E 48 80 3c 6f
        e 0 90 46 74
        e 48 80 46 6f
        E 0 90 3c 73
        E 24 80 3c 00
        E 26 90 43 79
        E 70 80 43 74
        E 24 90 3c 73
        E 24 80 3c 00
        E 25 90 41 73
        E 83 80 41 6e
        E 12 90 3c 73
        E 24 80 3c 00
        E 24 90 43 73
        E 48 80 43 6e
        E 0 90 46 7a
        E 127 80 46 75
        E 20 90 48 77
        E 9 e0 28 19
        E 12 e0 44 1d
        E 36 e0 01 2d
        E 12 e0 39 35
        E 12 e0 09 3b
        E 12 e0 00 40
        E 33 80 48 72
        E 17 90 46 6f
        E 94 80 46 6a
        E 0 90 3c 77
        E 24 80 3c 00
        E 25 90 43 7a
        E 35 e0 00 40
        E 12 e0 55 39
        E 12 e0 69 2f
        E 12 e0 48 24
        E 24 e0 00 40
        E 0 80 43 75
        E 0 90 3c 77
        E 24 80 3c 00
        E 26 90 41 77
        E 332 80 41 6c
        E 2 e0 74 17
        E 1 90 48 76
        E 11 e0 28 19
        E 12 e0 2c 20
        E 12 e0 7c 25
        E 12 e0 01 2d
        E 12 e0 51 32
        E 12 e0 55 39
        E 12 e0 00 40
        E 49 80 48 71
        E 11 90 46 73
        E 134 80 46 6f
        E 10 90 43 7b
        E 129 80 43 76
        E 17 90 41 78
        E 137 80 41 6f
        E 6 90 43 73
        E 47 90 46 74
        E 84 80 43 6e
        E 48 80 46 6f
        E 12 e0 74 17
        E 2 90 48 7a
        E 10 e0 10 1c
        E 12 e0 60 21
        E 12 e0 7c 25
        E 12 e0 4d 2b
        E 12 e0 1d 31
        E 12 e0 6d 36
        E 12 e0 00 40
        E 12 e0 00 40
        E 43 80 48 6f
        E 7 90 46 73
        E 132 80 46 6e
        E 298 90 3c 77
        E 36 80 3c 00
        E 12 90 3c 77
        E 36 80 3c 00
        E 12 b0 7b 00
        CCINTERP 32
        CHASE_CC_TAKEOFFS 1
        GUID {47952ECC-04D9-49D5-995D-D153EAABE0A5}
        IGNTEMPO 0 120 4 4
        SRCCOLOR 70
        VELLANE 128 100 0
        CFGEDITVIEW 0 0.575564 37 15 0 -1 0 0 0 0.5
        KEYSNAP 0
        TRACKSEL 0
        EVTFILTER 0 -1 -1 -1 -1 0 0 0 0 -1 -1 -1 -1 0 -1 0 -1 -1
        CFGEDIT 1 1 0 1 0 1 1 1 1 1 1 0.125 308 119 1667 1129 0 0 0 0 0 0 0 1 0 0.5 0 0 1 64
      >
    >
  >
>
